<svg id="mySVG" width="1000" height="1000"><circle cx="511.176" cy="424.038" r="5" fill="#1c1c1c"/><circle cx="480.002" cy="416.909" r="5" fill="#05140d"/><circle cx="620.462" cy="646.621" r="4" fill="#196643"/><circle cx="628.23" cy="378.489" r="5" fill="#196643"/><circle cx="467.641" cy="491.592" r="2" fill="#1c1c1c"/><circle cx="556.462" cy="540.272" r="1" fill="#1c1c1c"/><circle cx="468.205" cy="593.208" r="2" fill="#05140d"/><circle cx="431.448" cy="647.217" r="1" fill="#196643"/><circle cx="542.531" cy="455.483" r="3" fill="#1c1c1c"/><circle cx="536.417" cy="661.946" r="5" fill="#196643"/><circle cx="426.752" cy="430.146" r="5" fill="#0f3d28"/><circle cx="718.656" cy="579.136" r="2" fill="#196643"/><circle cx="422.799" cy="544.213" r="5" fill="#1c1c1c"/><circle cx="688.338" cy="635.946" r="1" fill="#248f5e"/><circle cx="334.2" cy="505.727" r="5" fill="#196643"/><circle cx="428.064" cy="705.909" r="3" fill="#248f5e"/><circle cx="598.247" cy="367.723" r="1" fill="#196643"/><circle cx="599.562" cy="556.547" r="1" fill="#1c1c1c"/><circle cx="350.207" cy="481.371" r="3" fill="#05140d"/><circle cx="875.495" cy="610.04" r="1" fill="#99e6c3"/><circle cx="461.272" cy="543.362" r="4" fill="#05140d"/><circle cx="624.602" cy="486.991" r="1" fill="#0f3d28"/><circle cx="449.897" cy="424.365" r="3" fill="#05140d"/><circle cx="477.372" cy="443.304" r="3" fill="#1c1c1c"/><circle cx="457.602" cy="652.509" r="2" fill="#0f3d28"/><circle cx="527.29" cy="479.433" r="3" fill="#1c1c1c"/><circle cx="303.585" cy="492.252" r="5" fill="#196643"/><circle cx="616.436" cy="578.849" r="2" fill="#196643"/><circle cx="489.179" cy="590.647" r="2" fill="#05140d"/><circle cx="603.398" cy="318.696" r="4" fill="#248f5e"/><circle cx="487.106" cy="455.45" r="2" fill="#1c1c1c"/><circle cx="583.715" cy="579.313" r="5" fill="#05140d"/><circle cx="360.692" cy="500.069" r="2" fill="#0f3d28"/><circle cx="359.422" cy="542.817" r="2" fill="#0f3d28"/><circle cx="436.186" cy="781.097" r="5" fill="#47d193"/><circle cx="457.926" cy="382.543" r="1" fill="#0f3d28"/><circle cx="492.061" cy="494.065" r="1" fill="#05140d"/><circle cx="725.685" cy="631.618" r="3" fill="#47d193"/><circle cx="635.008" cy="546.113" r="2" fill="#0f3d28"/><circle cx="544.111" cy="715.658" r="2" fill="#196643"/><circle cx="585.846" cy="593.15" r="3" fill="#196643"/><circle cx="409.84" cy="497.873" r="2" fill="#05140d"/><circle cx="612.324" cy="595.409" r="2" fill="#0f3d28"/><circle cx="542.67" cy="493.748" r="3" fill="#1c1c1c"/><circle cx="730.124" cy="715.608" r="1" fill="#99e6c3"/><circle cx="293.299" cy="590.257" r="3" fill="#248f5e"/><circle cx="624.233" cy="284.531" r="2" fill="#47d193"/><circle cx="515.725" cy="681.301" r="1" fill="#248f5e"/><circle cx="441.82" cy="494.737" r="4" fill="#1c1c1c"/><circle cx="388.479" cy="375.341" r="4" fill="#196643"/><circle cx="524.801" cy="601.759" r="3" fill="#0f3d28"/><circle cx="185.693" cy="783.425" r="5" fill="#99e6c3"/><circle cx="465.727" cy="320.682" r="5" fill="#196643"/><circle cx="282.896" cy="615.278" r="5" fill="#47d193"/><circle cx="322.231" cy="489.175" r="4" fill="#196643"/><circle cx="640.257" cy="589.643" r="5" fill="#196643"/><circle cx="852.493" cy="577.48" r="3" fill="#99e6c3"/><circle cx="617.797" cy="442.58" r="4" fill="#0f3d28"/><circle cx="366.961" cy="337.868" r="5" fill="#248f5e"/><circle cx="419.778" cy="495.827" r="5" fill="#1c1c1c"/><circle cx="373.568" cy="736.877" r="1" fill="#47d193"/><circle cx="497.843" cy="536.337" r="4" fill="#1c1c1c"/><circle cx="663.099" cy="385.06" r="4" fill="#196643"/><circle cx="346.585" cy="349.662" r="1" fill="#2eb879"/><circle cx="460.952" cy="382.485" r="2" fill="#05140d"/><circle cx="815.079" cy="661.849" r="5" fill="#99e6c3"/><circle cx="623.294" cy="438.434" r="3" fill="#05140d"/><circle cx="334.111" cy="488.512" r="5" fill="#0f3d28"/><circle cx="651.224" cy="447.809" r="5" fill="#0f3d28"/><circle cx="666.767" cy="492.003" r="1" fill="#196643"/><circle cx="781.885" cy="686.961" r="3" fill="#99e6c3"/><circle cx="303.168" cy="306.081" r="4" fill="#47d193"/><circle cx="402.637" cy="359.28" r="3" fill="#0f3d28"/><circle cx="499.356" cy="480.798" r="4" fill="#1c1c1c"/><circle cx="422.875" cy="549.495" r="3" fill="#05140d"/><circle cx="399.723" cy="629.625" r="4" fill="#196643"/><circle cx="496.096" cy="462.908" r="5" fill="#05140d"/><circle cx="373.706" cy="359.336" r="5" fill="#196643"/><circle cx="352.758" cy="456.017" r="1" fill="#0f3d28"/><circle cx="692.038" cy="713.969" r="5" fill="#47d193"/><circle cx="487.652" cy="479.836" r="4" fill="#1c1c1c"/><circle cx="688.784" cy="178.989" r="2" fill="#99e6c3"/><circle cx="439.074" cy="504.764" r="5" fill="#1c1c1c"/><circle cx="582.6" cy="673.589" r="5" fill="#196643"/><circle cx="368.924" cy="401.329" r="4" fill="#196643"/><circle cx="507.742" cy="700.241" r="4" fill="#248f5e"/><circle cx="632.189" cy="444.131" r="2" fill="#0f3d28"/><circle cx="562.445" cy="475.084" r="3" fill="#1c1c1c"/><circle cx="450.706" cy="506.204" r="2" fill="#05140d"/><circle cx="615.788" cy="532.616" r="5" fill="#0f3d28"/><circle cx="612.634" cy="242.393" r="3" fill="#47d193"/><circle cx="342.996" cy="362.19" r="3" fill="#248f5e"/><circle cx="350.837" cy="533.298" r="4" fill="#0f3d28"/><circle cx="694.934" cy="689.977" r="3" fill="#2eb879"/><circle cx="432.683" cy="649.254" r="3" fill="#196643"/><circle cx="447.657" cy="405.485" r="5" fill="#05140d"/><circle cx="456.761" cy="619.034" r="3" fill="#0f3d28"/><circle cx="530.331" cy="406.118" r="1" fill="#1c1c1c"/><circle cx="404.981" cy="289.953" r="2" fill="#248f5e"/><circle cx="454.418" cy="105.726" r="5" fill="#99e6c3"/><circle cx="503.443" cy="765.623" r="2" fill="#47d193"/><circle cx="401.858" cy="632.247" r="1" fill="#196643"/><circle cx="547.712" cy="641.578" r="2" fill="#0f3d28"/><circle cx="605.549" cy="422.994" r="4" fill="#0f3d28"/><circle cx="368.893" cy="518.939" r="3" fill="#196643"/><circle cx="779.454" cy="514.789" r="4" fill="#47d193"/><circle cx="550.688" cy="548.917" r="3" fill="#1c1c1c"/><circle cx="601.658" cy="391.28" r="1" fill="#0f3d28"/><circle cx="408.552" cy="490.999" r="5" fill="#05140d"/><circle cx="565.307" cy="214.365" r="5" fill="#47d193"/><circle cx="667.193" cy="405.02" r="2" fill="#196643"/><circle cx="560.164" cy="299.185" r="1" fill="#248f5e"/><circle cx="388.399" cy="347.354" r="2" fill="#248f5e"/><circle cx="397.409" cy="343.456" r="5" fill="#196643"/><circle cx="608.049" cy="663.121" r="1" fill="#248f5e"/><circle cx="557.408" cy="356.794" r="4" fill="#0f3d28"/><circle cx="542.846" cy="629.023" r="3" fill="#0f3d28"/><circle cx="522.102" cy="732.854" r="2" fill="#248f5e"/><circle cx="453.892" cy="636.034" r="4" fill="#0f3d28"/><circle cx="827.925" cy="591.912" r="1" fill="#99e6c3"/><circle cx="525.042" cy="342.843" r="4" fill="#0f3d28"/><circle cx="500.41" cy="489.684" r="4" fill="#1c1c1c"/><circle cx="463.591" cy="506.432" r="5" fill="#1c1c1c"/><circle cx="502.65" cy="535.468" r="3" fill="#1c1c1c"/><circle cx="387.511" cy="427.745" r="4" fill="#196643"/><circle cx="321.357" cy="661.162" r="3" fill="#47d193"/><circle cx="704.862" cy="558.132" r="5" fill="#248f5e"/><circle cx="558.006" cy="422.918" r="5" fill="#05140d"/><circle cx="444.644" cy="679.391" r="2" fill="#196643"/><circle cx="676.262" cy="429.267" r="2" fill="#196643"/><circle cx="520.134" cy="539.403" r="5" fill="#05140d"/><circle cx="405.052" cy="588.138" r="1" fill="#0f3d28"/><circle cx="483.391" cy="535.719" r="4" fill="#05140d"/><circle cx="438.384" cy="527.102" r="2" fill="#1c1c1c"/><circle cx="525.29" cy="484.116" r="3" fill="#1c1c1c"/><circle cx="511.635" cy="562.882" r="1" fill="#1c1c1c"/><circle cx="387.649" cy="444.891" r="5" fill="#196643"/><circle cx="389.907" cy="573.947" r="4" fill="#196643"/><circle cx="528.611" cy="484.669" r="5" fill="#1c1c1c"/><circle cx="633.88" cy="375.016" r="5" fill="#196643"/><circle cx="524.347" cy="558.987" r="4" fill="#1c1c1c"/><circle cx="387.596" cy="423.4" r="4" fill="#0f3d28"/><circle cx="785.764" cy="619.103" r="2" fill="#47d193"/><circle cx="635.402" cy="673.155" r="2" fill="#248f5e"/><circle cx="417.066" cy="274.709" r="5" fill="#47d193"/><circle cx="525.972" cy="563.61" r="1" fill="#1c1c1c"/><circle cx="557.59" cy="766.771" r="1" fill="#47d193"/><circle cx="554.666" cy="486.263" r="5" fill="#1c1c1c"/><circle cx="324.413" cy="355.761" r="5" fill="#248f5e"/><circle cx="697.86" cy="431.614" r="2" fill="#248f5e"/><circle cx="788.231" cy="327.295" r="3" fill="#47d193"/><circle cx="618.234" cy="633.854" r="5" fill="#196643"/><circle cx="740.18" cy="486.923" r="1" fill="#2eb879"/><circle cx="494.472" cy="395.608" r="2" fill="#05140d"/><circle cx="589.669" cy="500.115" r="2" fill="#05140d"/><circle cx="662.013" cy="627.195" r="3" fill="#196643"/><circle cx="459.911" cy="686.609" r="1" fill="#196643"/><circle cx="700.067" cy="498.948" r="5" fill="#248f5e"/><circle cx="265.723" cy="274.043" r="3" fill="#99e6c3"/><circle cx="504.235" cy="636.348" r="1" fill="#0f3d28"/><circle cx="533.642" cy="630.683" r="1" fill="#196643"/><circle cx="605.834" cy="491.271" r="3" fill="#05140d"/><circle cx="624.396" cy="571.91" r="5" fill="#0f3d28"/><circle cx="888.251" cy="765.566" r="2" fill="#99e6c3"/><circle cx="583.728" cy="880.992" r="1" fill="#99e6c3"/><circle cx="418.951" cy="237.579" r="1" fill="#47d193"/><circle cx="512.835" cy="382.318" r="1" fill="#0f3d28"/><circle cx="576.642" cy="385.387" r="3" fill="#0f3d28"/><circle cx="342.057" cy="561.42" r="5" fill="#196643"/><circle cx="654.648" cy="522.626" r="4" fill="#0f3d28"/><circle cx="661.987" cy="468.271" r="2" fill="#196643"/><circle cx="337.116" cy="405.758" r="5" fill="#196643"/><circle cx="243.152" cy="532.507" r="5" fill="#2eb879"/><circle cx="346.091" cy="465.209" r="3" fill="#196643"/><circle cx="573.708" cy="349.236" r="4" fill="#196643"/><circle cx="707.954" cy="401.805" r="2" fill="#248f5e"/><circle cx="533.81" cy="424.022" r="2" fill="#05140d"/><circle cx="552.47" cy="629.153" r="5" fill="#196643"/><circle cx="111.97" cy="442.725" r="4" fill="#99e6c3"/><circle cx="364.697" cy="379.525" r="3" fill="#196643"/><circle cx="380.053" cy="652.562" r="3" fill="#196643"/><circle cx="572.847" cy="686.185" r="5" fill="#196643"/><circle cx="172.422" cy="409.755" r="4" fill="#99e6c3"/><circle cx="399.412" cy="350.832" r="3" fill="#0f3d28"/><circle cx="525.2" cy="191.776" r="4" fill="#99e6c3"/><circle cx="454.431" cy="409.252" r="1" fill="#05140d"/><circle cx="460.557" cy="656.916" r="1" fill="#196643"/><circle cx="800.474" cy="443.675" r="1" fill="#47d193"/><circle cx="598.294" cy="790.582" r="3" fill="#47d193"/><circle cx="453.212" cy="293.582" r="5" fill="#248f5e"/><circle cx="638.773" cy="651.714" r="3" fill="#248f5e"/><circle cx="366.639" cy="476.58" r="3" fill="#0f3d28"/><circle cx="478.321" cy="637.946" r="5" fill="#05140d"/><circle cx="573.586" cy="271.01" r="5" fill="#47d193"/><circle cx="566.33" cy="596.435" r="5" fill="#05140d"/><circle cx="309.221" cy="437.645" r="2" fill="#248f5e"/><circle cx="505.032" cy="424.704" r="4" fill="#1c1c1c"/><circle cx="391.507" cy="631.706" r="5" fill="#196643"/><circle cx="401.529" cy="752.597" r="3" fill="#47d193"/><circle cx="604.32" cy="298.487" r="4" fill="#248f5e"/><circle cx="421.313" cy="583.716" r="4" fill="#0f3d28"/><circle cx="515.315" cy="793.426" r="2" fill="#47d193"/><circle cx="333.359" cy="433.076" r="4" fill="#196643"/><circle cx="709.597" cy="565.766" r="5" fill="#248f5e"/><circle cx="450.922" cy="630.204" r="2" fill="#0f3d28"/><circle cx="597.47" cy="653.664" r="3" fill="#196643"/><circle cx="397.683" cy="554.227" r="2" fill="#1c1c1c"/><circle cx="483.799" cy="495.588" r="4" fill="#05140d"/><circle cx="665.99" cy="325.764" r="5" fill="#47d193"/><circle cx="389.364" cy="469.237" r="1" fill="#1c1c1c"/><circle cx="718.109" cy="711.622" r="3" fill="#47d193"/><circle cx="376.27" cy="599.678" r="3" fill="#0f3d28"/><circle cx="499.704" cy="403.479" r="3" fill="#05140d"/><circle cx="379.622" cy="514.14" r="4" fill="#0f3d28"/><circle cx="280.513" cy="530.06" r="2" fill="#248f5e"/><circle cx="541.817" cy="408.269" r="5" fill="#1c1c1c"/><circle cx="186.494" cy="317.097" r="5" fill="#99e6c3"/><circle cx="744.196" cy="468.274" r="2" fill="#47d193"/><circle cx="727.03" cy="542.628" r="4" fill="#248f5e"/><circle cx="538.289" cy="440.016" r="1" fill="#1c1c1c"/><circle cx="345.316" cy="589.975" r="5" fill="#196643"/><circle cx="481.112" cy="643.51" r="2" fill="#0f3d28"/><circle cx="262.762" cy="330.885" r="2" fill="#47d193"/><circle cx="518.142" cy="540.745" r="4" fill="#1c1c1c"/><circle cx="237.064" cy="709.181" r="1" fill="#99e6c3"/><circle cx="255.906" cy="726.937" r="5" fill="#99e6c3"/><circle cx="549.131" cy="415.375" r="4" fill="#05140d"/><circle cx="467.021" cy="442.091" r="3" fill="#1c1c1c"/><circle cx="568.758" cy="255.628" r="2" fill="#47d193"/><circle cx="470.923" cy="659.858" r="5" fill="#196643"/><circle cx="473.42" cy="507.641" r="5" fill="#1c1c1c"/><circle cx="694.835" cy="614.228" r="4" fill="#2eb879"/><circle cx="459.035" cy="351.04" r="4" fill="#0f3d28"/><circle cx="640.537" cy="526.67" r="3" fill="#0f3d28"/><circle cx="403.23" cy="562.902" r="2" fill="#05140d"/><circle cx="519.968" cy="754.506" r="4" fill="#47d193"/><circle cx="376.327" cy="477.578" r="5" fill="#0f3d28"/><circle cx="576.569" cy="392.851" r="2" fill="#0f3d28"/><circle cx="596.71" cy="538.247" r="2" fill="#05140d"/><circle cx="690.393" cy="620.411" r="1" fill="#248f5e"/><circle cx="564.24" cy="267.564" r="5" fill="#47d193"/><circle cx="389.443" cy="414.765" r="5" fill="#0f3d28"/><circle cx="309.951" cy="345.469" r="2" fill="#47d193"/><circle cx="606.222" cy="581.049" r="3" fill="#05140d"/><circle cx="311.215" cy="607.5" r="4" fill="#196643"/><circle cx="578.585" cy="615.302" r="5" fill="#0f3d28"/><circle cx="461.692" cy="559.257" r="4" fill="#1c1c1c"/><circle cx="586.226" cy="501.87" r="1" fill="#05140d"/><circle cx="865.927" cy="738.284" r="5" fill="#99e6c3"/><circle cx="571.727" cy="419.885" r="4" fill="#05140d"/><circle cx="385.722" cy="285.265" r="2" fill="#47d193"/><circle cx="320.104" cy="532.571" r="5" fill="#196643"/><circle cx="588.072" cy="230.422" r="3" fill="#47d193"/><circle cx="532.052" cy="634.513" r="5" fill="#0f3d28"/><circle cx="671.352" cy="690.38" r="5" fill="#47d193"/><circle cx="659.451" cy="454.007" r="2" fill="#196643"/><circle cx="438.631" cy="325.845" r="4" fill="#196643"/><circle cx="640.439" cy="244.044" r="5" fill="#47d193"/><circle cx="448.202" cy="442.302" r="5" fill="#05140d"/><circle cx="612.726" cy="732.337" r="5" fill="#2eb879"/><circle cx="357.91" cy="485.244" r="2" fill="#0f3d28"/><circle cx="410.724" cy="478.546" r="3" fill="#1c1c1c"/><circle cx="514.372" cy="463.485" r="5" fill="#05140d"/><circle cx="796.181" cy="538.828" r="4" fill="#47d193"/><circle cx="479.156" cy="560.561" r="5" fill="#1c1c1c"/><circle cx="327.81" cy="654.698" r="5" fill="#196643"/><circle cx="652.381" cy="597.951" r="5" fill="#196643"/><circle cx="326.722" cy="777.427" r="4" fill="#99e6c3"/><circle cx="482.866" cy="294.324" r="2" fill="#248f5e"/><circle cx="538.394" cy="209.69" r="3" fill="#47d193"/><circle cx="540.425" cy="689.649" r="2" fill="#196643"/><circle cx="485.051" cy="407.368" r="1" fill="#05140d"/><circle cx="271.972" cy="399.309" r="2" fill="#2eb879"/><circle cx="501.965" cy="402.676" r="2" fill="#05140d"/><circle cx="502.284" cy="582.221" r="5" fill="#05140d"/><circle cx="283.708" cy="624.605" r="2" fill="#2eb879"/><circle cx="578.386" cy="460.073" r="1" fill="#0f3d28"/><circle cx="455.726" cy="341.63" r="3" fill="#196643"/><circle cx="593.373" cy="288.729" r="4" fill="#248f5e"/><circle cx="575.574" cy="634.248" r="5" fill="#0f3d28"/><circle cx="595.59" cy="574.817" r="5" fill="#0f3d28"/><circle cx="391.579" cy="442.09" r="4" fill="#196643"/><circle cx="562.38" cy="421.348" r="4" fill="#05140d"/><circle cx="525.976" cy="421.909" r="5" fill="#05140d"/><circle cx="558.388" cy="500.312" r="4" fill="#1c1c1c"/><circle cx="566.473" cy="566.964" r="4" fill="#1c1c1c"/><circle cx="619.059" cy="379.044" r="3" fill="#196643"/><circle cx="379.323" cy="447.178" r="2" fill="#05140d"/><circle cx="459.179" cy="396.746" r="1" fill="#05140d"/><circle cx="330.572" cy="472.105" r="3" fill="#196643"/><circle cx="377.508" cy="611.252" r="1" fill="#196643"/><circle cx="345.146" cy="485.087" r="5" fill="#196643"/><circle cx="647.23" cy="462.854" r="2" fill="#196643"/><circle cx="431.319" cy="171.14" r="4" fill="#99e6c3"/><circle cx="502.373" cy="396.134" r="1" fill="#05140d"/><circle cx="466.592" cy="396.329" r="5" fill="#05140d"/><circle cx="519.389" cy="616.379" r="4" fill="#05140d"/><circle cx="570.397" cy="320.53" r="5" fill="#196643"/><circle cx="477.755" cy="441.893" r="5" fill="#1c1c1c"/><circle cx="352.327" cy="208.677" r="1" fill="#47d193"/><circle cx="234.658" cy="534.304" r="2" fill="#47d193"/><circle cx="659.498" cy="433.213" r="2" fill="#196643"/><circle cx="584.518" cy="516.517" r="1" fill="#05140d"/><circle cx="349.547" cy="371.9" r="1" fill="#196643"/><circle cx="670.627" cy="439.07" r="1" fill="#196643"/><circle cx="706.493" cy="584.145" r="5" fill="#248f5e"/><circle cx="470.901" cy="508.435" r="1" fill="#05140d"/><circle cx="395.942" cy="623.241" r="1" fill="#0f3d28"/><circle cx="709.736" cy="715.179" r="1" fill="#47d193"/><circle cx="565.658" cy="520.648" r="5" fill="#05140d"/><circle cx="179.041" cy="183.813" r="2" fill="#99e6c3"/><circle cx="479.018" cy="677.189" r="3" fill="#0f3d28"/><circle cx="577.842" cy="410.207" r="1" fill="#05140d"/><circle cx="619.469" cy="424.146" r="2" fill="#196643"/><circle cx="629.893" cy="685.896" r="2" fill="#248f5e"/><circle cx="736.658" cy="484.515" r="1" fill="#248f5e"/><circle cx="467.322" cy="441.246" r="3" fill="#05140d"/><circle cx="494.399" cy="468.362" r="4" fill="#1c1c1c"/><circle cx="721.72" cy="525.937" r="5" fill="#248f5e"/><circle cx="493.695" cy="227.027" r="1" fill="#47d193"/><circle cx="474.959" cy="443.592" r="1" fill="#05140d"/><circle cx="523.939" cy="524.324" r="1" fill="#05140d"/><circle cx="557.534" cy="501.801" r="3" fill="#1c1c1c"/><circle cx="744.533" cy="535.495" r="3" fill="#47d193"/><circle cx="670.402" cy="225.351" r="2" fill="#99e6c3"/><circle cx="537.677" cy="708.003" r="2" fill="#248f5e"/><circle cx="212.694" cy="369.047" r="1" fill="#99e6c3"/><circle cx="404.242" cy="556.735" r="5" fill="#05140d"/><circle cx="463.054" cy="431.592" r="1" fill="#1c1c1c"/><circle cx="434.873" cy="538.26" r="4" fill="#1c1c1c"/><circle cx="513.444" cy="674.652" r="2" fill="#0f3d28"/><circle cx="449.563" cy="528.368" r="3" fill="#05140d"/><circle cx="585.586" cy="756.057" r="2" fill="#47d193"/><circle cx="528.726" cy="230.025" r="1" fill="#47d193"/><circle cx="573.577" cy="562.86" r="3" fill="#05140d"/><circle cx="219.886" cy="362.385" r="3" fill="#47d193"/><circle cx="497.581" cy="419.082" r="5" fill="#05140d"/><circle cx="188.758" cy="626.323" r="2" fill="#99e6c3"/><circle cx="491.449" cy="494.122" r="3" fill="#05140d"/><circle cx="312.647" cy="315.839" r="3" fill="#2eb879"/><circle cx="295.985" cy="338.897" r="3" fill="#47d193"/><circle cx="385.415" cy="632.238" r="3" fill="#196643"/><circle cx="605.589" cy="337.484" r="3" fill="#196643"/><circle cx="289.947" cy="644.883" r="1" fill="#47d193"/><circle cx="351.605" cy="631.851" r="3" fill="#0f3d28"/><circle cx="732.04" cy="396.23" r="2" fill="#47d193"/><circle cx="376.361" cy="566.384" r="4" fill="#0f3d28"/><circle cx="301.079" cy="483.481" r="2" fill="#0f3d28"/><circle cx="393.556" cy="473.741" r="2" fill="#05140d"/><circle cx="780.091" cy="560.109" r="3" fill="#47d193"/><circle cx="382.742" cy="512.38" r="2" fill="#05140d"/><circle cx="457.274" cy="527.57" r="4" fill="#1c1c1c"/><circle cx="413.041" cy="554.215" r="1" fill="#05140d"/><circle cx="501.191" cy="297.303" r="5" fill="#248f5e"/><circle cx="414.549" cy="478.396" r="5" fill="#05140d"/><circle cx="574.618" cy="465.499" r="5" fill="#1c1c1c"/><circle cx="441.925" cy="424.64" r="4" fill="#1c1c1c"/><circle cx="433.574" cy="637.502" r="1" fill="#0f3d28"/><circle cx="622.307" cy="643.723" r="5" fill="#196643"/><circle cx="309.625" cy="665.196" r="1" fill="#47d193"/><circle cx="619.286" cy="457.237" r="5" fill="#0f3d28"/><circle cx="461.643" cy="280.066" r="5" fill="#248f5e"/><circle cx="368.943" cy="647.851" r="2" fill="#196643"/><circle cx="624.325" cy="444.603" r="1" fill="#0f3d28"/><circle cx="521.306" cy="492.319" r="3" fill="#1c1c1c"/><circle cx="903.11" cy="766.833" r="2" fill="#99e6c3"/><circle cx="504.621" cy="617.672" r="2" fill="#05140d"/><circle cx="420.511" cy="420.979" r="4" fill="#05140d"/><circle cx="348.167" cy="506.091" r="2" fill="#0f3d28"/><circle cx="343.036" cy="665.952" r="2" fill="#248f5e"/><circle cx="502.919" cy="693.663" r="4" fill="#196643"/><circle cx="395.373" cy="667.525" r="4" fill="#196643"/><circle cx="470.342" cy="675.171" r="4" fill="#196643"/><circle cx="551.15" cy="477.73" r="3" fill="#1c1c1c"/><circle cx="373.091" cy="364.423" r="4" fill="#196643"/><circle cx="490.854" cy="475.777" r="2" fill="#1c1c1c"/><circle cx="533.287" cy="384.097" r="2" fill="#0f3d28"/><circle cx="359.386" cy="534.215" r="1" fill="#0f3d28"/><circle cx="591.639" cy="609.965" r="3" fill="#0f3d28"/><circle cx="359.713" cy="309.378" r="1" fill="#248f5e"/><circle cx="472.596" cy="476.803" r="4" fill="#05140d"/><circle cx="273.462" cy="276.538" r="5" fill="#47d193"/><circle cx="670.946" cy="490.095" r="5" fill="#196643"/><circle cx="529.618" cy="626.384" r="2" fill="#0f3d28"/><circle cx="551.905" cy="698.064" r="5" fill="#248f5e"/><circle cx="454.01" cy="713.141" r="2" fill="#248f5e"/><circle cx="603.765" cy="499.35" r="3" fill="#05140d"/><circle cx="409.472" cy="475.433" r="4" fill="#1c1c1c"/><circle cx="603.288" cy="711.146" r="1" fill="#248f5e"/><circle cx="548.733" cy="377.929" r="1" fill="#0f3d28"/><circle cx="408.023" cy="526.698" r="1" fill="#05140d"/><circle cx="537.111" cy="467.409" r="4" fill="#1c1c1c"/><circle cx="551.07" cy="452.857" r="4" fill="#1c1c1c"/><circle cx="534.172" cy="456.576" r="3" fill="#1c1c1c"/><circle cx="387.608" cy="619.2" r="5" fill="#0f3d28"/><circle cx="650.861" cy="606.375" r="5" fill="#196643"/><circle cx="498.639" cy="632.338" r="5" fill="#196643"/><circle cx="498.63" cy="675.894" r="4" fill="#0f3d28"/><circle cx="497.19" cy="557.224" r="4" fill="#05140d"/><circle cx="580.828" cy="663.554" r="3" fill="#248f5e"/><circle cx="660.393" cy="713.574" r="5" fill="#47d193"/><circle cx="687.685" cy="398.49" r="3" fill="#248f5e"/><circle cx="54.398" cy="127.821" r="1" fill="#99e6c3"/><circle cx="338.823" cy="174.127" r="1" fill="#99e6c3"/><circle cx="509.818" cy="533.66" r="1" fill="#1c1c1c"/><circle cx="506.056" cy="290.775" r="1" fill="#248f5e"/><circle cx="272.302" cy="712.187" r="2" fill="#47d193"/><circle cx="444.514" cy="437.318" r="4" fill="#05140d"/><circle cx="283.124" cy="550.071" r="2" fill="#248f5e"/><circle cx="271.184" cy="579.524" r="5" fill="#47d193"/><circle cx="356.977" cy="692.387" r="4" fill="#248f5e"/><circle cx="678.212" cy="306.044" r="5" fill="#47d193"/><circle cx="523.444" cy="419.146" r="4" fill="#05140d"/><circle cx="454.521" cy="332.517" r="5" fill="#196643"/><circle cx="529.656" cy="549.687" r="5" fill="#05140d"/><circle cx="353.88" cy="490.828" r="4" fill="#05140d"/><circle cx="545.154" cy="511.845" r="3" fill="#1c1c1c"/><circle cx="278.266" cy="330.354" r="3" fill="#47d193"/><circle cx="295.188" cy="498.921" r="2" fill="#248f5e"/><circle cx="437.94" cy="693.77" r="3" fill="#248f5e"/><circle cx="342.193" cy="651.477" r="3" fill="#248f5e"/><circle cx="215.898" cy="332.807" r="4" fill="#99e6c3"/><circle cx="644.018" cy="371.28" r="5" fill="#196643"/><circle cx="478.69" cy="642.361" r="5" fill="#0f3d28"/><circle cx="430.525" cy="418.548" r="1" fill="#05140d"/><circle cx="299.112" cy="213.142" r="3" fill="#99e6c3"/><circle cx="674.75" cy="574.703" r="4" fill="#0f3d28"/><circle cx="753.368" cy="628.669" r="2" fill="#47d193"/><circle cx="485.515" cy="368.858" r="3" fill="#0f3d28"/><circle cx="790.867" cy="167.121" r="4" fill="#99e6c3"/><circle cx="331.497" cy="734.549" r="3" fill="#99e6c3"/><circle cx="685.193" cy="512.919" r="2" fill="#248f5e"/><circle cx="383.057" cy="444.318" r="2" fill="#05140d"/><circle cx="499.164" cy="611.324" r="5" fill="#1c1c1c"/><circle cx="411.034" cy="333.508" r="1" fill="#196643"/><circle cx="453.987" cy="780.927" r="5" fill="#47d193"/><circle cx="347.583" cy="654.814" r="5" fill="#2eb879"/><circle cx="573.118" cy="318.819" r="5" fill="#196643"/><circle cx="607.38" cy="442.762" r="1" fill="#0f3d28"/><circle cx="376.96" cy="675.716" r="2" fill="#248f5e"/><circle cx="657.667" cy="464.042" r="2" fill="#248f5e"/><circle cx="500.523" cy="365.181" r="5" fill="#0f3d28"/><circle cx="663.027" cy="113.336" r="4" fill="#99e6c3"/><circle cx="539.172" cy="427.334" r="4" fill="#05140d"/><circle cx="377.283" cy="402.136" r="4" fill="#0f3d28"/><circle cx="614.437" cy="377.621" r="1" fill="#196643"/><circle cx="623.264" cy="537.625" r="1" fill="#0f3d28"/><circle cx="586.742" cy="328.252" r="1" fill="#196643"/><circle cx="551.133" cy="660.417" r="4" fill="#0f3d28"/><circle cx="415.921" cy="742.015" r="2" fill="#47d193"/><circle cx="527.353" cy="536.275" r="4" fill="#1c1c1c"/><circle cx="331.594" cy="604.337" r="4" fill="#196643"/><circle cx="823.796" cy="602.608" r="4" fill="#99e6c3"/><circle cx="465.736" cy="331.205" r="4" fill="#0f3d28"/><circle cx="492.787" cy="310.207" r="3" fill="#196643"/><circle cx="357.652" cy="747.421" r="4" fill="#47d193"/><circle cx="735.756" cy="524.642" r="4" fill="#248f5e"/><circle cx="472.25" cy="898.632" r="4" fill="#99e6c3"/><circle cx="532.637" cy="501.423" r="3" fill="#05140d"/><circle cx="577.787" cy="764.624" r="3" fill="#47d193"/><circle cx="432.82" cy="508.332" r="4" fill="#1c1c1c"/><circle cx="374.053" cy="734.245" r="2" fill="#47d193"/><circle cx="572.145" cy="456.32" r="5" fill="#05140d"/><circle cx="546.922" cy="540.184" r="5" fill="#05140d"/><circle cx="539.361" cy="574.069" r="5" fill="#05140d"/><circle cx="329.519" cy="731.135" r="1" fill="#47d193"/><circle cx="644.858" cy="561.976" r="1" fill="#05140d"/><circle cx="669.544" cy="609.87" r="2" fill="#248f5e"/><circle cx="844.138" cy="601.979" r="2" fill="#99e6c3"/><circle cx="654.975" cy="733.548" r="2" fill="#47d193"/><circle cx="428.405" cy="513.071" r="4" fill="#05140d"/><circle cx="305.907" cy="610.196" r="5" fill="#2eb879"/><circle cx="491.126" cy="446.565" r="4" fill="#1c1c1c"/><circle cx="532.425" cy="496.472" r="3" fill="#1c1c1c"/><circle cx="507.363" cy="665.863" r="3" fill="#196643"/><circle cx="411.16" cy="365.993" r="1" fill="#0f3d28"/><circle cx="344.086" cy="436.493" r="1" fill="#248f5e"/><circle cx="513.815" cy="361.919" r="3" fill="#0f3d28"/><circle cx="643.349" cy="811.423" r="4" fill="#99e6c3"/><circle cx="412.83" cy="633.19" r="5" fill="#05140d"/><circle cx="493.731" cy="352.706" r="3" fill="#0f3d28"/><circle cx="602.021" cy="497.178" r="1" fill="#0f3d28"/><circle cx="586.79" cy="302.232" r="2" fill="#248f5e"/><circle cx="250.709" cy="171.872" r="3" fill="#99e6c3"/><circle cx="348.243" cy="309.745" r="1" fill="#47d193"/><circle cx="472.594" cy="244.861" r="5" fill="#2eb879"/><circle cx="758.101" cy="499.82" r="3" fill="#47d193"/><circle cx="482.724" cy="269.562" r="5" fill="#248f5e"/><circle cx="547.477" cy="251.533" r="5" fill="#47d193"/><circle cx="482.211" cy="369.116" r="3" fill="#196643"/><circle cx="352.33" cy="485.627" r="5" fill="#0f3d28"/><circle cx="442.788" cy="499.601" r="5" fill="#1c1c1c"/><circle cx="529.051" cy="721.653" r="2" fill="#196643"/><circle cx="559.984" cy="566.588" r="2" fill="#1c1c1c"/><circle cx="476.651" cy="774.048" r="4" fill="#47d193"/><circle cx="261.898" cy="462.748" r="2" fill="#47d193"/><circle cx="452.12" cy="527.686" r="3" fill="#1c1c1c"/><circle cx="577.937" cy="664.274" r="5" fill="#0f3d28"/><circle cx="329.323" cy="548.327" r="3" fill="#196643"/><circle cx="507.602" cy="519.972" r="5" fill="#1c1c1c"/><circle cx="382.885" cy="495.923" r="4" fill="#0f3d28"/><circle cx="403.698" cy="528.754" r="5" fill="#05140d"/><circle cx="702.283" cy="385.367" r="4" fill="#248f5e"/><circle cx="490.602" cy="409.454" r="4" fill="#05140d"/><circle cx="408.356" cy="861.503" r="1" fill="#99e6c3"/><circle cx="363.999" cy="664.434" r="2" fill="#2eb879"/><circle cx="411.615" cy="370.603" r="4" fill="#05140d"/><circle cx="652.499" cy="590.818" r="5" fill="#196643"/><circle cx="439.675" cy="533.989" r="1" fill="#1c1c1c"/><circle cx="430.781" cy="612.545" r="1" fill="#0f3d28"/><circle cx="491.506" cy="537.736" r="4" fill="#05140d"/><circle cx="344.328" cy="613.685" r="1" fill="#0f3d28"/><circle cx="256.035" cy="828.051" r="4" fill="#99e6c3"/><circle cx="430.518" cy="566.061" r="5" fill="#1c1c1c"/><circle cx="761.714" cy="517.526" r="4" fill="#47d193"/><circle cx="648.728" cy="438.543" r="5" fill="#196643"/><circle cx="498.651" cy="631.986" r="3" fill="#05140d"/><circle cx="466.816" cy="572.641" r="1" fill="#1c1c1c"/><circle cx="351.156" cy="378.254" r="2" fill="#196643"/><circle cx="436.008" cy="331.635" r="5" fill="#196643"/><circle cx="516.104" cy="575.063" r="2" fill="#1c1c1c"/><circle cx="330.194" cy="363.03" r="3" fill="#248f5e"/><circle cx="433.264" cy="467.846" r="5" fill="#1c1c1c"/><circle cx="717.574" cy="407.029" r="5" fill="#248f5e"/><circle cx="451.475" cy="583.506" r="1" fill="#05140d"/><circle cx="468.502" cy="374.888" r="5" fill="#0f3d28"/><circle cx="614.88" cy="644.849" r="1" fill="#196643"/><circle cx="786.487" cy="542.065" r="3" fill="#47d193"/><circle cx="399.497" cy="275.798" r="1" fill="#47d193"/><circle cx="567.257" cy="409.131" r="3" fill="#05140d"/><circle cx="534.808" cy="757.189" r="2" fill="#47d193"/><circle cx="626.292" cy="483.238" r="5" fill="#0f3d28"/><circle cx="494.563" cy="674.838" r="2" fill="#196643"/><circle cx="688.614" cy="279.483" r="2" fill="#47d193"/><circle cx="588.915" cy="315.639" r="4" fill="#248f5e"/><circle cx="225.945" cy="550.492" r="2" fill="#47d193"/><circle cx="453.467" cy="233.77" r="3" fill="#47d193"/><circle cx="545.16" cy="430.771" r="3" fill="#05140d"/><circle cx="364.249" cy="536.965" r="3" fill="#0f3d28"/><circle cx="633.592" cy="614.062" r="1" fill="#196643"/><circle cx="563.1" cy="446.558" r="5" fill="#05140d"/><circle cx="340.88" cy="587.612" r="4" fill="#248f5e"/><circle cx="528.166" cy="387.886" r="2" fill="#05140d"/><circle cx="636.529" cy="488.289" r="5" fill="#0f3d28"/><circle cx="557.61" cy="540.164" r="2" fill="#1c1c1c"/><circle cx="614.502" cy="584.339" r="5" fill="#05140d"/><circle cx="660.249" cy="317.691" r="3" fill="#47d193"/><circle cx="635.699" cy="582.981" r="3" fill="#196643"/><circle cx="457.236" cy="393.613" r="4" fill="#05140d"/><circle cx="440.56" cy="434.68" r="2" fill="#05140d"/><circle cx="651.038" cy="641.609" r="2" fill="#2eb879"/><circle cx="563.447" cy="473.593" r="2" fill="#1c1c1c"/><circle cx="787.816" cy="801.316" r="2" fill="#99e6c3"/><circle cx="344.549" cy="659.472" r="4" fill="#248f5e"/><circle cx="567.818" cy="315.609" r="4" fill="#248f5e"/><circle cx="677.003" cy="583.976" r="3" fill="#196643"/><circle cx="355.829" cy="667.54" r="5" fill="#248f5e"/><circle cx="407.454" cy="410.179" r="3" fill="#0f3d28"/><circle cx="493.98" cy="465.471" r="3" fill="#1c1c1c"/><circle cx="549.709" cy="296.516" r="5" fill="#248f5e"/><circle cx="547.684" cy="601.396" r="2" fill="#0f3d28"/><circle cx="539.869" cy="401.453" r="3" fill="#05140d"/><circle cx="244.906" cy="490.236" r="5" fill="#2eb879"/><circle cx="332.819" cy="520.69" r="3" fill="#0f3d28"/><circle cx="511.904" cy="264.096" r="5" fill="#196643"/><circle cx="508.194" cy="426.686" r="3" fill="#1c1c1c"/><circle cx="679.165" cy="498.731" r="1" fill="#196643"/><circle cx="457.741" cy="568.539" r="2" fill="#05140d"/><circle cx="212.361" cy="695.269" r="5" fill="#99e6c3"/><circle cx="559.401" cy="714.979" r="5" fill="#248f5e"/><circle cx="686.713" cy="427.994" r="3" fill="#2eb879"/><circle cx="429.731" cy="682.031" r="5" fill="#196643"/><circle cx="464.237" cy="675.433" r="5" fill="#0f3d28"/><circle cx="368.919" cy="371.361" r="4" fill="#196643"/><circle cx="503.987" cy="516.016" r="1" fill="#1c1c1c"/><circle cx="167.685" cy="618.281" r="3" fill="#99e6c3"/><circle cx="560.676" cy="624.082" r="2" fill="#0f3d28"/><circle cx="356.231" cy="839.922" r="2" fill="#99e6c3"/><circle cx="306.861" cy="719.311" r="2" fill="#47d193"/><circle cx="477.57" cy="609.825" r="2" fill="#05140d"/><circle cx="403.55" cy="627.288" r="5" fill="#0f3d28"/><circle cx="574.041" cy="707.533" r="5" fill="#248f5e"/><circle cx="303.148" cy="294.761" r="1" fill="#47d193"/><circle cx="736.235" cy="500.767" r="4" fill="#2eb879"/><circle cx="607.6" cy="459.747" r="4" fill="#05140d"/><circle cx="476.131" cy="658.27" r="1" fill="#196643"/><circle cx="542.321" cy="329.529" r="4" fill="#196643"/><circle cx="521.851" cy="679.544" r="2" fill="#0f3d28"/><circle cx="376.494" cy="634.501" r="2" fill="#196643"/><circle cx="227.553" cy="317.553" r="5" fill="#99e6c3"/><circle cx="231.174" cy="776.682" r="3" fill="#99e6c3"/><circle cx="493.558" cy="608.417" r="2" fill="#05140d"/><circle cx="369.477" cy="622.701" r="4" fill="#196643"/><circle cx="451.361" cy="331.27" r="5" fill="#196643"/><circle cx="223.654" cy="522.354" r="2" fill="#47d193"/><circle cx="706.548" cy="635.514" r="3" fill="#47d193"/><circle cx="561.907" cy="408.869" r="5" fill="#1c1c1c"/><circle cx="471.754" cy="477.363" r="3" fill="#05140d"/><circle cx="307.523" cy="456.003" r="5" fill="#196643"/><circle cx="306.613" cy="332.282" r="4" fill="#47d193"/><circle cx="499.778" cy="281.207" r="1" fill="#248f5e"/><circle cx="565.034" cy="649.971" r="1" fill="#196643"/><circle cx="367.636" cy="577.952" r="4" fill="#196643"/><circle cx="444.981" cy="476.527" r="4" fill="#1c1c1c"/><circle cx="363.35" cy="590.846" r="2" fill="#196643"/><circle cx="532.608" cy="708.4" r="2" fill="#196643"/><circle cx="241.857" cy="229.96" r="1" fill="#99e6c3"/><circle cx="649.461" cy="326.432" r="3" fill="#2eb879"/><circle cx="782.817" cy="281.812" r="5" fill="#99e6c3"/><circle cx="442.941" cy="588.242" r="2" fill="#05140d"/><circle cx="601.276" cy="356.365" r="1" fill="#196643"/><circle cx="704.959" cy="287.899" r="2" fill="#47d193"/><circle cx="513.18" cy="811.569" r="3" fill="#47d193"/><circle cx="226.507" cy="403.871" r="3" fill="#47d193"/><circle cx="532.756" cy="132.395" r="5" fill="#99e6c3"/><circle cx="604.741" cy="616.213" r="4" fill="#0f3d28"/><circle cx="539.846" cy="509.476" r="2" fill="#1c1c1c"/><circle cx="318.436" cy="658.796" r="2" fill="#47d193"/><circle cx="574.137" cy="322.512" r="1" fill="#196643"/><circle cx="483.331" cy="346.669" r="2" fill="#0f3d28"/><circle cx="264.06" cy="557.093" r="2" fill="#47d193"/><circle cx="554.639" cy="470.197" r="3" fill="#1c1c1c"/><circle cx="336.833" cy="543.789" r="1" fill="#196643"/><circle cx="519.616" cy="500.284" r="5" fill="#05140d"/><circle cx="341.394" cy="269.333" r="3" fill="#47d193"/><circle cx="368.762" cy="360.05" r="1" fill="#0f3d28"/><circle cx="630.998" cy="519.209" r="2" fill="#0f3d28"/><circle cx="424.489" cy="412.128" r="1" fill="#05140d"/><circle cx="640.609" cy="677.465" r="4" fill="#248f5e"/><circle cx="332.624" cy="372.242" r="5" fill="#248f5e"/><circle cx="567.704" cy="348.589" r="2" fill="#196643"/><circle cx="514.635" cy="475.387" r="3" fill="#05140d"/><circle cx="535.745" cy="690.329" r="3" fill="#196643"/><circle cx="448.273" cy="316.546" r="3" fill="#196643"/><circle cx="811.14" cy="443.517" r="4" fill="#47d193"/><circle cx="695.842" cy="546.95" r="5" fill="#248f5e"/><circle cx="570.562" cy="644.203" r="1" fill="#196643"/><circle cx="686.603" cy="409.901" r="4" fill="#248f5e"/><circle cx="572.412" cy="475.167" r="1" fill="#1c1c1c"/><circle cx="688.089" cy="266.908" r="3" fill="#99e6c3"/><circle cx="305.786" cy="439.039" r="3" fill="#248f5e"/><circle cx="539.283" cy="444.636" r="2" fill="#1c1c1c"/><circle cx="628.665" cy="361.757" r="3" fill="#196643"/><circle cx="746.186" cy="412.71" r="2" fill="#47d193"/><circle cx="626.163" cy="717.213" r="3" fill="#47d193"/><circle cx="334.203" cy="559.558" r="3" fill="#196643"/><circle cx="485.634" cy="396.182" r="4" fill="#05140d"/><circle cx="552.288" cy="574.033" r="1" fill="#05140d"/><circle cx="521.811" cy="404.583" r="5" fill="#05140d"/><circle cx="261.211" cy="778.849" r="3" fill="#99e6c3"/><circle cx="565.203" cy="189.39" r="2" fill="#99e6c3"/><circle cx="691.929" cy="259.327" r="1" fill="#47d193"/><circle cx="269.864" cy="485.515" r="2" fill="#248f5e"/><circle cx="493.056" cy="362.822" r="4" fill="#0f3d28"/><circle cx="452.205" cy="367.07" r="4" fill="#0f3d28"/><circle cx="398.153" cy="601.863" r="1" fill="#05140d"/><circle cx="744.386" cy="429.328" r="5" fill="#47d193"/><circle cx="577.818" cy="307.759" r="5" fill="#248f5e"/><circle cx="332.64" cy="96.014" r="1" fill="#99e6c3"/><circle cx="564.776" cy="344.562" r="1" fill="#196643"/><circle cx="459.828" cy="621.672" r="2" fill="#0f3d28"/><circle cx="768.301" cy="452.434" r="5" fill="#47d193"/><circle cx="449.179" cy="621.288" r="1" fill="#0f3d28"/><circle cx="476.981" cy="393.648" r="2" fill="#05140d"/><circle cx="549.468" cy="576.926" r="4" fill="#05140d"/><circle cx="601.312" cy="556.581" r="1" fill="#05140d"/><circle cx="414.635" cy="659.32" r="3" fill="#196643"/><circle cx="422.53" cy="462.38" r="5" fill="#05140d"/><circle cx="660.498" cy="535.502" r="1" fill="#196643"/><circle cx="359.607" cy="686.283" r="5" fill="#2eb879"/><circle cx="421.336" cy="563.905" r="2" fill="#05140d"/><circle cx="544.523" cy="695.52" r="2" fill="#248f5e"/><circle cx="520.588" cy="702.211" r="4" fill="#248f5e"/><circle cx="648.291" cy="438.849" r="5" fill="#196643"/><circle cx="399.532" cy="679.949" r="4" fill="#248f5e"/><circle cx="552.82" cy="585.093" r="5" fill="#05140d"/><circle cx="424.66" cy="545.041" r="2" fill="#05140d"/><circle cx="536.16" cy="630.906" r="1" fill="#05140d"/><circle cx="460.51" cy="714.028" r="4" fill="#248f5e"/><circle cx="603.455" cy="479.313" r="4" fill="#0f3d28"/><circle cx="591.851" cy="398.219" r="3" fill="#05140d"/><circle cx="229.784" cy="222.029" r="3" fill="#99e6c3"/><circle cx="644.021" cy="522.889" r="2" fill="#0f3d28"/><circle cx="459.634" cy="341.898" r="4" fill="#196643"/><circle cx="487.683" cy="447.644" r="2" fill="#1c1c1c"/><circle cx="458.065" cy="715.6" r="5" fill="#196643"/><circle cx="510.802" cy="622.494" r="2" fill="#0f3d28"/><circle cx="410.273" cy="472.415" r="1" fill="#05140d"/><circle cx="718.814" cy="666.361" r="1" fill="#2eb879"/><circle cx="381.085" cy="234.951" r="4" fill="#47d193"/><circle cx="345.994" cy="626.861" r="1" fill="#196643"/><circle cx="551.294" cy="504.252" r="4" fill="#1c1c1c"/><circle cx="529.842" cy="222.557" r="4" fill="#47d193"/><circle cx="494.62" cy="668.23" r="5" fill="#196643"/><circle cx="545.393" cy="396.165" r="5" fill="#05140d"/><circle cx="543.302" cy="445.621" r="3" fill="#1c1c1c"/><circle cx="509.243" cy="472.614" r="4" fill="#1c1c1c"/><circle cx="321.581" cy="546.708" r="5" fill="#196643"/><circle cx="582.727" cy="844.567" r="1" fill="#99e6c3"/><circle cx="544.729" cy="364.242" r="2" fill="#0f3d28"/></svg>