<svg id="mySVG" width="1000" height="1000"><circle cx="586.301" cy="396.264" r="1" fill="#0f3d28"/><circle cx="504.253" cy="406.496" r="4" fill="#05140d"/><circle cx="881.243" cy="431.109" r="3" fill="#99e6c3"/><circle cx="443.453" cy="465.369" r="3" fill="#1c1c1c"/><circle cx="596.947" cy="608.924" r="5" fill="#0f3d28"/><circle cx="455.056" cy="484.257" r="3" fill="#05140d"/><circle cx="397.086" cy="448.302" r="3" fill="#05140d"/><circle cx="587.887" cy="493.167" r="3" fill="#05140d"/><circle cx="473.441" cy="390.105" r="3" fill="#05140d"/><circle cx="328.769" cy="606.88" r="1" fill="#248f5e"/><circle cx="416.167" cy="570.903" r="4" fill="#05140d"/><circle cx="662.906" cy="679.886" r="3" fill="#47d193"/><circle cx="401.48" cy="535.578" r="1" fill="#0f3d28"/><circle cx="306.214" cy="504.156" r="1" fill="#196643"/><circle cx="351.922" cy="420.772" r="3" fill="#196643"/><circle cx="443.845" cy="630.17" r="5" fill="#0f3d28"/><circle cx="584.435" cy="693.635" r="2" fill="#248f5e"/><circle cx="566.609" cy="718.164" r="3" fill="#248f5e"/><circle cx="579.029" cy="574.284" r="1" fill="#05140d"/><circle cx="331.167" cy="540.21" r="1" fill="#196643"/><circle cx="604.187" cy="342.679" r="1" fill="#196643"/><circle cx="697.87" cy="613.472" r="4" fill="#248f5e"/><circle cx="572.112" cy="695.441" r="1" fill="#248f5e"/><circle cx="266.999" cy="578.331" r="5" fill="#47d193"/><circle cx="499.35" cy="755.139" r="1" fill="#47d193"/><circle cx="400.29" cy="785.293" r="5" fill="#47d193"/><circle cx="481.815" cy="494.405" r="3" fill="#1c1c1c"/><circle cx="144.702" cy="633.803" r="2" fill="#99e6c3"/><circle cx="398.712" cy="643.375" r="5" fill="#196643"/><circle cx="281.437" cy="599.097" r="5" fill="#248f5e"/><circle cx="594.016" cy="609.998" r="3" fill="#0f3d28"/><circle cx="413.937" cy="523.969" r="2" fill="#05140d"/><circle cx="581.912" cy="433.37" r="5" fill="#05140d"/><circle cx="663.427" cy="464.228" r="1" fill="#196643"/><circle cx="496.022" cy="515.283" r="5" fill="#1c1c1c"/><circle cx="378.323" cy="411.461" r="5" fill="#0f3d28"/><circle cx="455.208" cy="361.641" r="2" fill="#0f3d28"/><circle cx="439.406" cy="400.26" r="4" fill="#05140d"/><circle cx="642.53" cy="785.453" r="5" fill="#47d193"/><circle cx="367.544" cy="478.427" r="3" fill="#196643"/><circle cx="722.948" cy="685.103" r="5" fill="#47d193"/><circle cx="407.62" cy="543.358" r="4" fill="#05140d"/><circle cx="667.526" cy="402.193" r="3" fill="#196643"/><circle cx="222.505" cy="304.781" r="1" fill="#47d193"/><circle cx="292.513" cy="751.92" r="5" fill="#99e6c3"/><circle cx="414.616" cy="532.275" r="3" fill="#05140d"/><circle cx="307.574" cy="463.031" r="5" fill="#0f3d28"/><circle cx="767.016" cy="661.461" r="5" fill="#47d193"/><circle cx="401.842" cy="288.719" r="4" fill="#248f5e"/><circle cx="344.527" cy="598.941" r="5" fill="#0f3d28"/><circle cx="671.443" cy="538.385" r="4" fill="#248f5e"/><circle cx="520.337" cy="526.906" r="3" fill="#1c1c1c"/><circle cx="276.258" cy="657.444" r="3" fill="#47d193"/><circle cx="248.426" cy="361.256" r="4" fill="#99e6c3"/><circle cx="419.375" cy="668.294" r="3" fill="#196643"/><circle cx="800.945" cy="707.652" r="5" fill="#99e6c3"/><circle cx="330.079" cy="499.053" r="3" fill="#196643"/><circle cx="317.022" cy="407.597" r="4" fill="#248f5e"/><circle cx="696.788" cy="559.827" r="4" fill="#248f5e"/><circle cx="472.06" cy="509.426" r="1" fill="#1c1c1c"/><circle cx="431.621" cy="416.841" r="3" fill="#05140d"/><circle cx="409.617" cy="584.289" r="5" fill="#0f3d28"/><circle cx="407.576" cy="549.563" r="4" fill="#05140d"/><circle cx="574.481" cy="219.268" r="4" fill="#47d193"/><circle cx="508.457" cy="665.092" r="5" fill="#196643"/><circle cx="445.643" cy="432.009" r="3" fill="#05140d"/><circle cx="513.898" cy="219.1" r="3" fill="#47d193"/><circle cx="433.406" cy="619.652" r="1" fill="#0f3d28"/><circle cx="389.421" cy="393.869" r="1" fill="#196643"/><circle cx="451.982" cy="454.438" r="4" fill="#1c1c1c"/><circle cx="439.199" cy="352.43" r="3" fill="#0f3d28"/><circle cx="494.274" cy="579.887" r="2" fill="#0f3d28"/><circle cx="298.005" cy="482.163" r="2" fill="#248f5e"/><circle cx="482.702" cy="445.927" r="2" fill="#1c1c1c"/><circle cx="547.249" cy="677.631" r="5" fill="#0f3d28"/><circle cx="473.029" cy="270.556" r="1" fill="#196643"/><circle cx="214.836" cy="465.887" r="1" fill="#47d193"/><circle cx="592.725" cy="227.684" r="2" fill="#47d193"/><circle cx="571.918" cy="569.256" r="5" fill="#05140d"/><circle cx="480.069" cy="524.696" r="1" fill="#1c1c1c"/><circle cx="704.415" cy="555.848" r="4" fill="#196643"/><circle cx="685.329" cy="616.042" r="2" fill="#248f5e"/><circle cx="711.511" cy="566.295" r="4" fill="#248f5e"/><circle cx="490.294" cy="451.111" r="2" fill="#1c1c1c"/><circle cx="268.04" cy="365.234" r="1" fill="#2eb879"/><circle cx="463.698" cy="621.855" r="5" fill="#0f3d28"/><circle cx="467.817" cy="512.894" r="2" fill="#05140d"/><circle cx="477.675" cy="438.068" r="4" fill="#05140d"/><circle cx="536.555" cy="395.393" r="3" fill="#1c1c1c"/><circle cx="390.633" cy="438.19" r="5" fill="#05140d"/><circle cx="561.651" cy="540.633" r="4" fill="#1c1c1c"/><circle cx="534.556" cy="605.356" r="5" fill="#1c1c1c"/><circle cx="657.475" cy="843.823" r="2" fill="#99e6c3"/><circle cx="330.486" cy="378.474" r="4" fill="#248f5e"/><circle cx="587.947" cy="659.749" r="2" fill="#196643"/><circle cx="442.756" cy="314.705" r="3" fill="#196643"/><circle cx="219.99" cy="360.527" r="3" fill="#47d193"/><circle cx="594.162" cy="768.772" r="1" fill="#47d193"/><circle cx="472.58" cy="277.68" r="4" fill="#248f5e"/><circle cx="426.177" cy="531.553" r="5" fill="#1c1c1c"/><circle cx="563.334" cy="373.963" r="4" fill="#196643"/><circle cx="279.874" cy="460.169" r="5" fill="#196643"/><circle cx="517.443" cy="447.96" r="5" fill="#1c1c1c"/><circle cx="322.75" cy="547.359" r="5" fill="#196643"/><circle cx="765.102" cy="294.528" r="2" fill="#99e6c3"/><circle cx="477.696" cy="404.327" r="1" fill="#05140d"/><circle cx="710.989" cy="562.201" r="5" fill="#248f5e"/><circle cx="654.901" cy="513.255" r="3" fill="#0f3d28"/><circle cx="380.898" cy="433.631" r="1" fill="#0f3d28"/><circle cx="513.767" cy="640.586" r="2" fill="#0f3d28"/><circle cx="601.422" cy="632.956" r="1" fill="#196643"/><circle cx="523.643" cy="570.349" r="3" fill="#1c1c1c"/><circle cx="567.27" cy="499.306" r="4" fill="#1c1c1c"/><circle cx="353.391" cy="422.669" r="5" fill="#196643"/><circle cx="504.757" cy="362.375" r="1" fill="#0f3d28"/><circle cx="591.343" cy="323.149" r="5" fill="#248f5e"/><circle cx="738.046" cy="391.146" r="4" fill="#2eb879"/><circle cx="386.879" cy="483.115" r="3" fill="#05140d"/><circle cx="424.423" cy="436.917" r="1" fill="#05140d"/><circle cx="476.658" cy="460.421" r="2" fill="#1c1c1c"/><circle cx="456.76" cy="394.182" r="5" fill="#0f3d28"/><circle cx="638.621" cy="173.758" r="4" fill="#99e6c3"/><circle cx="647.48" cy="452.355" r="2" fill="#0f3d28"/><circle cx="414.022" cy="345.022" r="3" fill="#196643"/><circle cx="616.269" cy="417.815" r="2" fill="#0f3d28"/><circle cx="398.83" cy="409.63" r="4" fill="#0f3d28"/><circle cx="501.521" cy="536.702" r="5" fill="#1c1c1c"/><circle cx="604.111" cy="767.886" r="4" fill="#47d193"/><circle cx="275.109" cy="471.545" r="2" fill="#248f5e"/><circle cx="586.134" cy="743.859" r="3" fill="#47d193"/><circle cx="616.689" cy="816.967" r="2" fill="#47d193"/><circle cx="509.325" cy="544.666" r="3" fill="#1c1c1c"/><circle cx="629.292" cy="474.191" r="2" fill="#196643"/><circle cx="218.996" cy="280.863" r="1" fill="#99e6c3"/><circle cx="822.559" cy="552.441" r="3" fill="#99e6c3"/><circle cx="778.04" cy="381.107" r="3" fill="#47d193"/><circle cx="361.523" cy="528.428" r="3" fill="#0f3d28"/><circle cx="585.954" cy="665.326" r="5" fill="#196643"/><circle cx="566.134" cy="538.824" r="4" fill="#05140d"/><circle cx="405.201" cy="604.202" r="3" fill="#05140d"/><circle cx="83.226" cy="346.744" r="2" fill="#99e6c3"/><circle cx="222.163" cy="634.601" r="2" fill="#47d193"/><circle cx="480.082" cy="363.896" r="3" fill="#0f3d28"/><circle cx="373.199" cy="571.883" r="5" fill="#196643"/><circle cx="380.709" cy="761.522" r="1" fill="#47d193"/><circle cx="532.639" cy="523.682" r="5" fill="#1c1c1c"/><circle cx="499.906" cy="723.533" r="5" fill="#196643"/><circle cx="458.137" cy="532.163" r="1" fill="#1c1c1c"/><circle cx="374.881" cy="432.051" r="2" fill="#05140d"/><circle cx="430.854" cy="671.956" r="3" fill="#196643"/><circle cx="341.789" cy="369.473" r="1" fill="#248f5e"/><circle cx="543.737" cy="687.91" r="4" fill="#0f3d28"/><circle cx="522.284" cy="334.415" r="3" fill="#196643"/><circle cx="417.68" cy="602.805" r="3" fill="#0f3d28"/><circle cx="482.914" cy="519.428" r="2" fill="#05140d"/><circle cx="132.32" cy="383.702" r="1" fill="#99e6c3"/><circle cx="420.376" cy="751.532" r="5" fill="#47d193"/><circle cx="686.519" cy="430.658" r="4" fill="#196643"/><circle cx="582.681" cy="523.995" r="4" fill="#05140d"/><circle cx="458.033" cy="298.683" r="1" fill="#248f5e"/><circle cx="452.949" cy="352.704" r="3" fill="#196643"/><circle cx="719.991" cy="785.734" r="5" fill="#99e6c3"/><circle cx="452.979" cy="576.559" r="2" fill="#05140d"/><circle cx="483.783" cy="536.303" r="5" fill="#1c1c1c"/><circle cx="430.685" cy="555.047" r="4" fill="#0f3d28"/><circle cx="568.923" cy="429.063" r="4" fill="#05140d"/><circle cx="510.713" cy="680.889" r="5" fill="#0f3d28"/><circle cx="929.018" cy="505.851" r="2" fill="#99e6c3"/><circle cx="100.848" cy="509.793" r="4" fill="#99e6c3"/><circle cx="616.278" cy="516.212" r="3" fill="#05140d"/><circle cx="580.079" cy="405.091" r="4" fill="#0f3d28"/><circle cx="203.026" cy="635.422" r="2" fill="#47d193"/><circle cx="431.223" cy="473.758" r="1" fill="#1c1c1c"/><circle cx="475.945" cy="297.642" r="2" fill="#2eb879"/><circle cx="205.563" cy="418.573" r="3" fill="#47d193"/><circle cx="620.432" cy="365.7" r="5" fill="#196643"/><circle cx="379.081" cy="559.066" r="4" fill="#0f3d28"/><circle cx="667.272" cy="681.58" r="3" fill="#2eb879"/><circle cx="351.871" cy="509.52" r="5" fill="#05140d"/><circle cx="595.153" cy="440.589" r="2" fill="#05140d"/><circle cx="475.475" cy="333.724" r="2" fill="#196643"/><circle cx="330.406" cy="341.573" r="5" fill="#248f5e"/><circle cx="466.846" cy="545.625" r="2" fill="#1c1c1c"/><circle cx="451.012" cy="341.136" r="5" fill="#196643"/><circle cx="383.93" cy="604.043" r="5" fill="#0f3d28"/><circle cx="627.894" cy="446.721" r="4" fill="#196643"/><circle cx="448.296" cy="435.455" r="5" fill="#0f3d28"/><circle cx="664.304" cy="450.215" r="4" fill="#196643"/><circle cx="293.848" cy="503.785" r="5" fill="#248f5e"/><circle cx="606.132" cy="649.041" r="4" fill="#196643"/><circle cx="591.105" cy="596.465" r="2" fill="#0f3d28"/><circle cx="573.766" cy="576.796" r="1" fill="#05140d"/><circle cx="647.642" cy="672.992" r="3" fill="#248f5e"/><circle cx="517.388" cy="483.936" r="4" fill="#05140d"/><circle cx="412.711" cy="329.366" r="2" fill="#196643"/><circle cx="396.666" cy="476.218" r="1" fill="#05140d"/><circle cx="544.53" cy="574.649" r="1" fill="#1c1c1c"/><circle cx="487.789" cy="395.047" r="1" fill="#05140d"/><circle cx="707.006" cy="547.006" r="5" fill="#248f5e"/><circle cx="491.461" cy="562.215" r="3" fill="#1c1c1c"/><circle cx="599.836" cy="665.822" r="4" fill="#196643"/><circle cx="632.626" cy="482.528" r="1" fill="#0f3d28"/><circle cx="418.409" cy="489.515" r="1" fill="#05140d"/><circle cx="532.248" cy="429.583" r="2" fill="#1c1c1c"/><circle cx="244.969" cy="552.714" r="1" fill="#47d193"/><circle cx="637.811" cy="363.719" r="4" fill="#196643"/><circle cx="610.264" cy="545.058" r="2" fill="#05140d"/><circle cx="276.505" cy="189.48" r="5" fill="#99e6c3"/><circle cx="412.936" cy="448.207" r="1" fill="#05140d"/><circle cx="526.856" cy="544.286" r="1" fill="#1c1c1c"/><circle cx="495.223" cy="907.965" r="4" fill="#99e6c3"/><circle cx="595.408" cy="540.768" r="2" fill="#05140d"/><circle cx="751.638" cy="629.307" r="3" fill="#47d193"/><circle cx="358.305" cy="437.217" r="5" fill="#0f3d28"/><circle cx="523.459" cy="589.432" r="5" fill="#05140d"/><circle cx="476.407" cy="466.407" r="2" fill="#1c1c1c"/><circle cx="641.246" cy="434.878" r="3" fill="#0f3d28"/><circle cx="756.333" cy="406.15" r="5" fill="#47d193"/><circle cx="444.653" cy="386.87" r="3" fill="#0f3d28"/><circle cx="313.592" cy="386.467" r="3" fill="#2eb879"/><circle cx="426.713" cy="549.476" r="5" fill="#05140d"/><circle cx="485.479" cy="661.11" r="2" fill="#196643"/><circle cx="348.591" cy="419.427" r="2" fill="#196643"/><circle cx="202.44" cy="600.327" r="3" fill="#47d193"/><circle cx="500.678" cy="568.07" r="2" fill="#1c1c1c"/><circle cx="646.725" cy="352.671" r="1" fill="#248f5e"/><circle cx="443.409" cy="544.475" r="4" fill="#1c1c1c"/><circle cx="387.656" cy="492.304" r="1" fill="#05140d"/><circle cx="494.108" cy="629.336" r="1" fill="#0f3d28"/><circle cx="515.963" cy="307.36" r="3" fill="#196643"/><circle cx="521.139" cy="650.51" r="4" fill="#0f3d28"/><circle cx="570.048" cy="618.841" r="5" fill="#196643"/><circle cx="190.635" cy="596.099" r="1" fill="#99e6c3"/><circle cx="370.572" cy="654.638" r="4" fill="#248f5e"/><circle cx="587.665" cy="667.759" r="1" fill="#196643"/><circle cx="425.456" cy="562.13" r="5" fill="#05140d"/><circle cx="672.936" cy="404.672" r="5" fill="#196643"/><circle cx="506.155" cy="558.366" r="1" fill="#1c1c1c"/><circle cx="824.101" cy="738.26" r="3" fill="#99e6c3"/><circle cx="303.845" cy="543.199" r="3" fill="#248f5e"/><circle cx="537.709" cy="429.548" r="2" fill="#05140d"/><circle cx="590.864" cy="737.753" r="5" fill="#2eb879"/><circle cx="520.519" cy="499.256" r="2" fill="#1c1c1c"/><circle cx="567.822" cy="587.188" r="2" fill="#05140d"/><circle cx="339.586" cy="590.102" r="1" fill="#196643"/><circle cx="310.652" cy="549.755" r="3" fill="#196643"/><circle cx="863.673" cy="563.739" r="4" fill="#99e6c3"/><circle cx="304.759" cy="430.647" r="4" fill="#196643"/><circle cx="423.708" cy="525.519" r="2" fill="#05140d"/><circle cx="426.805" cy="405.79" r="3" fill="#05140d"/><circle cx="535.842" cy="573.196" r="3" fill="#05140d"/><circle cx="461.673" cy="501.387" r="4" fill="#1c1c1c"/><circle cx="538.706" cy="419.818" r="5" fill="#05140d"/><circle cx="507.229" cy="437.356" r="1" fill="#1c1c1c"/><circle cx="414.216" cy="606.598" r="5" fill="#0f3d28"/><circle cx="290.947" cy="400.782" r="5" fill="#248f5e"/><circle cx="531.393" cy="230.544" r="2" fill="#2eb879"/><circle cx="572.804" cy="367.745" r="4" fill="#0f3d28"/><circle cx="452.689" cy="540.908" r="2" fill="#05140d"/><circle cx="567.84" cy="687.729" r="4" fill="#196643"/><circle cx="529.695" cy="508.183" r="4" fill="#05140d"/><circle cx="356.117" cy="684.046" r="1" fill="#248f5e"/><circle cx="408.684" cy="421.907" r="3" fill="#0f3d28"/><circle cx="310.824" cy="427.907" r="1" fill="#248f5e"/><circle cx="359.006" cy="623.901" r="2" fill="#196643"/><circle cx="391.798" cy="342.844" r="1" fill="#0f3d28"/><circle cx="371.802" cy="279.242" r="3" fill="#47d193"/><circle cx="413.935" cy="566.502" r="5" fill="#05140d"/><circle cx="445.721" cy="549.912" r="5" fill="#1c1c1c"/><circle cx="470.111" cy="376.033" r="1" fill="#0f3d28"/><circle cx="694.853" cy="506.642" r="1" fill="#196643"/><circle cx="399.028" cy="597.011" r="3" fill="#05140d"/><circle cx="225.067" cy="357.398" r="4" fill="#47d193"/><circle cx="565.8" cy="412.167" r="4" fill="#05140d"/><circle cx="794.676" cy="657.053" r="4" fill="#99e6c3"/><circle cx="660.956" cy="582.839" r="5" fill="#196643"/><circle cx="385.686" cy="561.627" r="5" fill="#05140d"/><circle cx="527.469" cy="585.709" r="2" fill="#0f3d28"/><circle cx="473.543" cy="634.01" r="5" fill="#0f3d28"/><circle cx="509.657" cy="407.127" r="3" fill="#05140d"/><circle cx="643.203" cy="330.924" r="1" fill="#248f5e"/><circle cx="349.108" cy="583.803" r="1" fill="#196643"/><circle cx="484.828" cy="552.193" r="1" fill="#1c1c1c"/><circle cx="562.502" cy="595.988" r="4" fill="#1c1c1c"/><circle cx="606.679" cy="635.382" r="2" fill="#196643"/><circle cx="559.937" cy="446.044" r="4" fill="#05140d"/><circle cx="446.058" cy="423.04" r="2" fill="#05140d"/><circle cx="266.58" cy="458.007" r="2" fill="#196643"/><circle cx="459.685" cy="344.914" r="3" fill="#196643"/><circle cx="191.275" cy="519.246" r="5" fill="#47d193"/><circle cx="518.527" cy="381.63" r="1" fill="#05140d"/><circle cx="400.996" cy="523.043" r="5" fill="#05140d"/><circle cx="601.99" cy="587.034" r="5" fill="#05140d"/><circle cx="542.015" cy="551.878" r="5" fill="#05140d"/><circle cx="569.973" cy="417.321" r="4" fill="#0f3d28"/><circle cx="536.754" cy="561.747" r="3" fill="#05140d"/><circle cx="512.202" cy="441.088" r="1" fill="#1c1c1c"/><circle cx="559.861" cy="406.374" r="4" fill="#05140d"/><circle cx="556.799" cy="307.765" r="5" fill="#248f5e"/><circle cx="273.359" cy="267.763" r="4" fill="#99e6c3"/><circle cx="571.912" cy="646.152" r="5" fill="#0f3d28"/><circle cx="611.117" cy="371.237" r="3" fill="#196643"/><circle cx="526.105" cy="282.777" r="3" fill="#2eb879"/><circle cx="643.463" cy="455.864" r="3" fill="#05140d"/><circle cx="622.055" cy="402.699" r="1" fill="#0f3d28"/><circle cx="530.658" cy="419.285" r="5" fill="#05140d"/><circle cx="651.122" cy="501.684" r="2" fill="#0f3d28"/><circle cx="419.305" cy="593.173" r="3" fill="#0f3d28"/><circle cx="526.706" cy="792.337" r="3" fill="#47d193"/><circle cx="477.325" cy="507.179" r="4" fill="#1c1c1c"/><circle cx="599.739" cy="278.774" r="2" fill="#2eb879"/><circle cx="404.473" cy="550.453" r="4" fill="#0f3d28"/><circle cx="448.985" cy="489.193" r="3" fill="#05140d"/><circle cx="514.327" cy="713.902" r="2" fill="#248f5e"/><circle cx="678.091" cy="705.921" r="4" fill="#47d193"/><circle cx="499.373" cy="316.117" r="1" fill="#0f3d28"/><circle cx="786.851" cy="661.512" r="3" fill="#99e6c3"/><circle cx="653.912" cy="493.305" r="2" fill="#0f3d28"/><circle cx="560.029" cy="512.28" r="4" fill="#1c1c1c"/><circle cx="420.036" cy="399.709" r="5" fill="#0f3d28"/><circle cx="323.234" cy="697.642" r="1" fill="#47d193"/><circle cx="609.571" cy="718.431" r="2" fill="#47d193"/><circle cx="687.113" cy="668.517" r="4" fill="#47d193"/><circle cx="647.161" cy="553.775" r="1" fill="#05140d"/><circle cx="448.7" cy="459.97" r="2" fill="#1c1c1c"/><circle cx="531.922" cy="623.596" r="5" fill="#0f3d28"/><circle cx="461.225" cy="316.178" r="1" fill="#196643"/><circle cx="463.321" cy="645.902" r="3" fill="#0f3d28"/><circle cx="426.306" cy="321.021" r="4" fill="#248f5e"/><circle cx="547.938" cy="477.359" r="1" fill="#05140d"/><circle cx="396.994" cy="627.367" r="3" fill="#196643"/><circle cx="556.673" cy="424.216" r="4" fill="#05140d"/><circle cx="508.944" cy="492.686" r="3" fill="#1c1c1c"/><circle cx="372.146" cy="203.31" r="4" fill="#99e6c3"/><circle cx="442.385" cy="483.765" r="1" fill="#1c1c1c"/><circle cx="381.37" cy="510.281" r="4" fill="#05140d"/><circle cx="421.386" cy="282.902" r="2" fill="#248f5e"/><circle cx="609.173" cy="612.974" r="1" fill="#0f3d28"/><circle cx="599.171" cy="407.596" r="2" fill="#0f3d28"/><circle cx="597.383" cy="465.986" r="1" fill="#05140d"/><circle cx="487.772" cy="731.938" r="4" fill="#2eb879"/><circle cx="301.608" cy="501.744" r="4" fill="#196643"/><circle cx="352.313" cy="516.892" r="1" fill="#196643"/><circle cx="445.742" cy="356.165" r="2" fill="#0f3d28"/><circle cx="566.652" cy="587.018" r="5" fill="#1c1c1c"/><circle cx="360.493" cy="506.743" r="2" fill="#0f3d28"/><circle cx="749.559" cy="571.282" r="5" fill="#47d193"/><circle cx="607.507" cy="724.799" r="3" fill="#2eb879"/><circle cx="394.487" cy="654.963" r="1" fill="#248f5e"/><circle cx="508.517" cy="409.76" r="1" fill="#05140d"/><circle cx="343.561" cy="478.001" r="2" fill="#0f3d28"/><circle cx="369.872" cy="604.464" r="3" fill="#196643"/><circle cx="524.353" cy="420.902" r="4" fill="#05140d"/><circle cx="418.509" cy="644.056" r="4" fill="#0f3d28"/><circle cx="705.908" cy="484.759" r="5" fill="#248f5e"/><circle cx="439.829" cy="963.247" r="4" fill="#99e6c3"/><circle cx="349.309" cy="540.852" r="3" fill="#0f3d28"/><circle cx="449.943" cy="496.368" r="1" fill="#1c1c1c"/><circle cx="470.608" cy="432.506" r="5" fill="#1c1c1c"/><circle cx="718.722" cy="382.756" r="4" fill="#47d193"/><circle cx="532.481" cy="658.444" r="3" fill="#196643"/><circle cx="470.032" cy="431.129" r="2" fill="#1c1c1c"/><circle cx="589.234" cy="348.845" r="3" fill="#196643"/><circle cx="839.646" cy="487.15" r="4" fill="#99e6c3"/><circle cx="385.869" cy="321.483" r="2" fill="#2eb879"/><circle cx="658.605" cy="541.333" r="5" fill="#196643"/><circle cx="533.778" cy="746.946" r="2" fill="#47d193"/><circle cx="555.007" cy="558.082" r="2" fill="#1c1c1c"/><circle cx="551.652" cy="501.883" r="4" fill="#1c1c1c"/><circle cx="491.338" cy="497.372" r="1" fill="#1c1c1c"/><circle cx="722.723" cy="361.099" r="1" fill="#47d193"/><circle cx="438.005" cy="436.709" r="2" fill="#05140d"/><circle cx="415.575" cy="455.838" r="5" fill="#05140d"/><circle cx="482.422" cy="316.157" r="3" fill="#196643"/><circle cx="625.402" cy="314.879" r="2" fill="#196643"/><circle cx="235.188" cy="601.77" r="1" fill="#47d193"/><circle cx="516.737" cy="347.195" r="1" fill="#0f3d28"/><circle cx="572.399" cy="500.466" r="3" fill="#05140d"/><circle cx="653.44" cy="438.683" r="1" fill="#196643"/><circle cx="232.641" cy="422.347" r="2" fill="#47d193"/><circle cx="388.07" cy="581.339" r="1" fill="#05140d"/><circle cx="481.041" cy="553.845" r="1" fill="#05140d"/><circle cx="356.124" cy="594.124" r="1" fill="#196643"/><circle cx="876.429" cy="445.116" r="4" fill="#99e6c3"/><circle cx="378.231" cy="436.081" r="2" fill="#0f3d28"/><circle cx="593.63" cy="497.255" r="1" fill="#05140d"/><circle cx="639.903" cy="426.576" r="5" fill="#05140d"/><circle cx="580.023" cy="603.341" r="4" fill="#0f3d28"/><circle cx="516.572" cy="390.66" r="3" fill="#0f3d28"/><circle cx="465.036" cy="614.628" r="2" fill="#05140d"/><circle cx="422.865" cy="819.97" r="4" fill="#99e6c3"/><circle cx="361.808" cy="554.669" r="1" fill="#0f3d28"/><circle cx="193.252" cy="209.537" r="2" fill="#99e6c3"/><circle cx="671.711" cy="308.089" r="2" fill="#47d193"/><circle cx="612.409" cy="406.15" r="4" fill="#0f3d28"/><circle cx="578.076" cy="394.316" r="3" fill="#0f3d28"/><circle cx="543.109" cy="696.892" r="1" fill="#248f5e"/><circle cx="592.649" cy="611.426" r="4" fill="#0f3d28"/><circle cx="687.512" cy="468.445" r="2" fill="#196643"/><circle cx="944.395" cy="412.126" r="5" fill="#99e6c3"/><circle cx="687.891" cy="396.79" r="2" fill="#2eb879"/><circle cx="561.684" cy="657.279" r="2" fill="#196643"/><circle cx="564.756" cy="147.28" r="5" fill="#99e6c3"/><circle cx="514.046" cy="345.386" r="4" fill="#0f3d28"/><circle cx="405.484" cy="858.788" r="5" fill="#99e6c3"/><circle cx="494.68" cy="661.924" r="5" fill="#196643"/><circle cx="435.575" cy="651.433" r="4" fill="#196643"/><circle cx="613.92" cy="455.765" r="4" fill="#05140d"/><circle cx="683.277" cy="310.028" r="1" fill="#47d193"/><circle cx="417.337" cy="376.999" r="2" fill="#0f3d28"/><circle cx="355.35" cy="496.31" r="1" fill="#0f3d28"/><circle cx="351.009" cy="351.168" r="5" fill="#248f5e"/><circle cx="400.788" cy="470.817" r="3" fill="#1c1c1c"/><circle cx="663.292" cy="473.184" r="1" fill="#248f5e"/><circle cx="490.686" cy="261.114" r="1" fill="#196643"/><circle cx="637.723" cy="226.227" r="3" fill="#47d193"/><circle cx="598.235" cy="465.688" r="3" fill="#05140d"/><circle cx="322.005" cy="210.911" r="1" fill="#99e6c3"/><circle cx="264.743" cy="542.118" r="5" fill="#2eb879"/><circle cx="355.417" cy="613.407" r="1" fill="#196643"/><circle cx="289.734" cy="590.018" r="4" fill="#248f5e"/><circle cx="532.138" cy="631.769" r="3" fill="#0f3d28"/><circle cx="617.911" cy="340.581" r="1" fill="#196643"/><circle cx="664.166" cy="455.805" r="4" fill="#196643"/><circle cx="484.07" cy="475.948" r="1" fill="#1c1c1c"/><circle cx="526.507" cy="632.501" r="3" fill="#0f3d28"/><circle cx="686.991" cy="539.526" r="3" fill="#196643"/><circle cx="540.816" cy="501.712" r="3" fill="#05140d"/><circle cx="398.302" cy="533.814" r="2" fill="#05140d"/><circle cx="566.485" cy="558.676" r="1" fill="#1c1c1c"/><circle cx="419.208" cy="501.415" r="4" fill="#05140d"/><circle cx="838.933" cy="491.806" r="1" fill="#99e6c3"/><circle cx="537.358" cy="362.717" r="3" fill="#05140d"/><circle cx="315.862" cy="705.648" r="5" fill="#47d193"/><circle cx="415.097" cy="695.263" r="5" fill="#248f5e"/><circle cx="573.029" cy="635.62" r="5" fill="#0f3d28"/><circle cx="377.622" cy="412.813" r="1" fill="#0f3d28"/><circle cx="453.646" cy="355.377" r="3" fill="#0f3d28"/><circle cx="627.781" cy="628.774" r="4" fill="#196643"/><circle cx="548.923" cy="532.007" r="1" fill="#1c1c1c"/><circle cx="426.535" cy="779.322" r="2" fill="#47d193"/><circle cx="348.058" cy="860.802" r="4" fill="#99e6c3"/><circle cx="424.219" cy="387.638" r="2" fill="#0f3d28"/><circle cx="679.626" cy="688.426" r="4" fill="#47d193"/><circle cx="536.535" cy="584.02" r="2" fill="#05140d"/><circle cx="551.064" cy="438.912" r="1" fill="#05140d"/><circle cx="636.63" cy="443.838" r="5" fill="#0f3d28"/><circle cx="581.028" cy="475.345" r="3" fill="#05140d"/><circle cx="540.865" cy="578.917" r="3" fill="#0f3d28"/><circle cx="492.236" cy="557.051" r="4" fill="#05140d"/><circle cx="479.319" cy="645.475" r="1" fill="#0f3d28"/><circle cx="568.489" cy="763.59" r="1" fill="#47d193"/><circle cx="641.105" cy="344.833" r="4" fill="#2eb879"/><circle cx="269.298" cy="467.323" r="5" fill="#248f5e"/><circle cx="631.125" cy="492.571" r="1" fill="#0f3d28"/><circle cx="628.97" cy="610.005" r="1" fill="#196643"/><circle cx="595.109" cy="533.472" r="3" fill="#0f3d28"/><circle cx="540.722" cy="499.777" r="5" fill="#1c1c1c"/><circle cx="467.914" cy="344.532" r="3" fill="#0f3d28"/><circle cx="532.997" cy="399.653" r="5" fill="#05140d"/><circle cx="522.745" cy="707.434" r="1" fill="#248f5e"/><circle cx="451.56" cy="647.229" r="1" fill="#0f3d28"/><circle cx="283.44" cy="571.137" r="1" fill="#248f5e"/><circle cx="438.958" cy="376.083" r="1" fill="#0f3d28"/><circle cx="439.875" cy="659.502" r="4" fill="#196643"/><circle cx="586.654" cy="285.233" r="5" fill="#248f5e"/><circle cx="199.58" cy="382.205" r="5" fill="#47d193"/><circle cx="510.198" cy="394.357" r="5" fill="#1c1c1c"/><circle cx="101.066" cy="432.705" r="3" fill="#99e6c3"/><circle cx="319.386" cy="336.678" r="4" fill="#47d193"/><circle cx="331.346" cy="756.708" r="1" fill="#47d193"/><circle cx="248.738" cy="620.111" r="4" fill="#47d193"/><circle cx="283.919" cy="420.183" r="2" fill="#248f5e"/><circle cx="481.559" cy="430.248" r="4" fill="#1c1c1c"/><circle cx="668.318" cy="542.515" r="4" fill="#196643"/><circle cx="279.998" cy="478.262" r="3" fill="#248f5e"/><circle cx="412.127" cy="354.867" r="3" fill="#196643"/><circle cx="414.111" cy="468.93" r="4" fill="#05140d"/><circle cx="548.997" cy="281.196" r="4" fill="#248f5e"/><circle cx="332.334" cy="379.231" r="5" fill="#2eb879"/><circle cx="359.545" cy="419.255" r="1" fill="#196643"/><circle cx="680.916" cy="722.225" r="5" fill="#47d193"/><circle cx="393.879" cy="307.351" r="4" fill="#2eb879"/><circle cx="258.08" cy="421.164" r="4" fill="#47d193"/><circle cx="588.143" cy="635.291" r="4" fill="#248f5e"/><circle cx="693.882" cy="594.74" r="2" fill="#248f5e"/><circle cx="669.914" cy="717.465" r="1" fill="#47d193"/><circle cx="661.682" cy="393.05" r="3" fill="#248f5e"/><circle cx="411.832" cy="76.203" r="4" fill="#99e6c3"/><circle cx="516.974" cy="502.583" r="3" fill="#1c1c1c"/><circle cx="693.895" cy="448.658" r="5" fill="#248f5e"/><circle cx="508.398" cy="568.864" r="5" fill="#1c1c1c"/><circle cx="444.602" cy="311.448" r="5" fill="#196643"/><circle cx="484.602" cy="462.537" r="4" fill="#1c1c1c"/><circle cx="365.559" cy="291.221" r="5" fill="#2eb879"/><circle cx="817.18" cy="629.086" r="4" fill="#99e6c3"/><circle cx="564.338" cy="376.335" r="1" fill="#0f3d28"/><circle cx="654.83" cy="452.55" r="3" fill="#196643"/><circle cx="644.365" cy="455.42" r="5" fill="#0f3d28"/><circle cx="500.374" cy="592.272" r="3" fill="#0f3d28"/><circle cx="721.338" cy="366.567" r="2" fill="#47d193"/><circle cx="431.308" cy="390.177" r="5" fill="#196643"/><circle cx="422.471" cy="459.129" r="3" fill="#05140d"/><circle cx="569.995" cy="550.657" r="2" fill="#05140d"/><circle cx="735.638" cy="395.458" r="5" fill="#47d193"/><circle cx="423.752" cy="311.381" r="4" fill="#2eb879"/><circle cx="452.285" cy="445.464" r="2" fill="#1c1c1c"/><circle cx="716.039" cy="423.832" r="1" fill="#196643"/><circle cx="526.507" cy="543.978" r="3" fill="#1c1c1c"/><circle cx="502.463" cy="429.363" r="1" fill="#1c1c1c"/><circle cx="570.693" cy="540.607" r="3" fill="#1c1c1c"/><circle cx="322.199" cy="387.898" r="4" fill="#248f5e"/><circle cx="453.015" cy="686.724" r="2" fill="#196643"/><circle cx="496.352" cy="515.614" r="3" fill="#1c1c1c"/><circle cx="218.751" cy="489.487" r="5" fill="#47d193"/><circle cx="739.402" cy="650.426" r="4" fill="#47d193"/><circle cx="450.42" cy="203.761" r="4" fill="#47d193"/><circle cx="572.624" cy="787.382" r="3" fill="#47d193"/><circle cx="469.242" cy="491.838" r="4" fill="#05140d"/><circle cx="77.352" cy="534.056" r="2" fill="#99e6c3"/><circle cx="616.86" cy="578.469" r="3" fill="#0f3d28"/><circle cx="526.098" cy="657.209" r="3" fill="#0f3d28"/><circle cx="725.319" cy="577.729" r="2" fill="#248f5e"/><circle cx="387.847" cy="457.808" r="3" fill="#05140d"/><circle cx="590.5" cy="630.793" r="1" fill="#196643"/><circle cx="611.632" cy="317.355" r="4" fill="#248f5e"/><circle cx="505.23" cy="471.187" r="1" fill="#1c1c1c"/><circle cx="595.844" cy="465.688" r="2" fill="#05140d"/><circle cx="334.618" cy="327.27" r="2" fill="#248f5e"/><circle cx="493.634" cy="496.05" r="1" fill="#1c1c1c"/><circle cx="417.62" cy="467.204" r="4" fill="#1c1c1c"/><circle cx="594.705" cy="368.432" r="1" fill="#196643"/><circle cx="577.7" cy="817.214" r="3" fill="#47d193"/><circle cx="675.437" cy="387.062" r="4" fill="#248f5e"/><circle cx="387.024" cy="345.343" r="5" fill="#248f5e"/><circle cx="723.93" cy="378.777" r="3" fill="#47d193"/><circle cx="541.614" cy="437.847" r="3" fill="#1c1c1c"/><circle cx="603.664" cy="596.371" r="1" fill="#0f3d28"/><circle cx="415.295" cy="523.297" r="3" fill="#05140d"/><circle cx="470.688" cy="393.305" r="3" fill="#1c1c1c"/><circle cx="413.26" cy="452.807" r="1" fill="#05140d"/><circle cx="483.419" cy="660.439" r="5" fill="#0f3d28"/><circle cx="294.426" cy="415.082" r="4" fill="#248f5e"/><circle cx="443.881" cy="427.102" r="4" fill="#0f3d28"/><circle cx="484.871" cy="284.042" r="5" fill="#248f5e"/><circle cx="744.834" cy="503.949" r="5" fill="#2eb879"/><circle cx="297.03" cy="419.523" r="4" fill="#248f5e"/><circle cx="676.497" cy="573.867" r="3" fill="#196643"/><circle cx="591.442" cy="349.746" r="4" fill="#0f3d28"/><circle cx="547.972" cy="506.69" r="5" fill="#05140d"/><circle cx="482.624" cy="486.2" r="3" fill="#1c1c1c"/><circle cx="410.851" cy="306.3" r="3" fill="#248f5e"/><circle cx="722.039" cy="522.745" r="3" fill="#248f5e"/><circle cx="184.26" cy="618.702" r="5" fill="#99e6c3"/><circle cx="430.955" cy="550.386" r="4" fill="#05140d"/><circle cx="351.133" cy="327.625" r="3" fill="#248f5e"/><circle cx="575.943" cy="240.47" r="1" fill="#2eb879"/><circle cx="540.474" cy="513.403" r="4" fill="#05140d"/><circle cx="315.524" cy="569.538" r="4" fill="#196643"/><circle cx="553.667" cy="537.379" r="2" fill="#1c1c1c"/><circle cx="657.105" cy="443.893" r="1" fill="#196643"/><circle cx="457.275" cy="553.431" r="5" fill="#1c1c1c"/><circle cx="518.266" cy="480.261" r="4" fill="#1c1c1c"/><circle cx="504.697" cy="759.594" r="5" fill="#47d193"/><circle cx="769.256" cy="670.325" r="3" fill="#47d193"/><circle cx="476.671" cy="554.127" r="4" fill="#05140d"/><circle cx="315.596" cy="778.693" r="3" fill="#99e6c3"/><circle cx="741.392" cy="746.86" r="2" fill="#99e6c3"/><circle cx="499.001" cy="387.196" r="4" fill="#05140d"/><circle cx="499.31" cy="197.261" r="3" fill="#47d193"/><circle cx="536.571" cy="557.402" r="1" fill="#1c1c1c"/><circle cx="147.262" cy="225.492" r="4" fill="#99e6c3"/><circle cx="561.644" cy="513.429" r="5" fill="#1c1c1c"/><circle cx="459.949" cy="547.437" r="4" fill="#1c1c1c"/><circle cx="303.983" cy="453.811" r="5" fill="#248f5e"/><circle cx="422.95" cy="630.53" r="1" fill="#0f3d28"/><circle cx="433.71" cy="485.795" r="5" fill="#1c1c1c"/><circle cx="514.747" cy="475.888" r="1" fill="#1c1c1c"/><circle cx="441.73" cy="335.018" r="2" fill="#196643"/><circle cx="286.462" cy="396.142" r="4" fill="#248f5e"/><circle cx="202.008" cy="473.77" r="3" fill="#47d193"/><circle cx="677.533" cy="381.303" r="4" fill="#2eb879"/><circle cx="646.008" cy="557.89" r="5" fill="#0f3d28"/><circle cx="522.802" cy="720.882" r="3" fill="#248f5e"/><circle cx="614.398" cy="689.037" r="4" fill="#196643"/><circle cx="552.596" cy="614.736" r="3" fill="#0f3d28"/><circle cx="391.571" cy="552.403" r="4" fill="#0f3d28"/><circle cx="508.389" cy="564.703" r="3" fill="#05140d"/><circle cx="335.526" cy="703.941" r="4" fill="#47d193"/><circle cx="425.445" cy="646.593" r="2" fill="#196643"/><circle cx="233.951" cy="380.312" r="1" fill="#47d193"/><circle cx="688.79" cy="711.794" r="2" fill="#47d193"/><circle cx="513.085" cy="776.902" r="3" fill="#47d193"/><circle cx="240.179" cy="566.318" r="4" fill="#47d193"/><circle cx="461.427" cy="478.813" r="1" fill="#05140d"/><circle cx="500.698" cy="593.397" r="3" fill="#05140d"/><circle cx="483.708" cy="466.695" r="5" fill="#05140d"/><circle cx="563.865" cy="518.626" r="4" fill="#05140d"/><circle cx="470.167" cy="754.326" r="3" fill="#47d193"/><circle cx="476.798" cy="544.142" r="1" fill="#05140d"/><circle cx="574.154" cy="616.83" r="3" fill="#05140d"/><circle cx="589.765" cy="543.467" r="3" fill="#05140d"/><circle cx="359.552" cy="723.018" r="4" fill="#47d193"/><circle cx="406.644" cy="471.074" r="4" fill="#05140d"/><circle cx="461.394" cy="693.234" r="5" fill="#196643"/><circle cx="567.651" cy="629.403" r="2" fill="#05140d"/><circle cx="494.04" cy="691.93" r="4" fill="#196643"/><circle cx="643.721" cy="328.781" r="1" fill="#248f5e"/><circle cx="646.65" cy="255.03" r="4" fill="#47d193"/><circle cx="630.139" cy="595.125" r="3" fill="#196643"/><circle cx="602.189" cy="564.187" r="5" fill="#0f3d28"/><circle cx="291.779" cy="525.443" r="1" fill="#248f5e"/><circle cx="593.369" cy="727.008" r="4" fill="#47d193"/><circle cx="380.74" cy="379.425" r="2" fill="#196643"/><circle cx="164.001" cy="744.747" r="5" fill="#99e6c3"/><circle cx="493.59" cy="312.437" r="1" fill="#248f5e"/><circle cx="528.959" cy="531.147" r="2" fill="#1c1c1c"/><circle cx="357.874" cy="596.601" r="2" fill="#196643"/><circle cx="631.372" cy="260.264" r="1" fill="#47d193"/><circle cx="444.099" cy="440.208" r="2" fill="#05140d"/><circle cx="562.584" cy="356.584" r="2" fill="#196643"/><circle cx="256.662" cy="381.81" r="4" fill="#47d193"/><circle cx="523.933" cy="580.918" r="1" fill="#05140d"/><circle cx="538.928" cy="250.855" r="5" fill="#47d193"/><circle cx="569.228" cy="387.837" r="3" fill="#0f3d28"/><circle cx="443.581" cy="675.313" r="2" fill="#196643"/><circle cx="532.601" cy="303.047" r="2" fill="#0f3d28"/><circle cx="214.651" cy="293.25" r="1" fill="#99e6c3"/><circle cx="608.587" cy="493.041" r="5" fill="#1c1c1c"/><circle cx="498.474" cy="668.947" r="3" fill="#196643"/><circle cx="222.016" cy="651.652" r="1" fill="#99e6c3"/><circle cx="497.321" cy="242.492" r="4" fill="#47d193"/><circle cx="362.586" cy="290.477" r="2" fill="#47d193"/><circle cx="469.957" cy="660.435" r="1" fill="#196643"/><circle cx="472.111" cy="712.231" r="3" fill="#196643"/><circle cx="424.957" cy="856.278" r="5" fill="#99e6c3"/><circle cx="622.33" cy="505.303" r="5" fill="#0f3d28"/><circle cx="506.965" cy="602.562" r="2" fill="#05140d"/><circle cx="451.57" cy="565.87" r="5" fill="#05140d"/><circle cx="510.762" cy="368.965" r="3" fill="#0f3d28"/><circle cx="216.425" cy="405.604" r="4" fill="#47d193"/><circle cx="467.464" cy="590.557" r="2" fill="#05140d"/><circle cx="781.438" cy="452.248" r="2" fill="#47d193"/><circle cx="644.161" cy="235.769" r="2" fill="#47d193"/><circle cx="366.104" cy="726.107" r="3" fill="#47d193"/><circle cx="515.997" cy="629.643" r="1" fill="#0f3d28"/><circle cx="539.186" cy="411.548" r="4" fill="#05140d"/><circle cx="601.81" cy="411.013" r="2" fill="#0f3d28"/><circle cx="429.168" cy="452.045" r="3" fill="#05140d"/><circle cx="392.791" cy="611.172" r="5" fill="#0f3d28"/><circle cx="587.54" cy="535.054" r="1" fill="#0f3d28"/><circle cx="371.827" cy="536.396" r="2" fill="#0f3d28"/><circle cx="560.001" cy="510.759" r="2" fill="#05140d"/><circle cx="514.873" cy="197.402" r="4" fill="#47d193"/><circle cx="550.543" cy="350.464" r="1" fill="#0f3d28"/><circle cx="524.116" cy="587.543" r="3" fill="#05140d"/><circle cx="256.15" cy="269.534" r="3" fill="#99e6c3"/><circle cx="528.887" cy="582.002" r="3" fill="#05140d"/><circle cx="622.256" cy="603.18" r="2" fill="#0f3d28"/><circle cx="675.788" cy="676.334" r="5" fill="#47d193"/><circle cx="687.28" cy="574.085" r="3" fill="#196643"/><circle cx="647.033" cy="396.698" r="3" fill="#196643"/><circle cx="179.151" cy="547.497" r="4" fill="#99e6c3"/><circle cx="512.673" cy="455.021" r="4" fill="#05140d"/><circle cx="551.068" cy="532.732" r="4" fill="#1c1c1c"/><circle cx="330.045" cy="464.953" r="5" fill="#196643"/><circle cx="506.839" cy="473.667" r="2" fill="#1c1c1c"/><circle cx="581.491" cy="438.18" r="2" fill="#05140d"/><circle cx="532.948" cy="571.726" r="3" fill="#1c1c1c"/><circle cx="411.923" cy="362.07" r="3" fill="#196643"/><circle cx="222.028" cy="755.549" r="4" fill="#99e6c3"/><circle cx="507.766" cy="449.978" r="1" fill="#1c1c1c"/><circle cx="456.975" cy="545.433" r="2" fill="#1c1c1c"/><circle cx="792.057" cy="446.059" r="5" fill="#47d193"/><circle cx="608.557" cy="264.487" r="3" fill="#47d193"/><circle cx="728.9" cy="402.448" r="3" fill="#47d193"/><circle cx="268.71" cy="729.338" r="5" fill="#47d193"/><circle cx="744.834" cy="558.08" r="3" fill="#47d193"/><circle cx="418.758" cy="285.421" r="1" fill="#196643"/><circle cx="516.922" cy="681.505" r="1" fill="#196643"/><circle cx="607.09" cy="381.911" r="1" fill="#0f3d28"/><circle cx="520.657" cy="307.367" r="1" fill="#196643"/><circle cx="496.103" cy="429.364" r="5" fill="#1c1c1c"/><circle cx="473.18" cy="557.302" r="4" fill="#1c1c1c"/><circle cx="431.827" cy="558.716" r="1" fill="#0f3d28"/><circle cx="592.631" cy="395.309" r="4" fill="#0f3d28"/><circle cx="341.047" cy="418.545" r="2" fill="#196643"/><circle cx="683.728" cy="577.451" r="3" fill="#0f3d28"/><circle cx="619.186" cy="515.111" r="4" fill="#0f3d28"/><circle cx="348.195" cy="643.003" r="2" fill="#248f5e"/><circle cx="439.414" cy="606.005" r="4" fill="#196643"/><circle cx="778.683" cy="687.88" r="3" fill="#99e6c3"/><circle cx="621.584" cy="377.755" r="4" fill="#196643"/><circle cx="502.991" cy="294.099" r="1" fill="#248f5e"/><circle cx="534.967" cy="488.464" r="4" fill="#1c1c1c"/><circle cx="605.181" cy="510.769" r="4" fill="#05140d"/><circle cx="57.267" cy="596.499" r="2" fill="#99e6c3"/><circle cx="557.82" cy="614.721" r="1" fill="#196643"/><circle cx="505.897" cy="549.867" r="1" fill="#1c1c1c"/><circle cx="719.122" cy="447.822" r="2" fill="#248f5e"/></svg>