<svg id="mySVG" width="1000" height="1000"><circle cx="671.764" cy="475.609" r="5" fill="#196643"/><circle cx="518.676" cy="435.241" r="3" fill="#1c1c1c"/><circle cx="602.574" cy="456.183" r="5" fill="#05140d"/><circle cx="633.005" cy="547.678" r="3" fill="#0f3d28"/><circle cx="412.309" cy="422.505" r="4" fill="#0f3d28"/><circle cx="435.849" cy="404.873" r="4" fill="#05140d"/><circle cx="473.324" cy="307.406" r="2" fill="#196643"/><circle cx="461.375" cy="299.592" r="3" fill="#248f5e"/><circle cx="610.331" cy="440.406" r="3" fill="#05140d"/><circle cx="609.194" cy="461.063" r="3" fill="#05140d"/><circle cx="453.837" cy="576.323" r="4" fill="#05140d"/><circle cx="594.777" cy="624.478" r="5" fill="#0f3d28"/><circle cx="636.36" cy="488.968" r="3" fill="#0f3d28"/><circle cx="525.042" cy="442.228" r="5" fill="#1c1c1c"/><circle cx="484.93" cy="561.763" r="5" fill="#05140d"/><circle cx="484.58" cy="646.821" r="1" fill="#0f3d28"/><circle cx="536.886" cy="371.058" r="1" fill="#0f3d28"/><circle cx="590.212" cy="426.231" r="2" fill="#05140d"/><circle cx="694.362" cy="410.884" r="1" fill="#248f5e"/><circle cx="382.109" cy="497.77" r="2" fill="#05140d"/><circle cx="478.186" cy="610.371" r="4" fill="#05140d"/><circle cx="470.358" cy="583.987" r="3" fill="#1c1c1c"/><circle cx="707.951" cy="573.258" r="5" fill="#248f5e"/><circle cx="367.959" cy="414.409" r="2" fill="#0f3d28"/><circle cx="633.943" cy="396.045" r="5" fill="#196643"/><circle cx="490.506" cy="418.411" r="5" fill="#05140d"/><circle cx="495.528" cy="493.85" r="5" fill="#05140d"/><circle cx="513.106" cy="368.582" r="1" fill="#05140d"/><circle cx="487.617" cy="412.514" r="3" fill="#1c1c1c"/><circle cx="535.747" cy="716.224" r="1" fill="#248f5e"/><circle cx="351.043" cy="503.143" r="4" fill="#196643"/><circle cx="434.273" cy="356.876" r="3" fill="#196643"/><circle cx="482.754" cy="617.227" r="1" fill="#05140d"/><circle cx="315.166" cy="555.058" r="4" fill="#196643"/><circle cx="552.55" cy="439.471" r="5" fill="#05140d"/><circle cx="452.935" cy="386.826" r="1" fill="#196643"/><circle cx="529.28" cy="458.724" r="2" fill="#1c1c1c"/><circle cx="419.051" cy="526.608" r="3" fill="#0f3d28"/><circle cx="476.725" cy="575" r="1" fill="#05140d"/><circle cx="315.75" cy="540.177" r="5" fill="#196643"/><circle cx="420.421" cy="338.776" r="4" fill="#196643"/><circle cx="499.831" cy="477.557" r="3" fill="#1c1c1c"/><circle cx="558" cy="365.324" r="5" fill="#0f3d28"/><circle cx="507.401" cy="658.372" r="4" fill="#0f3d28"/><circle cx="276.427" cy="582.714" r="1" fill="#248f5e"/><circle cx="590.764" cy="486.617" r="4" fill="#05140d"/><circle cx="531.437" cy="707.037" r="1" fill="#2eb879"/><circle cx="407.225" cy="362.231" r="3" fill="#0f3d28"/><circle cx="454.845" cy="554.023" r="4" fill="#1c1c1c"/><circle cx="715.648" cy="496.071" r="2" fill="#196643"/><circle cx="308.125" cy="382.575" r="5" fill="#248f5e"/><circle cx="609.693" cy="398.504" r="2" fill="#0f3d28"/><circle cx="556.45" cy="516.348" r="5" fill="#05140d"/><circle cx="411.07" cy="357.834" r="3" fill="#196643"/><circle cx="473.519" cy="517.735" r="5" fill="#05140d"/><circle cx="495.022" cy="530.21" r="2" fill="#1c1c1c"/><circle cx="406.632" cy="410.707" r="2" fill="#0f3d28"/><circle cx="552.768" cy="357.343" r="1" fill="#0f3d28"/><circle cx="509.383" cy="751.82" r="1" fill="#47d193"/><circle cx="476.693" cy="298.788" r="5" fill="#248f5e"/><circle cx="308.709" cy="539.729" r="5" fill="#196643"/><circle cx="417.371" cy="495.577" r="1" fill="#1c1c1c"/><circle cx="545.138" cy="560.025" r="1" fill="#1c1c1c"/><circle cx="650.191" cy="550.321" r="2" fill="#05140d"/><circle cx="506.372" cy="470.134" r="4" fill="#05140d"/><circle cx="371.471" cy="569.881" r="2" fill="#0f3d28"/><circle cx="457.61" cy="651.458" r="3" fill="#0f3d28"/><circle cx="545.582" cy="555.386" r="4" fill="#1c1c1c"/><circle cx="476.894" cy="566.54" r="2" fill="#1c1c1c"/><circle cx="327.37" cy="747.753" r="1" fill="#99e6c3"/><circle cx="526.774" cy="545.66" r="5" fill="#05140d"/><circle cx="377.217" cy="421.028" r="4" fill="#0f3d28"/><circle cx="526.326" cy="651.748" r="5" fill="#0f3d28"/><circle cx="395.081" cy="474.814" r="1" fill="#1c1c1c"/><circle cx="480.198" cy="341.138" r="2" fill="#0f3d28"/><circle cx="557.069" cy="557.972" r="2" fill="#05140d"/><circle cx="512.923" cy="521.682" r="4" fill="#1c1c1c"/><circle cx="625.427" cy="434.062" r="5" fill="#0f3d28"/><circle cx="489.961" cy="478.659" r="2" fill="#1c1c1c"/><circle cx="319.434" cy="761.201" r="5" fill="#47d193"/><circle cx="376.708" cy="328.187" r="5" fill="#248f5e"/><circle cx="553.061" cy="599.617" r="1" fill="#05140d"/><circle cx="632.239" cy="622.751" r="1" fill="#196643"/><circle cx="578.139" cy="468.651" r="4" fill="#05140d"/><circle cx="390.932" cy="488.841" r="2" fill="#05140d"/><circle cx="603.349" cy="496.285" r="3" fill="#05140d"/><circle cx="517.405" cy="579.431" r="3" fill="#05140d"/><circle cx="360.455" cy="636.802" r="1" fill="#196643"/><circle cx="430.759" cy="568.548" r="5" fill="#1c1c1c"/><circle cx="416.544" cy="379.362" r="5" fill="#0f3d28"/><circle cx="575.936" cy="696.487" r="4" fill="#248f5e"/><circle cx="380.819" cy="504.689" r="1" fill="#05140d"/><circle cx="434.116" cy="237.155" r="4" fill="#47d193"/><circle cx="483.341" cy="498.907" r="3" fill="#1c1c1c"/><circle cx="494.067" cy="638.875" r="4" fill="#05140d"/><circle cx="523.838" cy="466.702" r="2" fill="#1c1c1c"/><circle cx="687.929" cy="515.47" r="4" fill="#0f3d28"/><circle cx="461.01" cy="600.956" r="5" fill="#05140d"/><circle cx="411.236" cy="466.994" r="1" fill="#05140d"/><circle cx="486.092" cy="478.561" r="2" fill="#1c1c1c"/><circle cx="543.161" cy="608.866" r="2" fill="#05140d"/><circle cx="345.443" cy="569.405" r="2" fill="#196643"/><circle cx="590.892" cy="593.112" r="4" fill="#0f3d28"/><circle cx="601.639" cy="394.387" r="1" fill="#0f3d28"/><circle cx="444.738" cy="655.503" r="1" fill="#196643"/><circle cx="800.366" cy="578.962" r="3" fill="#47d193"/><circle cx="489.552" cy="374.545" r="1" fill="#0f3d28"/><circle cx="502.089" cy="459.775" r="3" fill="#1c1c1c"/><circle cx="204.586" cy="429.751" r="4" fill="#47d193"/><circle cx="370.21" cy="493.463" r="3" fill="#0f3d28"/><circle cx="402.523" cy="606.694" r="5" fill="#0f3d28"/><circle cx="767.637" cy="407.924" r="2" fill="#47d193"/><circle cx="647.3" cy="630.817" r="5" fill="#196643"/><circle cx="280.953" cy="368.231" r="5" fill="#47d193"/><circle cx="516.174" cy="608.398" r="4" fill="#05140d"/><circle cx="615.793" cy="726.167" r="5" fill="#47d193"/><circle cx="414.089" cy="508.59" r="1" fill="#05140d"/><circle cx="500.139" cy="571.339" r="4" fill="#05140d"/><circle cx="404.775" cy="414.502" r="5" fill="#196643"/><circle cx="370.896" cy="529.118" r="1" fill="#0f3d28"/><circle cx="327.85" cy="511.924" r="4" fill="#196643"/><circle cx="425.493" cy="455.648" r="1" fill="#05140d"/><circle cx="452.068" cy="400.072" r="4" fill="#05140d"/><circle cx="504.2" cy="532.584" r="4" fill="#1c1c1c"/><circle cx="573.171" cy="444.455" r="3" fill="#05140d"/><circle cx="376.911" cy="467.481" r="2" fill="#05140d"/><circle cx="590.408" cy="533.256" r="2" fill="#05140d"/><circle cx="554.44" cy="293.521" r="2" fill="#2eb879"/><circle cx="463.696" cy="627.985" r="4" fill="#0f3d28"/><circle cx="493.067" cy="402.419" r="1" fill="#05140d"/><circle cx="571.425" cy="691.781" r="1" fill="#248f5e"/><circle cx="491.052" cy="415.796" r="3" fill="#1c1c1c"/><circle cx="590.963" cy="426.977" r="3" fill="#05140d"/><circle cx="574.006" cy="566.519" r="3" fill="#05140d"/><circle cx="472.492" cy="678.696" r="4" fill="#196643"/><circle cx="605.749" cy="457.961" r="5" fill="#05140d"/><circle cx="491.79" cy="727.839" r="2" fill="#2eb879"/><circle cx="525.458" cy="472.726" r="5" fill="#1c1c1c"/><circle cx="576.383" cy="418.645" r="2" fill="#05140d"/><circle cx="356.435" cy="398.537" r="2" fill="#0f3d28"/><circle cx="491.994" cy="521.233" r="4" fill="#1c1c1c"/><circle cx="527.791" cy="492.742" r="5" fill="#1c1c1c"/><circle cx="558.793" cy="575.843" r="4" fill="#0f3d28"/><circle cx="484.151" cy="445.516" r="3" fill="#1c1c1c"/><circle cx="545.891" cy="383.473" r="4" fill="#05140d"/><circle cx="378.696" cy="423.567" r="3" fill="#0f3d28"/><circle cx="688.644" cy="337.399" r="3" fill="#47d193"/><circle cx="449.069" cy="488.733" r="3" fill="#1c1c1c"/><circle cx="550.431" cy="566.052" r="3" fill="#0f3d28"/><circle cx="567.319" cy="634.627" r="4" fill="#0f3d28"/><circle cx="532.649" cy="600.292" r="2" fill="#05140d"/><circle cx="495.763" cy="437.091" r="4" fill="#1c1c1c"/><circle cx="543.239" cy="416.158" r="3" fill="#05140d"/><circle cx="601.511" cy="505.059" r="1" fill="#05140d"/><circle cx="450.609" cy="468.261" r="3" fill="#1c1c1c"/><circle cx="433.891" cy="416.492" r="5" fill="#05140d"/><circle cx="621.889" cy="693.44" r="5" fill="#248f5e"/><circle cx="526.003" cy="511.572" r="4" fill="#1c1c1c"/><circle cx="607.789" cy="657.359" r="2" fill="#248f5e"/><circle cx="630.224" cy="381.822" r="2" fill="#0f3d28"/><circle cx="383.808" cy="524.218" r="3" fill="#05140d"/><circle cx="598.26" cy="618.721" r="4" fill="#0f3d28"/><circle cx="494.086" cy="210.891" r="1" fill="#47d193"/><circle cx="533.471" cy="482.978" r="4" fill="#1c1c1c"/><circle cx="602.033" cy="555.594" r="5" fill="#05140d"/><circle cx="637.122" cy="269.012" r="2" fill="#47d193"/><circle cx="535.016" cy="476.024" r="4" fill="#1c1c1c"/><circle cx="559.133" cy="529.458" r="5" fill="#1c1c1c"/><circle cx="503.157" cy="467.66" r="1" fill="#1c1c1c"/><circle cx="664.643" cy="441.751" r="5" fill="#196643"/><circle cx="519.307" cy="459.148" r="1" fill="#05140d"/><circle cx="349.943" cy="329.69" r="4" fill="#248f5e"/><circle cx="416.108" cy="587.354" r="1" fill="#05140d"/><circle cx="354.666" cy="546.109" r="2" fill="#0f3d28"/><circle cx="410.43" cy="509.98" r="3" fill="#0f3d28"/><circle cx="556.864" cy="600.743" r="1" fill="#05140d"/><circle cx="430.395" cy="340.668" r="4" fill="#0f3d28"/><circle cx="640.034" cy="491.752" r="2" fill="#0f3d28"/><circle cx="327.597" cy="297.15" r="5" fill="#47d193"/><circle cx="641.893" cy="692.088" r="2" fill="#248f5e"/><circle cx="250.32" cy="599.083" r="2" fill="#2eb879"/><circle cx="519.687" cy="516.454" r="1" fill="#1c1c1c"/><circle cx="423.974" cy="456.093" r="1" fill="#05140d"/><circle cx="516.828" cy="403.876" r="5" fill="#05140d"/><circle cx="683.522" cy="477.936" r="5" fill="#0f3d28"/><circle cx="414.999" cy="423.137" r="1" fill="#05140d"/><circle cx="495.675" cy="489.67" r="2" fill="#1c1c1c"/><circle cx="442.884" cy="305.591" r="3" fill="#248f5e"/><circle cx="458.181" cy="539.214" r="2" fill="#05140d"/><circle cx="513.984" cy="657.869" r="1" fill="#196643"/><circle cx="798.428" cy="390.406" r="1" fill="#47d193"/><circle cx="480.619" cy="537.801" r="2" fill="#05140d"/><circle cx="368.647" cy="518.372" r="5" fill="#0f3d28"/><circle cx="486.222" cy="667.226" r="2" fill="#196643"/><circle cx="549.286" cy="452.031" r="1" fill="#05140d"/><circle cx="432.764" cy="439.022" r="3" fill="#05140d"/><circle cx="395.398" cy="442.281" r="5" fill="#05140d"/><circle cx="506.118" cy="558.806" r="5" fill="#1c1c1c"/><circle cx="707.09" cy="504.07" r="4" fill="#248f5e"/><circle cx="449.08" cy="401.918" r="3" fill="#05140d"/><circle cx="521.089" cy="601.645" r="3" fill="#05140d"/><circle cx="619.8" cy="344.38" r="5" fill="#196643"/><circle cx="356.44" cy="555.617" r="5" fill="#0f3d28"/><circle cx="327.307" cy="421.616" r="5" fill="#0f3d28"/><circle cx="450.223" cy="507.865" r="2" fill="#05140d"/><circle cx="362.038" cy="724.408" r="5" fill="#47d193"/><circle cx="529.564" cy="584.174" r="2" fill="#1c1c1c"/><circle cx="432.435" cy="496.876" r="2" fill="#05140d"/><circle cx="487.802" cy="595.979" r="4" fill="#0f3d28"/><circle cx="414.272" cy="495.62" r="3" fill="#05140d"/><circle cx="545.199" cy="471.171" r="4" fill="#1c1c1c"/><circle cx="300.07" cy="561.406" r="2" fill="#248f5e"/><circle cx="466.543" cy="537.28" r="1" fill="#1c1c1c"/><circle cx="341.255" cy="377.918" r="3" fill="#248f5e"/><circle cx="619.11" cy="735.707" r="4" fill="#2eb879"/><circle cx="377.41" cy="359.285" r="3" fill="#196643"/><circle cx="468.34" cy="624.682" r="3" fill="#196643"/><circle cx="436.275" cy="669.48" r="1" fill="#248f5e"/><circle cx="611.241" cy="489.622" r="5" fill="#05140d"/><circle cx="614.989" cy="301.007" r="1" fill="#248f5e"/><circle cx="512.904" cy="467.551" r="5" fill="#1c1c1c"/><circle cx="566.016" cy="741.345" r="4" fill="#47d193"/><circle cx="482.696" cy="560.227" r="5" fill="#1c1c1c"/><circle cx="547.418" cy="598.255" r="5" fill="#05140d"/><circle cx="564.078" cy="468.789" r="2" fill="#1c1c1c"/><circle cx="453.514" cy="540.251" r="4" fill="#1c1c1c"/><circle cx="478.161" cy="546.946" r="1" fill="#05140d"/><circle cx="429.061" cy="518.835" r="5" fill="#1c1c1c"/><circle cx="461.899" cy="573.98" r="4" fill="#0f3d28"/><circle cx="427.523" cy="489.739" r="4" fill="#1c1c1c"/><circle cx="341.17" cy="700.29" r="1" fill="#47d193"/><circle cx="495.385" cy="350.222" r="2" fill="#0f3d28"/><circle cx="471.881" cy="339.866" r="4" fill="#196643"/><circle cx="550.007" cy="515.432" r="1" fill="#1c1c1c"/><circle cx="404.889" cy="385.535" r="4" fill="#0f3d28"/><circle cx="654.555" cy="722.803" r="4" fill="#47d193"/><circle cx="551.579" cy="472.838" r="1" fill="#05140d"/><circle cx="661.871" cy="509.948" r="5" fill="#196643"/><circle cx="386.446" cy="738.3" r="4" fill="#2eb879"/><circle cx="428.289" cy="431.211" r="1" fill="#05140d"/><circle cx="631.459" cy="555.106" r="3" fill="#0f3d28"/><circle cx="610.226" cy="471.586" r="4" fill="#05140d"/><circle cx="326.173" cy="429.191" r="4" fill="#196643"/><circle cx="586.756" cy="523.381" r="3" fill="#1c1c1c"/><circle cx="534.852" cy="616.139" r="1" fill="#196643"/><circle cx="431.65" cy="491.168" r="3" fill="#1c1c1c"/><circle cx="358.846" cy="553.693" r="2" fill="#0f3d28"/><circle cx="556.526" cy="634.931" r="1" fill="#0f3d28"/><circle cx="480.668" cy="552.688" r="4" fill="#1c1c1c"/><circle cx="418.882" cy="546.44" r="2" fill="#0f3d28"/><circle cx="399.117" cy="408.414" r="3" fill="#0f3d28"/><circle cx="430.527" cy="438.378" r="2" fill="#05140d"/><circle cx="319.981" cy="696.05" r="3" fill="#2eb879"/><circle cx="337.868" cy="462.689" r="1" fill="#0f3d28"/><circle cx="507.244" cy="688.857" r="5" fill="#0f3d28"/><circle cx="513.991" cy="624.382" r="2" fill="#0f3d28"/><circle cx="437.752" cy="479.618" r="2" fill="#1c1c1c"/><circle cx="409.432" cy="428.001" r="2" fill="#05140d"/><circle cx="556.31" cy="502.329" r="4" fill="#1c1c1c"/><circle cx="461.656" cy="526.994" r="2" fill="#1c1c1c"/><circle cx="443.721" cy="404.872" r="1" fill="#05140d"/><circle cx="439.865" cy="580.762" r="5" fill="#05140d"/><circle cx="654.327" cy="488.626" r="5" fill="#05140d"/><circle cx="380.237" cy="625.201" r="4" fill="#196643"/><circle cx="589.268" cy="410.114" r="1" fill="#0f3d28"/><circle cx="472.393" cy="519.695" r="5" fill="#1c1c1c"/><circle cx="582.04" cy="372.813" r="1" fill="#0f3d28"/><circle cx="549.506" cy="470.455" r="4" fill="#1c1c1c"/><circle cx="575.998" cy="444.133" r="5" fill="#05140d"/><circle cx="571.286" cy="524.99" r="1" fill="#1c1c1c"/><circle cx="418.618" cy="511.278" r="3" fill="#05140d"/><circle cx="439.127" cy="348.512" r="5" fill="#196643"/><circle cx="583.403" cy="410.623" r="4" fill="#196643"/><circle cx="539.732" cy="446.228" r="5" fill="#1c1c1c"/><circle cx="413.631" cy="500.583" r="1" fill="#0f3d28"/><circle cx="661.303" cy="403.216" r="2" fill="#196643"/><circle cx="410.869" cy="614.865" r="4" fill="#0f3d28"/><circle cx="527.76" cy="590.171" r="3" fill="#05140d"/><circle cx="316.117" cy="312.029" r="3" fill="#47d193"/><circle cx="611.562" cy="356.082" r="5" fill="#196643"/><circle cx="382.668" cy="438.342" r="5" fill="#0f3d28"/><circle cx="539.6" cy="369.352" r="3" fill="#0f3d28"/><circle cx="575.605" cy="419.875" r="1" fill="#05140d"/><circle cx="351.861" cy="529.87" r="2" fill="#0f3d28"/><circle cx="432.764" cy="561.065" r="3" fill="#05140d"/><circle cx="501.974" cy="580.444" r="5" fill="#1c1c1c"/><circle cx="444.051" cy="496.899" r="4" fill="#1c1c1c"/><circle cx="601.098" cy="564.83" r="2" fill="#05140d"/><circle cx="432.577" cy="444.061" r="2" fill="#05140d"/><circle cx="567.176" cy="479.659" r="4" fill="#1c1c1c"/><circle cx="478.809" cy="657.971" r="4" fill="#0f3d28"/><circle cx="665.501" cy="480.973" r="2" fill="#196643"/><circle cx="312.443" cy="753.678" r="3" fill="#47d193"/><circle cx="654.339" cy="538.935" r="1" fill="#0f3d28"/><circle cx="593.711" cy="539.556" r="3" fill="#05140d"/><circle cx="707.152" cy="427.091" r="2" fill="#248f5e"/><circle cx="582.598" cy="507.602" r="2" fill="#05140d"/><circle cx="388.482" cy="424.235" r="1" fill="#0f3d28"/><circle cx="351.863" cy="317.16" r="1" fill="#248f5e"/><circle cx="540.048" cy="467.551" r="4" fill="#05140d"/><circle cx="496.78" cy="489.483" r="3" fill="#1c1c1c"/><circle cx="436.825" cy="402.483" r="1" fill="#05140d"/><circle cx="644.665" cy="673.136" r="2" fill="#248f5e"/><circle cx="334.305" cy="495.414" r="2" fill="#196643"/><circle cx="504.166" cy="513.932" r="4" fill="#1c1c1c"/><circle cx="381.099" cy="366.94" r="5" fill="#196643"/><circle cx="565.222" cy="495.249" r="5" fill="#1c1c1c"/><circle cx="670.727" cy="528.569" r="2" fill="#196643"/><circle cx="593.452" cy="497.439" r="5" fill="#05140d"/><circle cx="520.048" cy="534.097" r="5" fill="#1c1c1c"/><circle cx="577.639" cy="373.104" r="4" fill="#0f3d28"/><circle cx="491.783" cy="482.776" r="3" fill="#05140d"/><circle cx="678.288" cy="444.14" r="3" fill="#196643"/><circle cx="520.916" cy="500.978" r="2" fill="#1c1c1c"/><circle cx="418.728" cy="677.28" r="1" fill="#196643"/><circle cx="725.232" cy="604.017" r="5" fill="#47d193"/><circle cx="477.106" cy="603.269" r="5" fill="#05140d"/><circle cx="380.243" cy="574.161" r="5" fill="#0f3d28"/><circle cx="450.336" cy="349.248" r="4" fill="#0f3d28"/><circle cx="557.268" cy="456.752" r="1" fill="#1c1c1c"/><circle cx="467.113" cy="520.728" r="1" fill="#1c1c1c"/><circle cx="425.374" cy="384.442" r="4" fill="#0f3d28"/><circle cx="589.086" cy="484.172" r="4" fill="#05140d"/><circle cx="430.608" cy="437.913" r="5" fill="#05140d"/><circle cx="560.484" cy="400.911" r="3" fill="#05140d"/><circle cx="539.028" cy="587.136" r="1" fill="#05140d"/><circle cx="657.427" cy="525.272" r="4" fill="#0f3d28"/><circle cx="556.667" cy="624.947" r="2" fill="#0f3d28"/><circle cx="502.219" cy="649.498" r="5" fill="#0f3d28"/><circle cx="375.692" cy="634.701" r="5" fill="#196643"/><circle cx="471.608" cy="562.579" r="4" fill="#1c1c1c"/><circle cx="497.462" cy="405.906" r="3" fill="#05140d"/><circle cx="759.363" cy="605.248" r="5" fill="#47d193"/><circle cx="533.834" cy="525.571" r="2" fill="#1c1c1c"/><circle cx="339.053" cy="578.944" r="4" fill="#196643"/><circle cx="594.821" cy="694.166" r="1" fill="#248f5e"/><circle cx="625.144" cy="399.007" r="1" fill="#196643"/><circle cx="607.345" cy="499.435" r="5" fill="#05140d"/><circle cx="360.44" cy="440.275" r="5" fill="#0f3d28"/><circle cx="339.677" cy="545.247" r="3" fill="#0f3d28"/><circle cx="538.906" cy="366.231" r="1" fill="#0f3d28"/><circle cx="742.912" cy="654.165" r="2" fill="#99e6c3"/><circle cx="508.279" cy="457.581" r="3" fill="#05140d"/><circle cx="357.864" cy="697.92" r="5" fill="#47d193"/><circle cx="387.814" cy="509.422" r="4" fill="#05140d"/><circle cx="655.062" cy="732.755" r="2" fill="#47d193"/><circle cx="603.095" cy="498.826" r="1" fill="#05140d"/><circle cx="317.168" cy="474.376" r="4" fill="#248f5e"/><circle cx="373.794" cy="302.404" r="1" fill="#248f5e"/><circle cx="544.834" cy="604.306" r="2" fill="#05140d"/><circle cx="795.145" cy="468.371" r="5" fill="#47d193"/><circle cx="504.867" cy="471.089" r="3" fill="#1c1c1c"/><circle cx="415.551" cy="469.232" r="5" fill="#0f3d28"/><circle cx="388.738" cy="530.803" r="4" fill="#1c1c1c"/><circle cx="483.864" cy="457.656" r="1" fill="#1c1c1c"/><circle cx="621.82" cy="476.35" r="1" fill="#0f3d28"/><circle cx="508.239" cy="544.775" r="5" fill="#05140d"/><circle cx="526.598" cy="504.312" r="2" fill="#1c1c1c"/><circle cx="321.891" cy="522.328" r="3" fill="#248f5e"/><circle cx="487.28" cy="483.193" r="3" fill="#1c1c1c"/><circle cx="327.182" cy="454.859" r="2" fill="#196643"/><circle cx="696.374" cy="505.807" r="5" fill="#196643"/><circle cx="560.939" cy="465.991" r="2" fill="#05140d"/><circle cx="580.898" cy="471.585" r="1" fill="#05140d"/><circle cx="321.827" cy="479.204" r="4" fill="#196643"/><circle cx="526.12" cy="573.779" r="5" fill="#05140d"/><circle cx="667.398" cy="436.988" r="2" fill="#196643"/><circle cx="438.901" cy="455.109" r="3" fill="#1c1c1c"/><circle cx="537.98" cy="551.049" r="2" fill="#1c1c1c"/><circle cx="658.297" cy="240.481" r="4" fill="#99e6c3"/><circle cx="564.282" cy="449.614" r="4" fill="#05140d"/><circle cx="492.95" cy="566.494" r="3" fill="#1c1c1c"/><circle cx="528.191" cy="435.222" r="3" fill="#1c1c1c"/><circle cx="450.325" cy="364.541" r="3" fill="#0f3d28"/><circle cx="446.433" cy="390.244" r="2" fill="#05140d"/><circle cx="490.452" cy="541.993" r="1" fill="#1c1c1c"/><circle cx="276.037" cy="547.24" r="5" fill="#248f5e"/><circle cx="496.879" cy="411.538" r="4" fill="#05140d"/><circle cx="343.794" cy="418.597" r="2" fill="#196643"/><circle cx="654.115" cy="554.578" r="5" fill="#196643"/><circle cx="392.101" cy="394.371" r="5" fill="#196643"/><circle cx="499.386" cy="396.72" r="4" fill="#05140d"/><circle cx="474.222" cy="295.226" r="3" fill="#196643"/><circle cx="670.651" cy="445.206" r="4" fill="#196643"/><circle cx="512.854" cy="460.18" r="4" fill="#1c1c1c"/><circle cx="413.314" cy="632.911" r="3" fill="#05140d"/><circle cx="474.357" cy="506.304" r="5" fill="#05140d"/><circle cx="473.039" cy="519.677" r="1" fill="#1c1c1c"/><circle cx="450.784" cy="563.287" r="3" fill="#05140d"/><circle cx="523.86" cy="494.836" r="2" fill="#1c1c1c"/><circle cx="463.939" cy="273.408" r="4" fill="#248f5e"/><circle cx="618.664" cy="548.255" r="2" fill="#0f3d28"/><circle cx="573.793" cy="408.424" r="1" fill="#0f3d28"/><circle cx="547.984" cy="458.427" r="2" fill="#1c1c1c"/><circle cx="447.983" cy="568.65" r="3" fill="#1c1c1c"/><circle cx="488.971" cy="364.836" r="2" fill="#0f3d28"/><circle cx="489.855" cy="694.608" r="1" fill="#196643"/><circle cx="501.045" cy="345.909" r="4" fill="#0f3d28"/><circle cx="563.779" cy="495.416" r="2" fill="#1c1c1c"/><circle cx="500.058" cy="540.078" r="4" fill="#05140d"/><circle cx="614.66" cy="441.452" r="5" fill="#196643"/><circle cx="523.807" cy="609.347" r="3" fill="#05140d"/><circle cx="522.03" cy="509.71" r="4" fill="#1c1c1c"/><circle cx="471.948" cy="489.723" r="2" fill="#1c1c1c"/><circle cx="509.43" cy="406.793" r="1" fill="#05140d"/><circle cx="388.147" cy="489.944" r="3" fill="#05140d"/><circle cx="654.575" cy="450.821" r="5" fill="#0f3d28"/><circle cx="569.267" cy="431.644" r="5" fill="#05140d"/><circle cx="354.047" cy="642.11" r="1" fill="#248f5e"/><circle cx="582.379" cy="633.18" r="5" fill="#0f3d28"/><circle cx="478.475" cy="554.97" r="4" fill="#1c1c1c"/><circle cx="566.985" cy="513.033" r="4" fill="#1c1c1c"/><circle cx="505.905" cy="502.404" r="4" fill="#1c1c1c"/><circle cx="422.809" cy="369.013" r="5" fill="#0f3d28"/><circle cx="406.983" cy="420.9" r="4" fill="#0f3d28"/><circle cx="549.697" cy="390.075" r="5" fill="#0f3d28"/><circle cx="661.097" cy="613.343" r="3" fill="#196643"/><circle cx="484.718" cy="623.173" r="3" fill="#0f3d28"/><circle cx="319.907" cy="479.538" r="3" fill="#196643"/><circle cx="453.541" cy="536.314" r="3" fill="#1c1c1c"/><circle cx="451.528" cy="344.474" r="2" fill="#196643"/><circle cx="624.095" cy="403.113" r="2" fill="#0f3d28"/><circle cx="357.598" cy="504.28" r="5" fill="#0f3d28"/><circle cx="402.082" cy="483.493" r="1" fill="#1c1c1c"/><circle cx="557.833" cy="304.198" r="4" fill="#248f5e"/><circle cx="601.179" cy="477.307" r="4" fill="#05140d"/><circle cx="324.778" cy="585.893" r="2" fill="#196643"/><circle cx="564.824" cy="403.585" r="4" fill="#05140d"/><circle cx="287.137" cy="523.271" r="2" fill="#248f5e"/><circle cx="527.131" cy="441.973" r="1" fill="#1c1c1c"/><circle cx="451.169" cy="636.735" r="3" fill="#0f3d28"/><circle cx="457.543" cy="630.138" r="1" fill="#0f3d28"/><circle cx="545.227" cy="463.065" r="2" fill="#1c1c1c"/><circle cx="457.813" cy="533.949" r="1" fill="#05140d"/><circle cx="590.773" cy="613.444" r="4" fill="#0f3d28"/><circle cx="472.915" cy="702.021" r="2" fill="#196643"/><circle cx="557.062" cy="528.722" r="3" fill="#05140d"/><circle cx="542.781" cy="460.836" r="1" fill="#05140d"/><circle cx="453.578" cy="460.915" r="3" fill="#1c1c1c"/><circle cx="617.405" cy="550.84" r="3" fill="#196643"/><circle cx="465.694" cy="462.818" r="5" fill="#1c1c1c"/><circle cx="427.765" cy="617.402" r="1" fill="#0f3d28"/><circle cx="594.79" cy="814.041" r="2" fill="#99e6c3"/><circle cx="281.014" cy="470.413" r="3" fill="#248f5e"/><circle cx="510.893" cy="298.665" r="5" fill="#248f5e"/><circle cx="544.728" cy="480.612" r="4" fill="#1c1c1c"/><circle cx="425.164" cy="542.622" r="1" fill="#05140d"/><circle cx="548.458" cy="600.255" r="2" fill="#05140d"/><circle cx="636.171" cy="578.033" r="4" fill="#0f3d28"/><circle cx="407.094" cy="510.987" r="4" fill="#0f3d28"/><circle cx="652.816" cy="444.168" r="3" fill="#0f3d28"/><circle cx="448.461" cy="451.177" r="4" fill="#1c1c1c"/><circle cx="330.182" cy="600.322" r="2" fill="#196643"/><circle cx="280.645" cy="463.387" r="4" fill="#248f5e"/><circle cx="576.798" cy="392.497" r="2" fill="#0f3d28"/><circle cx="703.447" cy="522.06" r="5" fill="#248f5e"/><circle cx="496.473" cy="568.27" r="1" fill="#05140d"/><circle cx="146.372" cy="680.333" r="4" fill="#99e6c3"/><circle cx="559.363" cy="565.797" r="2" fill="#1c1c1c"/><circle cx="579.756" cy="447.861" r="2" fill="#05140d"/><circle cx="429.514" cy="402.876" r="2" fill="#0f3d28"/><circle cx="434.797" cy="619.573" r="2" fill="#0f3d28"/><circle cx="414.878" cy="503.386" r="3" fill="#1c1c1c"/><circle cx="388.047" cy="536.42" r="3" fill="#05140d"/><circle cx="548.663" cy="474.005" r="4" fill="#1c1c1c"/><circle cx="639.313" cy="454.425" r="3" fill="#0f3d28"/><circle cx="423.324" cy="618.908" r="4" fill="#196643"/><circle cx="508.326" cy="403.121" r="3" fill="#05140d"/><circle cx="515.199" cy="549.365" r="1" fill="#1c1c1c"/><circle cx="672.727" cy="566.704" r="4" fill="#248f5e"/><circle cx="594.17" cy="617.188" r="3" fill="#0f3d28"/><circle cx="540.929" cy="520.65" r="2" fill="#1c1c1c"/><circle cx="557.685" cy="821.935" r="2" fill="#99e6c3"/><circle cx="656.415" cy="531.258" r="5" fill="#0f3d28"/><circle cx="571.198" cy="492.798" r="3" fill="#1c1c1c"/><circle cx="568.569" cy="506.986" r="4" fill="#1c1c1c"/><circle cx="522.025" cy="661.822" r="2" fill="#196643"/><circle cx="501.171" cy="514.886" r="5" fill="#1c1c1c"/><circle cx="420.876" cy="392.843" r="5" fill="#0f3d28"/><circle cx="475.473" cy="573.945" r="2" fill="#1c1c1c"/><circle cx="634.649" cy="625.664" r="1" fill="#196643"/><circle cx="548.15" cy="554.005" r="4" fill="#1c1c1c"/><circle cx="415.026" cy="508.278" r="2" fill="#05140d"/><circle cx="406.613" cy="443.317" r="1" fill="#05140d"/><circle cx="589.465" cy="502.751" r="5" fill="#05140d"/><circle cx="451.402" cy="672.996" r="3" fill="#196643"/><circle cx="592.687" cy="612.705" r="5" fill="#196643"/><circle cx="425.016" cy="604.993" r="1" fill="#0f3d28"/><circle cx="659.53" cy="645.011" r="4" fill="#248f5e"/><circle cx="599.02" cy="462.158" r="2" fill="#05140d"/><circle cx="458.405" cy="390.291" r="2" fill="#1c1c1c"/><circle cx="454.369" cy="342.608" r="3" fill="#196643"/><circle cx="328.11" cy="488.774" r="4" fill="#196643"/><circle cx="403.397" cy="583.118" r="4" fill="#196643"/><circle cx="662.14" cy="546.02" r="4" fill="#196643"/><circle cx="465.144" cy="338.629" r="1" fill="#196643"/><circle cx="494.696" cy="587.174" r="3" fill="#05140d"/><circle cx="473.7" cy="566.783" r="5" fill="#05140d"/><circle cx="649.18" cy="443.617" r="3" fill="#0f3d28"/><circle cx="530.373" cy="502.699" r="4" fill="#1c1c1c"/></svg>