<svg id="mySVG" width="1000" height="1000"><circle cx="375.308" cy="628.757" r="3" fill="#0f3d28"/><circle cx="663.243" cy="647.612" r="1" fill="#248f5e"/><circle cx="658.777" cy="267.776" r="5" fill="#47d193"/><circle cx="622.823" cy="671.834" r="5" fill="#248f5e"/><circle cx="629.659" cy="645.371" r="4" fill="#248f5e"/><circle cx="610.749" cy="476.064" r="4" fill="#05140d"/><circle cx="456.627" cy="271.496" r="5" fill="#248f5e"/><circle cx="862.573" cy="666.001" r="2" fill="#99e6c3"/><circle cx="431.81" cy="500.55" r="4" fill="#1c1c1c"/><circle cx="314.899" cy="496.803" r="4" fill="#196643"/><circle cx="599.473" cy="352.991" r="3" fill="#196643"/><circle cx="580.597" cy="434.464" r="2" fill="#05140d"/><circle cx="282.929" cy="553.95" r="1" fill="#248f5e"/><circle cx="585.9" cy="626.788" r="1" fill="#0f3d28"/><circle cx="318.715" cy="504.635" r="4" fill="#248f5e"/><circle cx="422.23" cy="682.963" r="5" fill="#196643"/><circle cx="443.885" cy="267.492" r="4" fill="#248f5e"/><circle cx="583.531" cy="345.363" r="3" fill="#196643"/><circle cx="600.892" cy="689.823" r="5" fill="#2eb879"/><circle cx="441.43" cy="326.025" r="1" fill="#196643"/><circle cx="554.746" cy="204.277" r="5" fill="#47d193"/><circle cx="333.632" cy="261.721" r="5" fill="#47d193"/><circle cx="343.949" cy="208.742" r="1" fill="#99e6c3"/><circle cx="185.018" cy="447.151" r="5" fill="#47d193"/><circle cx="457.409" cy="260.594" r="3" fill="#47d193"/><circle cx="354.795" cy="709.618" r="5" fill="#47d193"/><circle cx="531.693" cy="667.069" r="5" fill="#196643"/><circle cx="616.627" cy="711.774" r="2" fill="#47d193"/><circle cx="546.608" cy="514.807" r="3" fill="#1c1c1c"/><circle cx="424.211" cy="651.982" r="5" fill="#196643"/><circle cx="384.061" cy="661.092" r="4" fill="#196643"/><circle cx="387.24" cy="429.359" r="3" fill="#196643"/><circle cx="521.472" cy="512.571" r="4" fill="#05140d"/><circle cx="500.077" cy="571.263" r="4" fill="#1c1c1c"/><circle cx="811.365" cy="480.828" r="4" fill="#47d193"/><circle cx="471.942" cy="581.492" r="4" fill="#05140d"/><circle cx="228.106" cy="397.669" r="3" fill="#47d193"/><circle cx="719.951" cy="315.009" r="4" fill="#47d193"/><circle cx="569.585" cy="560.455" r="4" fill="#05140d"/><circle cx="562.401" cy="705.831" r="1" fill="#248f5e"/><circle cx="330.903" cy="676.764" r="5" fill="#47d193"/><circle cx="383.658" cy="348.783" r="5" fill="#196643"/><circle cx="558.498" cy="510.412" r="5" fill="#1c1c1c"/><circle cx="581.238" cy="430.142" r="2" fill="#05140d"/><circle cx="467.975" cy="678.731" r="5" fill="#196643"/><circle cx="755.903" cy="473.715" r="4" fill="#2eb879"/><circle cx="333.973" cy="597.439" r="5" fill="#196643"/><circle cx="528.335" cy="312.819" r="4" fill="#196643"/><circle cx="387.372" cy="383.239" r="4" fill="#196643"/><circle cx="345.785" cy="658.767" r="4" fill="#248f5e"/><circle cx="257.2" cy="577.536" r="2" fill="#47d193"/><circle cx="494.413" cy="308.367" r="5" fill="#196643"/><circle cx="398.673" cy="431.219" r="5" fill="#0f3d28"/><circle cx="291.047" cy="642.579" r="4" fill="#47d193"/><circle cx="328.618" cy="676.781" r="5" fill="#47d193"/><circle cx="471.298" cy="512.074" r="4" fill="#1c1c1c"/><circle cx="449.114" cy="256.11" r="1" fill="#2eb879"/><circle cx="496.482" cy="366.325" r="5" fill="#0f3d28"/><circle cx="894.024" cy="681.54" r="2" fill="#99e6c3"/><circle cx="489.829" cy="587.479" r="5" fill="#05140d"/><circle cx="284.581" cy="489.95" r="2" fill="#248f5e"/><circle cx="402.165" cy="421.622" r="2" fill="#05140d"/><circle cx="668.331" cy="227.831" r="1" fill="#99e6c3"/><circle cx="746.113" cy="624.098" r="5" fill="#47d193"/><circle cx="638.098" cy="617.303" r="3" fill="#196643"/><circle cx="468.348" cy="440.797" r="1" fill="#05140d"/><circle cx="565.269" cy="495.306" r="3" fill="#1c1c1c"/><circle cx="332.115" cy="413.605" r="1" fill="#248f5e"/><circle cx="409.932" cy="624.103" r="5" fill="#0f3d28"/><circle cx="465.54" cy="695.716" r="2" fill="#196643"/><circle cx="385.882" cy="456.671" r="2" fill="#0f3d28"/><circle cx="332.686" cy="495.287" r="3" fill="#248f5e"/><circle cx="187.473" cy="512.776" r="1" fill="#47d193"/><circle cx="336.952" cy="334.106" r="2" fill="#248f5e"/><circle cx="324.771" cy="344.468" r="5" fill="#196643"/><circle cx="469.388" cy="512.201" r="4" fill="#05140d"/><circle cx="416.994" cy="557.965" r="4" fill="#0f3d28"/><circle cx="771.459" cy="566.858" r="5" fill="#47d193"/><circle cx="374.318" cy="521.414" r="2" fill="#0f3d28"/><circle cx="533.554" cy="743.527" r="1" fill="#47d193"/><circle cx="526.231" cy="369.334" r="4" fill="#05140d"/><circle cx="508.798" cy="429.401" r="4" fill="#1c1c1c"/><circle cx="423.494" cy="622.859" r="4" fill="#0f3d28"/><circle cx="535.779" cy="633.262" r="5" fill="#0f3d28"/><circle cx="592.97" cy="115.3" r="3" fill="#99e6c3"/><circle cx="372.788" cy="312.839" r="4" fill="#2eb879"/><circle cx="422.574" cy="634.386" r="3" fill="#05140d"/><circle cx="303.874" cy="882.664" r="4" fill="#99e6c3"/><circle cx="253.35" cy="697.261" r="5" fill="#47d193"/><circle cx="361.82" cy="286.797" r="2" fill="#47d193"/><circle cx="673.543" cy="629.943" r="2" fill="#196643"/><circle cx="348.658" cy="750.508" r="5" fill="#99e6c3"/><circle cx="630.154" cy="451.662" r="4" fill="#0f3d28"/><circle cx="229.67" cy="364.401" r="3" fill="#47d193"/><circle cx="472.845" cy="392.772" r="3" fill="#05140d"/><circle cx="795.864" cy="418.715" r="5" fill="#47d193"/><circle cx="525.994" cy="351.762" r="3" fill="#196643"/><circle cx="578.312" cy="506.685" r="2" fill="#1c1c1c"/><circle cx="675.843" cy="704.68" r="2" fill="#47d193"/><circle cx="489.953" cy="527.638" r="1" fill="#1c1c1c"/><circle cx="479.519" cy="586.977" r="4" fill="#05140d"/><circle cx="217.995" cy="379.413" r="2" fill="#47d193"/><circle cx="640.336" cy="226.485" r="3" fill="#47d193"/><circle cx="674.881" cy="470.427" r="2" fill="#196643"/><circle cx="568.464" cy="499.508" r="2" fill="#05140d"/><circle cx="713.432" cy="483.751" r="3" fill="#2eb879"/><circle cx="445.319" cy="670.333" r="4" fill="#196643"/><circle cx="443.728" cy="581.19" r="3" fill="#0f3d28"/><circle cx="606.284" cy="232.871" r="4" fill="#47d193"/><circle cx="708.921" cy="236.574" r="2" fill="#99e6c3"/><circle cx="572.659" cy="442.001" r="2" fill="#05140d"/><circle cx="666.105" cy="627.216" r="5" fill="#248f5e"/><circle cx="497.792" cy="239.648" r="2" fill="#2eb879"/><circle cx="625.114" cy="159.583" r="4" fill="#99e6c3"/><circle cx="316.687" cy="853.746" r="2" fill="#99e6c3"/><circle cx="361.352" cy="290.423" r="1" fill="#47d193"/><circle cx="381.845" cy="584.706" r="2" fill="#0f3d28"/><circle cx="596.448" cy="365.624" r="2" fill="#196643"/><circle cx="657.183" cy="507.569" r="4" fill="#196643"/><circle cx="422.918" cy="520.502" r="2" fill="#05140d"/><circle cx="387.693" cy="644.458" r="3" fill="#196643"/><circle cx="536.178" cy="601.825" r="2" fill="#05140d"/><circle cx="450.653" cy="337.532" r="3" fill="#248f5e"/><circle cx="496.371" cy="322.183" r="3" fill="#196643"/><circle cx="616.28" cy="262.559" r="2" fill="#47d193"/><circle cx="515.737" cy="412.864" r="2" fill="#05140d"/><circle cx="227.076" cy="316.859" r="2" fill="#99e6c3"/><circle cx="352.959" cy="747.096" r="1" fill="#47d193"/><circle cx="409.317" cy="537.011" r="1" fill="#05140d"/><circle cx="428.87" cy="241.955" r="1" fill="#47d193"/><circle cx="412.516" cy="531.141" r="3" fill="#05140d"/><circle cx="596.689" cy="509.648" r="2" fill="#1c1c1c"/><circle cx="426.225" cy="306.064" r="4" fill="#248f5e"/><circle cx="498.699" cy="683.604" r="1" fill="#248f5e"/><circle cx="369.564" cy="487.834" r="3" fill="#0f3d28"/><circle cx="487.93" cy="602.152" r="3" fill="#1c1c1c"/><circle cx="540.089" cy="500.596" r="3" fill="#1c1c1c"/><circle cx="263.801" cy="624.293" r="1" fill="#47d193"/><circle cx="421.335" cy="701.724" r="1" fill="#248f5e"/><circle cx="528.863" cy="383.694" r="5" fill="#05140d"/><circle cx="545.639" cy="595.569" r="4" fill="#05140d"/><circle cx="270.39" cy="512.134" r="2" fill="#248f5e"/><circle cx="342.319" cy="548.418" r="4" fill="#196643"/><circle cx="590.372" cy="574.279" r="1" fill="#05140d"/><circle cx="598.312" cy="511.185" r="3" fill="#05140d"/><circle cx="654.047" cy="511.52" r="1" fill="#0f3d28"/><circle cx="816.185" cy="477.376" r="5" fill="#47d193"/><circle cx="698.455" cy="609.098" r="4" fill="#248f5e"/><circle cx="519.066" cy="284.554" r="4" fill="#248f5e"/><circle cx="667.277" cy="500.594" r="4" fill="#0f3d28"/><circle cx="627.28" cy="735.773" r="3" fill="#47d193"/><circle cx="406.914" cy="631.745" r="3" fill="#196643"/><circle cx="570.774" cy="359.981" r="3" fill="#05140d"/><circle cx="438.83" cy="594.122" r="4" fill="#05140d"/><circle cx="593.35" cy="624.197" r="2" fill="#196643"/><circle cx="528.373" cy="205.383" r="5" fill="#47d193"/><circle cx="490.638" cy="643.151" r="1" fill="#0f3d28"/><circle cx="486.524" cy="533.865" r="1" fill="#1c1c1c"/><circle cx="830.272" cy="337.37" r="1" fill="#99e6c3"/><circle cx="658.027" cy="589.781" r="5" fill="#196643"/><circle cx="699.781" cy="456.033" r="3" fill="#248f5e"/><circle cx="561.276" cy="707.649" r="5" fill="#196643"/><circle cx="662.643" cy="489.563" r="3" fill="#196643"/><circle cx="271.997" cy="636.548" r="5" fill="#47d193"/><circle cx="508.625" cy="344.678" r="3" fill="#0f3d28"/><circle cx="490.678" cy="215.24" r="4" fill="#47d193"/><circle cx="506.708" cy="457.69" r="4" fill="#1c1c1c"/><circle cx="308.187" cy="579.959" r="5" fill="#248f5e"/><circle cx="251.5" cy="344.855" r="4" fill="#47d193"/><circle cx="600.728" cy="282.605" r="1" fill="#248f5e"/><circle cx="258.901" cy="444.178" r="5" fill="#2eb879"/><circle cx="548.333" cy="413.771" r="4" fill="#05140d"/><circle cx="264.832" cy="518.349" r="2" fill="#196643"/><circle cx="424.005" cy="655.308" r="5" fill="#196643"/><circle cx="525.361" cy="468.403" r="3" fill="#1c1c1c"/><circle cx="477.657" cy="552.469" r="3" fill="#05140d"/><circle cx="625.633" cy="288.152" r="2" fill="#47d193"/><circle cx="681.756" cy="325.425" r="2" fill="#47d193"/><circle cx="828.962" cy="581.433" r="5" fill="#99e6c3"/><circle cx="496.787" cy="358.385" r="3" fill="#0f3d28"/><circle cx="383.465" cy="296.8" r="5" fill="#2eb879"/><circle cx="434.291" cy="410.104" r="2" fill="#0f3d28"/><circle cx="534.653" cy="236.425" r="1" fill="#47d193"/><circle cx="380.37" cy="645.375" r="3" fill="#0f3d28"/><circle cx="393.074" cy="449.495" r="2" fill="#05140d"/><circle cx="454.306" cy="535.835" r="5" fill="#1c1c1c"/><circle cx="642.214" cy="646.82" r="2" fill="#248f5e"/><circle cx="319.71" cy="419.105" r="1" fill="#196643"/><circle cx="404.475" cy="450.955" r="4" fill="#0f3d28"/><circle cx="664.884" cy="531.424" r="5" fill="#248f5e"/><circle cx="452.941" cy="458.33" r="4" fill="#1c1c1c"/><circle cx="444.095" cy="487.799" r="5" fill="#05140d"/><circle cx="517.641" cy="516.035" r="3" fill="#1c1c1c"/><circle cx="591.285" cy="454.813" r="3" fill="#0f3d28"/><circle cx="465.807" cy="412.719" r="1" fill="#05140d"/><circle cx="564.354" cy="478.055" r="5" fill="#1c1c1c"/><circle cx="436.258" cy="297.709" r="2" fill="#248f5e"/><circle cx="501.678" cy="255.272" r="5" fill="#47d193"/><circle cx="347.727" cy="302.041" r="5" fill="#47d193"/><circle cx="543.512" cy="561.166" r="5" fill="#1c1c1c"/><circle cx="254.333" cy="252.283" r="1" fill="#99e6c3"/><circle cx="661.752" cy="432.126" r="3" fill="#196643"/><circle cx="193.505" cy="479.071" r="5" fill="#47d193"/><circle cx="365.532" cy="613.812" r="1" fill="#196643"/><circle cx="490.956" cy="455.13" r="2" fill="#1c1c1c"/><circle cx="414.881" cy="595.488" r="3" fill="#0f3d28"/><circle cx="302.854" cy="419.459" r="1" fill="#248f5e"/><circle cx="319.468" cy="269.88" r="3" fill="#47d193"/><circle cx="509.371" cy="686.837" r="4" fill="#248f5e"/><circle cx="403.559" cy="382.934" r="1" fill="#0f3d28"/><circle cx="676.51" cy="714.81" r="2" fill="#47d193"/><circle cx="585.576" cy="258.136" r="2" fill="#2eb879"/><circle cx="458.32" cy="599.481" r="4" fill="#0f3d28"/><circle cx="439.185" cy="719.106" r="2" fill="#248f5e"/><circle cx="541.856" cy="828.277" r="5" fill="#99e6c3"/><circle cx="589.515" cy="496.203" r="2" fill="#05140d"/><circle cx="622.621" cy="477.81" r="4" fill="#0f3d28"/><circle cx="726.282" cy="541.616" r="3" fill="#248f5e"/><circle cx="628.693" cy="280.995" r="1" fill="#47d193"/><circle cx="425.642" cy="323.601" r="1" fill="#196643"/><circle cx="448.483" cy="974.908" r="1" fill="#99e6c3"/><circle cx="657.146" cy="272.282" r="5" fill="#47d193"/><circle cx="685.699" cy="484.152" r="1" fill="#196643"/><circle cx="478.109" cy="457.761" r="3" fill="#1c1c1c"/><circle cx="578.374" cy="550.664" r="5" fill="#05140d"/><circle cx="263.965" cy="497.508" r="3" fill="#248f5e"/><circle cx="580.407" cy="626.599" r="3" fill="#196643"/><circle cx="574.377" cy="597.291" r="5" fill="#196643"/><circle cx="305.266" cy="308.553" r="2" fill="#2eb879"/><circle cx="281.245" cy="609.843" r="5" fill="#47d193"/><circle cx="344.812" cy="546.474" r="3" fill="#196643"/><circle cx="354.038" cy="663.249" r="3" fill="#248f5e"/><circle cx="489.184" cy="418.821" r="2" fill="#05140d"/><circle cx="343.458" cy="576.003" r="4" fill="#196643"/><circle cx="211.208" cy="484.804" r="2" fill="#47d193"/><circle cx="399.943" cy="542.41" r="4" fill="#0f3d28"/><circle cx="547.602" cy="490.662" r="4" fill="#1c1c1c"/><circle cx="625.59" cy="697.83" r="5" fill="#248f5e"/><circle cx="615.941" cy="458.58" r="4" fill="#0f3d28"/><circle cx="501.753" cy="625.177" r="2" fill="#0f3d28"/><circle cx="531.568" cy="302.681" r="1" fill="#0f3d28"/><circle cx="388.393" cy="612.036" r="2" fill="#05140d"/><circle cx="547.881" cy="727.377" r="3" fill="#248f5e"/><circle cx="629.045" cy="525.273" r="3" fill="#0f3d28"/><circle cx="732.586" cy="435.252" r="1" fill="#47d193"/><circle cx="366.056" cy="547.821" r="1" fill="#0f3d28"/><circle cx="326.505" cy="631.903" r="4" fill="#248f5e"/><circle cx="420.94" cy="683.731" r="2" fill="#248f5e"/><circle cx="306.165" cy="595.072" r="5" fill="#248f5e"/><circle cx="368.719" cy="616.651" r="4" fill="#0f3d28"/><circle cx="414.056" cy="598.17" r="1" fill="#0f3d28"/><circle cx="429.562" cy="599.546" r="4" fill="#0f3d28"/><circle cx="518.045" cy="618.799" r="4" fill="#0f3d28"/><circle cx="628.878" cy="580.924" r="2" fill="#05140d"/><circle cx="757.609" cy="628.505" r="2" fill="#47d193"/><circle cx="542.031" cy="476.345" r="5" fill="#05140d"/><circle cx="346.453" cy="386.33" r="1" fill="#196643"/><circle cx="477.071" cy="546.461" r="3" fill="#1c1c1c"/><circle cx="525.783" cy="114.617" r="1" fill="#99e6c3"/><circle cx="499.836" cy="670.352" r="3" fill="#196643"/><circle cx="561.048" cy="689.97" r="5" fill="#0f3d28"/><circle cx="403.361" cy="447.393" r="5" fill="#0f3d28"/><circle cx="469.94" cy="735.843" r="1" fill="#248f5e"/><circle cx="615.805" cy="679.948" r="4" fill="#248f5e"/><circle cx="524.059" cy="447.847" r="5" fill="#05140d"/><circle cx="647.02" cy="328.243" r="2" fill="#248f5e"/><circle cx="459.714" cy="358.323" r="3" fill="#196643"/><circle cx="503.857" cy="472.098" r="3" fill="#05140d"/><circle cx="843.416" cy="425.717" r="5" fill="#99e6c3"/><circle cx="830.12" cy="537.652" r="5" fill="#99e6c3"/><circle cx="433.682" cy="699.11" r="4" fill="#248f5e"/><circle cx="573.867" cy="397.215" r="5" fill="#0f3d28"/><circle cx="604.323" cy="634.126" r="2" fill="#196643"/><circle cx="415.794" cy="833.572" r="5" fill="#99e6c3"/><circle cx="620.426" cy="389.324" r="1" fill="#196643"/><circle cx="927.553" cy="426.351" r="2" fill="#99e6c3"/><circle cx="336.891" cy="535.366" r="5" fill="#196643"/><circle cx="508.48" cy="631.838" r="4" fill="#0f3d28"/><circle cx="499.44" cy="313.254" r="5" fill="#248f5e"/><circle cx="758.213" cy="231.266" r="1" fill="#99e6c3"/><circle cx="381.361" cy="424.116" r="5" fill="#0f3d28"/><circle cx="388.784" cy="481.823" r="4" fill="#05140d"/><circle cx="524.723" cy="495.996" r="1" fill="#05140d"/><circle cx="666.916" cy="669.678" r="3" fill="#248f5e"/><circle cx="320.154" cy="225.502" r="2" fill="#99e6c3"/><circle cx="830.771" cy="575.114" r="1" fill="#99e6c3"/><circle cx="368.449" cy="615.929" r="2" fill="#0f3d28"/><circle cx="168.917" cy="512.021" r="5" fill="#47d193"/><circle cx="493.952" cy="289.968" r="5" fill="#248f5e"/><circle cx="513.95" cy="715.401" r="1" fill="#248f5e"/><circle cx="347.629" cy="610.904" r="1" fill="#196643"/><circle cx="642.133" cy="490.188" r="5" fill="#196643"/><circle cx="459.66" cy="496.286" r="1" fill="#1c1c1c"/><circle cx="720.921" cy="659.694" r="4" fill="#47d193"/><circle cx="741.119" cy="497.757" r="3" fill="#47d193"/><circle cx="595.423" cy="458.141" r="5" fill="#0f3d28"/><circle cx="471.652" cy="485.679" r="5" fill="#1c1c1c"/><circle cx="591.617" cy="505.564" r="1" fill="#1c1c1c"/><circle cx="227.148" cy="600.197" r="3" fill="#47d193"/><circle cx="368.515" cy="341.287" r="4" fill="#248f5e"/><circle cx="444.463" cy="576.472" r="3" fill="#05140d"/><circle cx="354.777" cy="371.108" r="2" fill="#196643"/><circle cx="203.485" cy="450.854" r="1" fill="#47d193"/><circle cx="438.754" cy="575.469" r="5" fill="#1c1c1c"/><circle cx="291.327" cy="239.631" r="3" fill="#99e6c3"/><circle cx="365.105" cy="579.423" r="3" fill="#0f3d28"/><circle cx="539.202" cy="524.371" r="5" fill="#05140d"/><circle cx="466.837" cy="599.62" r="5" fill="#1c1c1c"/><circle cx="636.427" cy="599.046" r="2" fill="#196643"/><circle cx="364.792" cy="514.846" r="1" fill="#196643"/><circle cx="757.112" cy="471.099" r="2" fill="#47d193"/><circle cx="496.076" cy="465.408" r="5" fill="#05140d"/><circle cx="358.592" cy="353.502" r="3" fill="#2eb879"/><circle cx="538.735" cy="449.581" r="3" fill="#1c1c1c"/><circle cx="340.424" cy="654.48" r="5" fill="#248f5e"/><circle cx="414.235" cy="549.923" r="1" fill="#05140d"/><circle cx="399.081" cy="819.358" r="1" fill="#99e6c3"/><circle cx="523.416" cy="306.793" r="1" fill="#196643"/><circle cx="478.155" cy="275.4" r="5" fill="#248f5e"/><circle cx="363.763" cy="462.815" r="4" fill="#0f3d28"/><circle cx="745.189" cy="596.125" r="1" fill="#47d193"/><circle cx="663.237" cy="638.389" r="5" fill="#248f5e"/><circle cx="733.11" cy="490.282" r="1" fill="#248f5e"/><circle cx="389.596" cy="805.026" r="5" fill="#99e6c3"/><circle cx="456.802" cy="583.953" r="1" fill="#05140d"/><circle cx="678.571" cy="530.881" r="3" fill="#196643"/><circle cx="562.352" cy="302.813" r="3" fill="#248f5e"/><circle cx="258.769" cy="531.525" r="1" fill="#47d193"/><circle cx="528.764" cy="495.558" r="1" fill="#1c1c1c"/><circle cx="644.702" cy="440.04" r="3" fill="#05140d"/><circle cx="540.757" cy="502.298" r="4" fill="#1c1c1c"/><circle cx="624.709" cy="448.933" r="4" fill="#196643"/><circle cx="296.981" cy="573.886" r="4" fill="#196643"/><circle cx="494.655" cy="446.785" r="5" fill="#1c1c1c"/><circle cx="602.671" cy="671.707" r="4" fill="#248f5e"/><circle cx="310.787" cy="162.176" r="5" fill="#99e6c3"/><circle cx="343.387" cy="488.727" r="4" fill="#0f3d28"/><circle cx="504" cy="613.108" r="4" fill="#05140d"/><circle cx="471.859" cy="597.352" r="4" fill="#05140d"/><circle cx="394.071" cy="633.284" r="5" fill="#248f5e"/><circle cx="794.722" cy="440.315" r="4" fill="#47d193"/><circle cx="448.605" cy="256.533" r="4" fill="#47d193"/><circle cx="559.647" cy="443.684" r="1" fill="#05140d"/><circle cx="507.267" cy="450.817" r="5" fill="#1c1c1c"/><circle cx="566.782" cy="618.886" r="1" fill="#0f3d28"/><circle cx="364.586" cy="430.536" r="3" fill="#0f3d28"/><circle cx="640.06" cy="523.292" r="5" fill="#196643"/><circle cx="542.707" cy="361.073" r="2" fill="#0f3d28"/><circle cx="360.647" cy="358.819" r="2" fill="#196643"/><circle cx="709.183" cy="586.155" r="2" fill="#196643"/><circle cx="578.688" cy="537.078" r="1" fill="#0f3d28"/><circle cx="543.726" cy="301.618" r="3" fill="#2eb879"/><circle cx="643.151" cy="526.019" r="5" fill="#0f3d28"/><circle cx="426.246" cy="683.014" r="2" fill="#196643"/><circle cx="803.79" cy="435.705" r="2" fill="#47d193"/><circle cx="481.635" cy="425.807" r="5" fill="#1c1c1c"/><circle cx="200.699" cy="475.864" r="1" fill="#47d193"/><circle cx="607.714" cy="776.757" r="2" fill="#47d193"/><circle cx="574.742" cy="302.067" r="5" fill="#196643"/><circle cx="376.281" cy="611.29" r="2" fill="#196643"/><circle cx="731.326" cy="782.896" r="1" fill="#99e6c3"/><circle cx="596.865" cy="654.542" r="5" fill="#196643"/><circle cx="495.992" cy="440.953" r="4" fill="#1c1c1c"/><circle cx="381.597" cy="260.069" r="1" fill="#47d193"/><circle cx="441.897" cy="632.278" r="5" fill="#0f3d28"/><circle cx="561.175" cy="546.225" r="4" fill="#1c1c1c"/><circle cx="185.576" cy="361.939" r="2" fill="#47d193"/><circle cx="540.463" cy="394" r="5" fill="#05140d"/><circle cx="480.733" cy="687.353" r="3" fill="#196643"/><circle cx="407.506" cy="609.314" r="3" fill="#0f3d28"/><circle cx="584.171" cy="552.42" r="4" fill="#05140d"/><circle cx="689.498" cy="437.275" r="2" fill="#196643"/><circle cx="562.165" cy="472.669" r="3" fill="#1c1c1c"/><circle cx="498.378" cy="540.109" r="1" fill="#1c1c1c"/><circle cx="515.284" cy="827.386" r="1" fill="#99e6c3"/><circle cx="331.894" cy="491.425" r="3" fill="#196643"/><circle cx="388.937" cy="824.412" r="1" fill="#99e6c3"/><circle cx="461.447" cy="377.725" r="2" fill="#0f3d28"/><circle cx="801.372" cy="293.245" r="2" fill="#99e6c3"/><circle cx="547.445" cy="638.069" r="2" fill="#0f3d28"/><circle cx="251.606" cy="569.136" r="4" fill="#47d193"/><circle cx="336.092" cy="256.796" r="5" fill="#47d193"/><circle cx="504.288" cy="538.809" r="4" fill="#1c1c1c"/><circle cx="288.377" cy="392.995" r="2" fill="#2eb879"/><circle cx="627.475" cy="623.964" r="3" fill="#196643"/><circle cx="241.979" cy="570.198" r="1" fill="#47d193"/><circle cx="515.581" cy="738.78" r="3" fill="#248f5e"/><circle cx="712.946" cy="496.599" r="4" fill="#248f5e"/><circle cx="734.326" cy="428.508" r="5" fill="#47d193"/><circle cx="435.046" cy="421.064" r="3" fill="#05140d"/><circle cx="644.143" cy="446.462" r="3" fill="#196643"/><circle cx="904.425" cy="529.824" r="5" fill="#99e6c3"/><circle cx="299.146" cy="711.6" r="5" fill="#99e6c3"/><circle cx="521.999" cy="632.608" r="3" fill="#196643"/><circle cx="494.928" cy="527.628" r="2" fill="#1c1c1c"/><circle cx="834.103" cy="608.965" r="2" fill="#99e6c3"/><circle cx="453.975" cy="578.483" r="3" fill="#05140d"/><circle cx="286.803" cy="714.741" r="4" fill="#47d193"/><circle cx="535.477" cy="507.597" r="3" fill="#05140d"/><circle cx="667.882" cy="469.891" r="5" fill="#196643"/><circle cx="504.691" cy="461.94" r="3" fill="#1c1c1c"/><circle cx="385.981" cy="425.727" r="4" fill="#0f3d28"/><circle cx="786.005" cy="438.884" r="1" fill="#47d193"/><circle cx="603.55" cy="517.346" r="5" fill="#05140d"/><circle cx="524.019" cy="440.215" r="4" fill="#1c1c1c"/><circle cx="452.937" cy="673.454" r="2" fill="#0f3d28"/><circle cx="798.422" cy="541.103" r="5" fill="#47d193"/><circle cx="178.898" cy="692.988" r="4" fill="#99e6c3"/><circle cx="335.684" cy="307.343" r="1" fill="#47d193"/><circle cx="462.992" cy="801.293" r="1" fill="#47d193"/><circle cx="552.586" cy="469.693" r="1" fill="#1c1c1c"/><circle cx="609.743" cy="459.243" r="2" fill="#05140d"/><circle cx="697.439" cy="588.727" r="3" fill="#248f5e"/><circle cx="766.263" cy="475.874" r="5" fill="#47d193"/><circle cx="253.35" cy="319.23" r="5" fill="#47d193"/><circle cx="250.267" cy="554.147" r="3" fill="#47d193"/><circle cx="490.851" cy="332.736" r="4" fill="#196643"/><circle cx="685.084" cy="405.21" r="5" fill="#248f5e"/><circle cx="753.442" cy="533.977" r="3" fill="#47d193"/><circle cx="783.184" cy="603.057" r="2" fill="#47d193"/><circle cx="601.166" cy="524.686" r="2" fill="#05140d"/><circle cx="537.164" cy="319.244" r="2" fill="#196643"/><circle cx="639.827" cy="561.276" r="5" fill="#0f3d28"/><circle cx="573.498" cy="816.55" r="5" fill="#99e6c3"/><circle cx="477.762" cy="675.799" r="3" fill="#248f5e"/><circle cx="589.042" cy="564.446" r="3" fill="#0f3d28"/><circle cx="624.059" cy="556.392" r="3" fill="#0f3d28"/><circle cx="387.32" cy="456.268" r="1" fill="#0f3d28"/><circle cx="435.053" cy="282.906" r="5" fill="#248f5e"/><circle cx="444.771" cy="532.932" r="2" fill="#05140d"/><circle cx="455" cy="693.055" r="4" fill="#0f3d28"/><circle cx="460.257" cy="320.201" r="4" fill="#196643"/><circle cx="480.152" cy="502.732" r="1" fill="#1c1c1c"/><circle cx="611.284" cy="189.752" r="1" fill="#99e6c3"/><circle cx="523.11" cy="646.132" r="3" fill="#0f3d28"/><circle cx="530.516" cy="542.29" r="4" fill="#1c1c1c"/><circle cx="284.898" cy="537.548" r="3" fill="#248f5e"/><circle cx="359.838" cy="549.419" r="3" fill="#196643"/><circle cx="504.865" cy="650.742" r="3" fill="#0f3d28"/><circle cx="764.294" cy="509.866" r="1" fill="#47d193"/><circle cx="536.349" cy="686.62" r="3" fill="#196643"/><circle cx="576.554" cy="477.259" r="1" fill="#1c1c1c"/><circle cx="295.548" cy="522.822" r="5" fill="#248f5e"/><circle cx="621.807" cy="333.146" r="2" fill="#196643"/><circle cx="707.54" cy="381.565" r="3" fill="#196643"/><circle cx="276.018" cy="478.562" r="3" fill="#248f5e"/><circle cx="516.247" cy="366.771" r="2" fill="#0f3d28"/><circle cx="444.511" cy="627.907" r="1" fill="#196643"/><circle cx="455.356" cy="499.01" r="3" fill="#1c1c1c"/><circle cx="405.554" cy="515.336" r="5" fill="#05140d"/><circle cx="282.424" cy="645.391" r="3" fill="#47d193"/><circle cx="537.361" cy="631.681" r="5" fill="#0f3d28"/><circle cx="382.877" cy="505.36" r="3" fill="#05140d"/><circle cx="471.801" cy="536.747" r="4" fill="#1c1c1c"/><circle cx="351.852" cy="487.431" r="4" fill="#0f3d28"/><circle cx="545.967" cy="416.405" r="1" fill="#1c1c1c"/><circle cx="434.423" cy="596.21" r="2" fill="#05140d"/><circle cx="298.744" cy="781.661" r="5" fill="#99e6c3"/><circle cx="295.901" cy="239.292" r="3" fill="#99e6c3"/><circle cx="533.304" cy="632.587" r="3" fill="#0f3d28"/><circle cx="472.443" cy="638.422" r="1" fill="#0f3d28"/><circle cx="705.301" cy="708.282" r="4" fill="#47d193"/><circle cx="497.551" cy="325.404" r="2" fill="#0f3d28"/><circle cx="444.312" cy="155.925" r="4" fill="#99e6c3"/><circle cx="710.318" cy="505.423" r="2" fill="#248f5e"/><circle cx="603.914" cy="492.727" r="1" fill="#0f3d28"/><circle cx="565.571" cy="641.092" r="3" fill="#196643"/><circle cx="562.001" cy="463.43" r="4" fill="#1c1c1c"/><circle cx="403.172" cy="509.267" r="1" fill="#05140d"/><circle cx="643.484" cy="542.409" r="2" fill="#0f3d28"/><circle cx="378.879" cy="450.353" r="1" fill="#196643"/><circle cx="813.542" cy="741.42" r="1" fill="#99e6c3"/><circle cx="381.093" cy="574.779" r="1" fill="#196643"/><circle cx="752.136" cy="398.057" r="3" fill="#2eb879"/><circle cx="625.564" cy="264.263" r="1" fill="#47d193"/><circle cx="757.655" cy="688.392" r="4" fill="#47d193"/><circle cx="437.071" cy="670.036" r="5" fill="#196643"/><circle cx="666.769" cy="674.222" r="4" fill="#47d193"/><circle cx="536.567" cy="560.938" r="1" fill="#1c1c1c"/><circle cx="638.305" cy="598.67" r="3" fill="#196643"/><circle cx="649.035" cy="513.471" r="1" fill="#0f3d28"/><circle cx="454.558" cy="523.273" r="2" fill="#05140d"/><circle cx="506.176" cy="521.033" r="3" fill="#1c1c1c"/><circle cx="692.395" cy="429.658" r="4" fill="#248f5e"/><circle cx="529.539" cy="571.835" r="5" fill="#1c1c1c"/><circle cx="399.981" cy="448.585" r="4" fill="#05140d"/><circle cx="673.099" cy="411.275" r="3" fill="#196643"/><circle cx="279.218" cy="604.483" r="2" fill="#47d193"/><circle cx="766.412" cy="170.018" r="2" fill="#99e6c3"/><circle cx="432.277" cy="226.669" r="5" fill="#47d193"/><circle cx="344.799" cy="393.932" r="4" fill="#196643"/><circle cx="481.171" cy="470.023" r="4" fill="#1c1c1c"/><circle cx="358.434" cy="573.76" r="3" fill="#196643"/><circle cx="515.488" cy="443.696" r="3" fill="#1c1c1c"/><circle cx="487.203" cy="678.009" r="3" fill="#196643"/><circle cx="429.835" cy="578.182" r="4" fill="#05140d"/><circle cx="754.722" cy="601.73" r="4" fill="#47d193"/><circle cx="348.081" cy="610.276" r="4" fill="#196643"/><circle cx="413.445" cy="539.626" r="5" fill="#05140d"/><circle cx="525.587" cy="544.745" r="5" fill="#1c1c1c"/><circle cx="484.541" cy="453.611" r="5" fill="#1c1c1c"/><circle cx="653.189" cy="539.627" r="4" fill="#0f3d28"/><circle cx="648.666" cy="402.843" r="3" fill="#196643"/><circle cx="494.185" cy="712.909" r="1" fill="#248f5e"/><circle cx="471.706" cy="447.946" r="5" fill="#1c1c1c"/><circle cx="524.82" cy="716.936" r="2" fill="#248f5e"/><circle cx="470.576" cy="290.877" r="5" fill="#248f5e"/><circle cx="723.786" cy="353.816" r="4" fill="#47d193"/><circle cx="828.669" cy="488.976" r="2" fill="#99e6c3"/><circle cx="425.943" cy="551.665" r="2" fill="#0f3d28"/><circle cx="332.947" cy="493.99" r="3" fill="#196643"/><circle cx="678.033" cy="182.585" r="3" fill="#99e6c3"/><circle cx="489.288" cy="447.23" r="3" fill="#1c1c1c"/><circle cx="397.801" cy="349.486" r="3" fill="#196643"/><circle cx="681.514" cy="466.291" r="1" fill="#196643"/><circle cx="428.932" cy="732.338" r="4" fill="#47d193"/><circle cx="501.879" cy="296.067" r="2" fill="#248f5e"/><circle cx="612.065" cy="586.32" r="3" fill="#196643"/><circle cx="230.554" cy="716.844" r="1" fill="#99e6c3"/><circle cx="159.562" cy="766.532" r="4" fill="#99e6c3"/><circle cx="359.02" cy="573.79" r="4" fill="#05140d"/><circle cx="702.268" cy="544.101" r="3" fill="#2eb879"/><circle cx="490.848" cy="253.759" r="1" fill="#47d193"/><circle cx="535.583" cy="644.936" r="1" fill="#0f3d28"/><circle cx="280.581" cy="441.073" r="4" fill="#248f5e"/><circle cx="581.514" cy="825.464" r="4" fill="#99e6c3"/><circle cx="364.453" cy="691.055" r="4" fill="#248f5e"/><circle cx="496.347" cy="195.406" r="5" fill="#47d193"/><circle cx="529.767" cy="449.638" r="4" fill="#1c1c1c"/><circle cx="451.684" cy="812.451" r="2" fill="#47d193"/><circle cx="590.005" cy="430.295" r="1" fill="#05140d"/><circle cx="690.799" cy="561.316" r="4" fill="#248f5e"/><circle cx="688.756" cy="422.594" r="1" fill="#196643"/><circle cx="480.801" cy="250.991" r="2" fill="#47d193"/><circle cx="511.385" cy="627.005" r="5" fill="#0f3d28"/><circle cx="322.57" cy="645.382" r="1" fill="#196643"/><circle cx="565.434" cy="544.156" r="1" fill="#1c1c1c"/><circle cx="546.899" cy="713.55" r="1" fill="#2eb879"/><circle cx="737.93" cy="807.03" r="2" fill="#99e6c3"/><circle cx="541.783" cy="636.401" r="4" fill="#0f3d28"/><circle cx="650.735" cy="493.504" r="5" fill="#0f3d28"/><circle cx="558.612" cy="506.527" r="3" fill="#1c1c1c"/><circle cx="785.719" cy="602.403" r="5" fill="#47d193"/><circle cx="624.103" cy="559.804" r="4" fill="#0f3d28"/><circle cx="767.33" cy="578.851" r="5" fill="#47d193"/><circle cx="691.166" cy="424.081" r="2" fill="#248f5e"/><circle cx="328.216" cy="182.321" r="3" fill="#99e6c3"/><circle cx="293.141" cy="634.976" r="4" fill="#47d193"/><circle cx="301.403" cy="451.3" r="4" fill="#248f5e"/><circle cx="670.181" cy="686.707" r="4" fill="#47d193"/><circle cx="309.327" cy="826.141" r="2" fill="#99e6c3"/><circle cx="349.172" cy="506.876" r="2" fill="#0f3d28"/><circle cx="429.837" cy="596.452" r="2" fill="#05140d"/><circle cx="418.774" cy="660.264" r="5" fill="#196643"/><circle cx="511.941" cy="750.362" r="4" fill="#2eb879"/><circle cx="265.211" cy="337.071" r="3" fill="#47d193"/><circle cx="579.409" cy="518.901" r="2" fill="#1c1c1c"/><circle cx="582.914" cy="269.558" r="3" fill="#47d193"/><circle cx="434.282" cy="344.77" r="1" fill="#248f5e"/><circle cx="566.886" cy="857.042" r="4" fill="#99e6c3"/><circle cx="606.934" cy="540.466" r="4" fill="#0f3d28"/><circle cx="669.799" cy="484.639" r="1" fill="#196643"/><circle cx="733.211" cy="537.884" r="1" fill="#248f5e"/><circle cx="543.309" cy="403.403" r="3" fill="#05140d"/><circle cx="280.761" cy="501.505" r="3" fill="#248f5e"/><circle cx="470.689" cy="425.825" r="5" fill="#1c1c1c"/><circle cx="508.605" cy="671.248" r="4" fill="#0f3d28"/><circle cx="667.656" cy="482.469" r="4" fill="#196643"/><circle cx="504.501" cy="639.899" r="4" fill="#0f3d28"/><circle cx="650.363" cy="312.327" r="1" fill="#47d193"/><circle cx="419.792" cy="256.101" r="3" fill="#47d193"/><circle cx="531.812" cy="252.552" r="5" fill="#47d193"/><circle cx="494.511" cy="544.468" r="1" fill="#1c1c1c"/><circle cx="258.37" cy="290.566" r="3" fill="#47d193"/><circle cx="508.323" cy="451.126" r="1" fill="#05140d"/><circle cx="412.201" cy="388.615" r="4" fill="#0f3d28"/><circle cx="548.458" cy="885.997" r="2" fill="#99e6c3"/><circle cx="585.648" cy="500.52" r="1" fill="#05140d"/><circle cx="118.067" cy="558.77" r="5" fill="#99e6c3"/><circle cx="403.425" cy="380.925" r="3" fill="#0f3d28"/><circle cx="376.532" cy="529.326" r="4" fill="#196643"/><circle cx="584.954" cy="409.044" r="2" fill="#0f3d28"/><circle cx="351.171" cy="484.196" r="4" fill="#0f3d28"/><circle cx="545.824" cy="834.751" r="1" fill="#99e6c3"/><circle cx="436.912" cy="323.32" r="5" fill="#196643"/><circle cx="567.751" cy="373.452" r="3" fill="#0f3d28"/><circle cx="429.615" cy="334.705" r="3" fill="#196643"/><circle cx="309.473" cy="518.132" r="5" fill="#196643"/><circle cx="439.873" cy="755.918" r="5" fill="#47d193"/><circle cx="461.363" cy="364.226" r="4" fill="#0f3d28"/><circle cx="522.983" cy="539.773" r="1" fill="#1c1c1c"/><circle cx="533.103" cy="417.143" r="4" fill="#05140d"/><circle cx="446.862" cy="401.739" r="5" fill="#05140d"/><circle cx="417.113" cy="425.488" r="5" fill="#05140d"/><circle cx="60.065" cy="377.135" r="4" fill="#99e6c3"/><circle cx="549.133" cy="416.476" r="5" fill="#05140d"/><circle cx="464.42" cy="647.749" r="2" fill="#0f3d28"/><circle cx="443.027" cy="743.124" r="4" fill="#47d193"/><circle cx="280.258" cy="512.5" r="5" fill="#248f5e"/><circle cx="459.012" cy="658.386" r="2" fill="#196643"/><circle cx="568.36" cy="575.947" r="3" fill="#05140d"/><circle cx="497.032" cy="307.866" r="2" fill="#196643"/><circle cx="455.515" cy="659.267" r="3" fill="#248f5e"/><circle cx="570.12" cy="440.419" r="2" fill="#0f3d28"/><circle cx="570.098" cy="572.816" r="1" fill="#05140d"/><circle cx="633.049" cy="540.642" r="4" fill="#0f3d28"/><circle cx="408.368" cy="18.468" r="5" fill="#99e6c3"/><circle cx="548.106" cy="536.867" r="1" fill="#1c1c1c"/><circle cx="688.026" cy="498.3" r="5" fill="#196643"/><circle cx="628.461" cy="370.498" r="4" fill="#196643"/><circle cx="433.826" cy="744.002" r="2" fill="#47d193"/><circle cx="415.747" cy="561.499" r="2" fill="#0f3d28"/><circle cx="342.852" cy="581.354" r="4" fill="#196643"/><circle cx="413.849" cy="589.565" r="4" fill="#0f3d28"/><circle cx="378.895" cy="557.946" r="5" fill="#05140d"/><circle cx="494.939" cy="339.843" r="5" fill="#196643"/><circle cx="413.419" cy="627.89" r="5" fill="#05140d"/><circle cx="285.214" cy="751.678" r="3" fill="#99e6c3"/><circle cx="468.51" cy="566.294" r="5" fill="#1c1c1c"/><circle cx="305.643" cy="539.212" r="3" fill="#196643"/><circle cx="726.576" cy="529.826" r="5" fill="#248f5e"/><circle cx="668.241" cy="559.871" r="2" fill="#196643"/><circle cx="557.67" cy="168.241" r="5" fill="#99e6c3"/><circle cx="555.057" cy="517.025" r="4" fill="#05140d"/><circle cx="511.093" cy="638.818" r="3" fill="#0f3d28"/><circle cx="775.581" cy="476.259" r="4" fill="#47d193"/><circle cx="566.845" cy="672.487" r="4" fill="#196643"/><circle cx="269.404" cy="507.212" r="2" fill="#196643"/><circle cx="476.56" cy="629.932" r="3" fill="#0f3d28"/><circle cx="498.399" cy="521.829" r="4" fill="#1c1c1c"/><circle cx="695.638" cy="574.14" r="2" fill="#248f5e"/><circle cx="653.21" cy="282.492" r="3" fill="#47d193"/><circle cx="384.714" cy="340.402" r="5" fill="#196643"/><circle cx="340.976" cy="494.254" r="3" fill="#0f3d28"/><circle cx="585.64" cy="522.147" r="1" fill="#1c1c1c"/><circle cx="445.783" cy="549.869" r="1" fill="#1c1c1c"/><circle cx="197.675" cy="213.415" r="2" fill="#99e6c3"/><circle cx="639.138" cy="557.666" r="5" fill="#0f3d28"/><circle cx="267.707" cy="681.625" r="3" fill="#47d193"/><circle cx="597.114" cy="502.487" r="3" fill="#1c1c1c"/><circle cx="391.166" cy="703.201" r="1" fill="#248f5e"/><circle cx="566.337" cy="389.951" r="5" fill="#0f3d28"/><circle cx="472.597" cy="562.13" r="2" fill="#05140d"/><circle cx="362.488" cy="638.394" r="2" fill="#196643"/><circle cx="342.495" cy="481.406" r="3" fill="#05140d"/><circle cx="300.317" cy="226.924" r="3" fill="#47d193"/><circle cx="641.314" cy="818.153" r="2" fill="#99e6c3"/><circle cx="488.203" cy="416.189" r="4" fill="#05140d"/><circle cx="403.158" cy="534.259" r="1" fill="#05140d"/><circle cx="299.987" cy="428.789" r="5" fill="#248f5e"/><circle cx="558.599" cy="483.428" r="4" fill="#1c1c1c"/><circle cx="684.471" cy="567.524" r="4" fill="#196643"/><circle cx="282.822" cy="379.181" r="1" fill="#47d193"/><circle cx="174.961" cy="585.352" r="5" fill="#99e6c3"/><circle cx="409.849" cy="444.536" r="4" fill="#0f3d28"/><circle cx="490.346" cy="768.693" r="1" fill="#47d193"/><circle cx="614.774" cy="538.52" r="1" fill="#0f3d28"/><circle cx="435.161" cy="598.928" r="1" fill="#1c1c1c"/><circle cx="529.128" cy="376.528" r="3" fill="#196643"/><circle cx="288.021" cy="863.488" r="1" fill="#99e6c3"/><circle cx="573.69" cy="637.046" r="2" fill="#0f3d28"/><circle cx="446.852" cy="596.871" r="3" fill="#0f3d28"/><circle cx="469.742" cy="337.442" r="1" fill="#196643"/><circle cx="543.719" cy="555.173" r="2" fill="#1c1c1c"/><circle cx="538.374" cy="561.352" r="1" fill="#05140d"/><circle cx="506.919" cy="662.613" r="4" fill="#248f5e"/><circle cx="570.611" cy="428.035" r="1" fill="#05140d"/><circle cx="534.645" cy="605.895" r="1" fill="#05140d"/><circle cx="765.468" cy="808.663" r="3" fill="#99e6c3"/><circle cx="417.225" cy="344.397" r="2" fill="#196643"/><circle cx="507.623" cy="392.357" r="5" fill="#1c1c1c"/><circle cx="399.773" cy="449.17" r="1" fill="#0f3d28"/><circle cx="471.432" cy="651.816" r="3" fill="#0f3d28"/><circle cx="568.292" cy="632.513" r="3" fill="#0f3d28"/><circle cx="204.528" cy="594.783" r="2" fill="#47d193"/><circle cx="172.705" cy="362.815" r="1" fill="#99e6c3"/><circle cx="659.887" cy="682.556" r="4" fill="#47d193"/><circle cx="465.65" cy="760.522" r="3" fill="#47d193"/><circle cx="550.375" cy="641.209" r="1" fill="#0f3d28"/><circle cx="599.962" cy="212.276" r="2" fill="#47d193"/><circle cx="570.206" cy="639.675" r="1" fill="#05140d"/><circle cx="485.011" cy="291.784" r="5" fill="#248f5e"/><circle cx="618.884" cy="704.107" r="1" fill="#248f5e"/><circle cx="621.251" cy="330.835" r="3" fill="#248f5e"/><circle cx="380.534" cy="401.952" r="2" fill="#196643"/><circle cx="199.134" cy="270.054" r="5" fill="#99e6c3"/><circle cx="433.467" cy="784.446" r="1" fill="#47d193"/><circle cx="245.853" cy="687.276" r="1" fill="#47d193"/><circle cx="517.568" cy="393.248" r="3" fill="#05140d"/><circle cx="516.092" cy="556.565" r="1" fill="#1c1c1c"/><circle cx="368.945" cy="727.032" r="1" fill="#47d193"/><circle cx="489.369" cy="511.438" r="2" fill="#05140d"/><circle cx="461.338" cy="541.913" r="4" fill="#1c1c1c"/><circle cx="433.581" cy="558.996" r="4" fill="#05140d"/><circle cx="339.368" cy="522.953" r="4" fill="#196643"/><circle cx="652.242" cy="307.68" r="3" fill="#2eb879"/><circle cx="847.427" cy="496.068" r="1" fill="#99e6c3"/><circle cx="339.24" cy="550.843" r="1" fill="#196643"/><circle cx="545.168" cy="216.285" r="4" fill="#47d193"/><circle cx="423.973" cy="495.316" r="5" fill="#05140d"/><circle cx="467.792" cy="643.126" r="2" fill="#0f3d28"/><circle cx="676.116" cy="693.864" r="3" fill="#47d193"/><circle cx="624.51" cy="566.247" r="4" fill="#0f3d28"/><circle cx="391.735" cy="354.353" r="4" fill="#196643"/><circle cx="325.131" cy="530.783" r="4" fill="#248f5e"/><circle cx="508.282" cy="449.457" r="1" fill="#1c1c1c"/><circle cx="293.744" cy="141.943" r="2" fill="#99e6c3"/><circle cx="525.249" cy="538.33" r="4" fill="#1c1c1c"/><circle cx="327.214" cy="659.09" r="4" fill="#196643"/><circle cx="657.208" cy="601.306" r="4" fill="#196643"/><circle cx="557.532" cy="612.713" r="2" fill="#0f3d28"/><circle cx="449.94" cy="481.571" r="4" fill="#05140d"/><circle cx="250.766" cy="588.628" r="1" fill="#47d193"/><circle cx="450.297" cy="453.456" r="2" fill="#1c1c1c"/><circle cx="348.054" cy="358.925" r="2" fill="#248f5e"/><circle cx="535.254" cy="611.346" r="4" fill="#05140d"/><circle cx="743.395" cy="253.369" r="2" fill="#99e6c3"/><circle cx="479.589" cy="571.039" r="4" fill="#1c1c1c"/><circle cx="465.515" cy="438.522" r="1" fill="#1c1c1c"/><circle cx="517.183" cy="590.998" r="5" fill="#05140d"/><circle cx="249.884" cy="529.823" r="2" fill="#47d193"/><circle cx="493.173" cy="407.088" r="4" fill="#05140d"/><circle cx="456.063" cy="475.748" r="3" fill="#1c1c1c"/><circle cx="588.15" cy="232.566" r="3" fill="#47d193"/><circle cx="461.829" cy="533.698" r="1" fill="#1c1c1c"/><circle cx="491.918" cy="283.559" r="2" fill="#248f5e"/><circle cx="523.662" cy="535.894" r="5" fill="#1c1c1c"/><circle cx="643.181" cy="559.563" r="2" fill="#0f3d28"/><circle cx="546.042" cy="713.55" r="2" fill="#248f5e"/><circle cx="639.513" cy="285.539" r="5" fill="#47d193"/><circle cx="590.682" cy="585.336" r="3" fill="#0f3d28"/><circle cx="757.939" cy="541.471" r="4" fill="#47d193"/><circle cx="356.888" cy="446.153" r="2" fill="#0f3d28"/><circle cx="656.428" cy="355.538" r="2" fill="#2eb879"/><circle cx="644.944" cy="324.119" r="1" fill="#248f5e"/><circle cx="433.821" cy="610.16" r="1" fill="#05140d"/><circle cx="592.107" cy="660.845" r="5" fill="#248f5e"/><circle cx="404.466" cy="439.163" r="3" fill="#1c1c1c"/><circle cx="506.552" cy="494.561" r="1" fill="#05140d"/><circle cx="437.487" cy="231.956" r="2" fill="#47d193"/><circle cx="504.532" cy="364.44" r="5" fill="#0f3d28"/><circle cx="637.959" cy="416.602" r="5" fill="#196643"/><circle cx="395.587" cy="765.951" r="5" fill="#47d193"/><circle cx="540.178" cy="765.092" r="3" fill="#47d193"/><circle cx="537.515" cy="254.816" r="5" fill="#47d193"/><circle cx="386.628" cy="354.842" r="4" fill="#196643"/><circle cx="445.041" cy="591.182" r="2" fill="#05140d"/><circle cx="374.478" cy="650.325" r="4" fill="#196643"/><circle cx="638.451" cy="584.301" r="2" fill="#196643"/><circle cx="477.54" cy="686.19" r="5" fill="#196643"/></svg>