<svg id="mySVG" width="1000" height="1000"><circle cx="672.565" cy="445.976" r="5" fill="#196643"/><circle cx="532.179" cy="538.152" r="3" fill="#1c1c1c"/><circle cx="433" cy="531.942" r="4" fill="#1c1c1c"/><circle cx="545.546" cy="616.8" r="2" fill="#0f3d28"/><circle cx="511.908" cy="417.802" r="3" fill="#05140d"/><circle cx="700.753" cy="345.8" r="4" fill="#47d193"/><circle cx="433.525" cy="423.654" r="4" fill="#05140d"/><circle cx="574.525" cy="443.122" r="5" fill="#0f3d28"/><circle cx="512.644" cy="548.477" r="5" fill="#1c1c1c"/><circle cx="445.254" cy="597.123" r="3" fill="#05140d"/><circle cx="348.202" cy="221.468" r="4" fill="#47d193"/><circle cx="479.089" cy="430.979" r="3" fill="#1c1c1c"/><circle cx="243.768" cy="407.865" r="1" fill="#47d193"/><circle cx="517.584" cy="525.169" r="3" fill="#05140d"/><circle cx="422.468" cy="555.593" r="1" fill="#05140d"/><circle cx="539.616" cy="548.511" r="4" fill="#1c1c1c"/><circle cx="632.468" cy="598.156" r="2" fill="#196643"/><circle cx="419.443" cy="433.091" r="2" fill="#1c1c1c"/><circle cx="513.21" cy="589.573" r="1" fill="#05140d"/><circle cx="628.457" cy="524.114" r="5" fill="#0f3d28"/><circle cx="490.968" cy="591.378" r="2" fill="#1c1c1c"/><circle cx="431.023" cy="682.06" r="3" fill="#196643"/><circle cx="545.552" cy="573.739" r="5" fill="#05140d"/><circle cx="574.051" cy="484.501" r="1" fill="#1c1c1c"/><circle cx="617.184" cy="546.29" r="5" fill="#0f3d28"/><circle cx="674.223" cy="338.623" r="2" fill="#2eb879"/><circle cx="384.938" cy="425.485" r="3" fill="#0f3d28"/><circle cx="455.844" cy="409.106" r="1" fill="#05140d"/><circle cx="430.006" cy="396.985" r="4" fill="#0f3d28"/><circle cx="568.838" cy="535.738" r="4" fill="#05140d"/><circle cx="476.712" cy="306.773" r="3" fill="#196643"/><circle cx="531.119" cy="571.185" r="4" fill="#1c1c1c"/><circle cx="413.542" cy="491.405" r="3" fill="#05140d"/><circle cx="723.682" cy="504.543" r="1" fill="#196643"/><circle cx="553.958" cy="627.634" r="5" fill="#0f3d28"/><circle cx="317.514" cy="559.399" r="4" fill="#0f3d28"/><circle cx="585.042" cy="435.005" r="1" fill="#05140d"/><circle cx="466.67" cy="579.604" r="5" fill="#05140d"/><circle cx="503.81" cy="330.944" r="4" fill="#196643"/><circle cx="681.294" cy="479.68" r="5" fill="#0f3d28"/><circle cx="605.154" cy="598.213" r="3" fill="#0f3d28"/><circle cx="552.424" cy="417.528" r="1" fill="#05140d"/><circle cx="413.383" cy="677.144" r="4" fill="#196643"/><circle cx="462.56" cy="613.269" r="3" fill="#05140d"/><circle cx="521.93" cy="539.318" r="2" fill="#1c1c1c"/><circle cx="464.976" cy="472.825" r="3" fill="#05140d"/><circle cx="420.806" cy="542.855" r="3" fill="#05140d"/><circle cx="415.21" cy="465.729" r="5" fill="#05140d"/><circle cx="577.946" cy="596.79" r="2" fill="#0f3d28"/><circle cx="547.624" cy="254.957" r="4" fill="#47d193"/><circle cx="374.592" cy="441.94" r="5" fill="#0f3d28"/><circle cx="572.091" cy="512.142" r="3" fill="#05140d"/><circle cx="584.673" cy="486.356" r="1" fill="#05140d"/><circle cx="454.881" cy="429.578" r="1" fill="#05140d"/><circle cx="433.578" cy="417.932" r="3" fill="#05140d"/><circle cx="477.801" cy="494.421" r="3" fill="#05140d"/><circle cx="453.251" cy="631.415" r="4" fill="#05140d"/><circle cx="452.937" cy="578.073" r="4" fill="#05140d"/><circle cx="523.05" cy="598.328" r="5" fill="#0f3d28"/><circle cx="523.302" cy="463.934" r="1" fill="#1c1c1c"/><circle cx="449.346" cy="429.541" r="5" fill="#05140d"/><circle cx="438.629" cy="498.071" r="5" fill="#1c1c1c"/><circle cx="416.849" cy="495.888" r="3" fill="#0f3d28"/><circle cx="450.279" cy="598.421" r="4" fill="#05140d"/><circle cx="386.146" cy="480.313" r="4" fill="#1c1c1c"/><circle cx="396.933" cy="583.704" r="2" fill="#0f3d28"/><circle cx="388.977" cy="516.276" r="5" fill="#05140d"/><circle cx="563.258" cy="337.397" r="1" fill="#196643"/><circle cx="512.535" cy="230.868" r="2" fill="#47d193"/><circle cx="523.941" cy="549.973" r="5" fill="#1c1c1c"/><circle cx="466.071" cy="470.4" r="3" fill="#1c1c1c"/><circle cx="586.348" cy="393.868" r="4" fill="#05140d"/><circle cx="659.55" cy="522.641" r="2" fill="#196643"/><circle cx="476.379" cy="623.846" r="1" fill="#196643"/><circle cx="487.246" cy="345.836" r="3" fill="#0f3d28"/><circle cx="426.616" cy="364.705" r="4" fill="#0f3d28"/><circle cx="523.57" cy="381.8" r="5" fill="#0f3d28"/><circle cx="412.084" cy="676.668" r="5" fill="#196643"/><circle cx="589.853" cy="502.607" r="5" fill="#05140d"/><circle cx="330.724" cy="497.564" r="3" fill="#196643"/><circle cx="638.234" cy="728.24" r="2" fill="#47d193"/><circle cx="521.692" cy="494.222" r="5" fill="#1c1c1c"/><circle cx="318.15" cy="548.722" r="3" fill="#0f3d28"/><circle cx="477.792" cy="465.286" r="4" fill="#1c1c1c"/><circle cx="571.933" cy="365.076" r="2" fill="#0f3d28"/><circle cx="398.066" cy="381.599" r="1" fill="#0f3d28"/><circle cx="484.019" cy="555.688" r="5" fill="#1c1c1c"/><circle cx="561.496" cy="479.659" r="2" fill="#1c1c1c"/><circle cx="484.589" cy="579.708" r="4" fill="#05140d"/><circle cx="637.373" cy="449.619" r="1" fill="#0f3d28"/><circle cx="551.878" cy="665.318" r="4" fill="#0f3d28"/><circle cx="475.472" cy="420.246" r="1" fill="#05140d"/><circle cx="506.521" cy="601.037" r="5" fill="#05140d"/><circle cx="621.893" cy="461.113" r="1" fill="#0f3d28"/><circle cx="368.353" cy="474.686" r="4" fill="#0f3d28"/><circle cx="623.473" cy="471.721" r="1" fill="#0f3d28"/><circle cx="422.639" cy="611.363" r="3" fill="#0f3d28"/><circle cx="628.337" cy="272.736" r="3" fill="#2eb879"/><circle cx="617.698" cy="646.476" r="3" fill="#196643"/><circle cx="627.913" cy="532.987" r="5" fill="#196643"/><circle cx="288.283" cy="499.447" r="3" fill="#248f5e"/><circle cx="586.211" cy="503.777" r="2" fill="#05140d"/><circle cx="574.5" cy="406.1" r="5" fill="#05140d"/><circle cx="517.506" cy="531.969" r="4" fill="#1c1c1c"/><circle cx="345.891" cy="467.218" r="1" fill="#0f3d28"/><circle cx="634.848" cy="543.603" r="4" fill="#05140d"/><circle cx="556.817" cy="537.778" r="1" fill="#05140d"/><circle cx="549.441" cy="343.096" r="5" fill="#0f3d28"/><circle cx="400.812" cy="733.083" r="5" fill="#47d193"/><circle cx="366.707" cy="324.688" r="4" fill="#248f5e"/><circle cx="361.049" cy="372.077" r="3" fill="#196643"/><circle cx="446.379" cy="465.944" r="5" fill="#1c1c1c"/><circle cx="474.076" cy="658.382" r="5" fill="#196643"/><circle cx="611.157" cy="390.967" r="1" fill="#0f3d28"/><circle cx="464.162" cy="430.197" r="3" fill="#1c1c1c"/><circle cx="469.522" cy="519.877" r="2" fill="#05140d"/><circle cx="385.002" cy="611.741" r="3" fill="#196643"/><circle cx="553.007" cy="504.264" r="1" fill="#1c1c1c"/><circle cx="464.99" cy="593.002" r="3" fill="#05140d"/><circle cx="409.685" cy="557.829" r="4" fill="#05140d"/><circle cx="458.479" cy="748.018" r="3" fill="#47d193"/><circle cx="587.442" cy="395.229" r="3" fill="#0f3d28"/><circle cx="488.793" cy="615.789" r="5" fill="#05140d"/><circle cx="616.153" cy="532.984" r="1" fill="#0f3d28"/><circle cx="366.72" cy="539.761" r="2" fill="#0f3d28"/><circle cx="262.206" cy="601.441" r="2" fill="#47d193"/><circle cx="389.393" cy="498.725" r="1" fill="#0f3d28"/><circle cx="625.599" cy="248.002" r="3" fill="#47d193"/><circle cx="577.96" cy="496.714" r="5" fill="#1c1c1c"/><circle cx="622.829" cy="486.827" r="5" fill="#0f3d28"/><circle cx="473.478" cy="431.671" r="3" fill="#1c1c1c"/><circle cx="435.311" cy="543.322" r="3" fill="#1c1c1c"/><circle cx="548.668" cy="428.633" r="4" fill="#05140d"/><circle cx="464.167" cy="463.043" r="4" fill="#1c1c1c"/><circle cx="412.873" cy="357.161" r="4" fill="#248f5e"/><circle cx="459.966" cy="370.113" r="1" fill="#0f3d28"/><circle cx="481.243" cy="531.756" r="4" fill="#1c1c1c"/><circle cx="569.337" cy="426.363" r="4" fill="#0f3d28"/><circle cx="464.16" cy="550.696" r="2" fill="#1c1c1c"/><circle cx="518.886" cy="550.634" r="4" fill="#1c1c1c"/><circle cx="406.882" cy="409.524" r="4" fill="#0f3d28"/><circle cx="456.135" cy="462.564" r="5" fill="#05140d"/><circle cx="350.571" cy="592.573" r="3" fill="#196643"/><circle cx="393.695" cy="625.342" r="2" fill="#196643"/><circle cx="587.013" cy="495.293" r="5" fill="#05140d"/><circle cx="465.422" cy="550.743" r="4" fill="#1c1c1c"/><circle cx="355.988" cy="498.943" r="2" fill="#196643"/><circle cx="622.189" cy="474.274" r="2" fill="#0f3d28"/><circle cx="601.659" cy="623.379" r="3" fill="#0f3d28"/><circle cx="486.289" cy="448.109" r="5" fill="#1c1c1c"/><circle cx="486.611" cy="435.072" r="2" fill="#1c1c1c"/><circle cx="510.363" cy="558.915" r="5" fill="#1c1c1c"/><circle cx="396.576" cy="392.564" r="2" fill="#0f3d28"/><circle cx="817.444" cy="553.974" r="2" fill="#99e6c3"/><circle cx="433.065" cy="427.43" r="3" fill="#05140d"/><circle cx="431.779" cy="646.336" r="5" fill="#196643"/><circle cx="447.537" cy="572.399" r="3" fill="#05140d"/><circle cx="523.107" cy="545.578" r="4" fill="#1c1c1c"/><circle cx="458.641" cy="510.678" r="4" fill="#1c1c1c"/><circle cx="408.614" cy="385.036" r="1" fill="#0f3d28"/><circle cx="686.275" cy="719.121" r="4" fill="#47d193"/><circle cx="549.565" cy="397.636" r="1" fill="#05140d"/><circle cx="575.24" cy="445.153" r="2" fill="#05140d"/><circle cx="471.705" cy="564.635" r="1" fill="#05140d"/><circle cx="490.039" cy="601.325" r="2" fill="#05140d"/><circle cx="653.58" cy="647.855" r="5" fill="#248f5e"/><circle cx="569.127" cy="547.421" r="3" fill="#05140d"/><circle cx="467.702" cy="521.365" r="4" fill="#05140d"/><circle cx="564.946" cy="722.741" r="1" fill="#248f5e"/><circle cx="805.871" cy="663.762" r="3" fill="#99e6c3"/><circle cx="514.131" cy="439.172" r="2" fill="#1c1c1c"/><circle cx="368.32" cy="521.943" r="3" fill="#0f3d28"/><circle cx="536.133" cy="386.821" r="5" fill="#0f3d28"/><circle cx="596.769" cy="413.578" r="1" fill="#0f3d28"/><circle cx="586.646" cy="481.889" r="5" fill="#05140d"/><circle cx="477.144" cy="516.015" r="4" fill="#1c1c1c"/><circle cx="476.465" cy="638.568" r="5" fill="#0f3d28"/><circle cx="552.522" cy="528.719" r="1" fill="#05140d"/><circle cx="532.83" cy="483.576" r="4" fill="#05140d"/><circle cx="631.021" cy="298.243" r="3" fill="#47d193"/><circle cx="636.79" cy="290.425" r="4" fill="#47d193"/><circle cx="473.765" cy="593.517" r="5" fill="#05140d"/><circle cx="381.727" cy="327.88" r="5" fill="#248f5e"/><circle cx="397.957" cy="544.4" r="5" fill="#05140d"/><circle cx="409.306" cy="375.623" r="4" fill="#05140d"/><circle cx="481.745" cy="582.028" r="4" fill="#0f3d28"/><circle cx="661.645" cy="595.348" r="5" fill="#196643"/><circle cx="531.647" cy="546.574" r="5" fill="#1c1c1c"/><circle cx="407.66" cy="634.795" r="5" fill="#196643"/><circle cx="322.268" cy="332.678" r="5" fill="#47d193"/><circle cx="658.438" cy="385.884" r="4" fill="#0f3d28"/><circle cx="433.007" cy="522.49" r="1" fill="#1c1c1c"/><circle cx="433.208" cy="431.291" r="2" fill="#05140d"/><circle cx="598.076" cy="672.386" r="3" fill="#196643"/><circle cx="660.067" cy="302.037" r="5" fill="#47d193"/><circle cx="468.032" cy="422.785" r="4" fill="#05140d"/><circle cx="667.565" cy="315.82" r="2" fill="#47d193"/><circle cx="603.564" cy="497.304" r="4" fill="#05140d"/><circle cx="568.022" cy="451.877" r="2" fill="#05140d"/><circle cx="639.738" cy="455.643" r="3" fill="#0f3d28"/><circle cx="333.074" cy="527.836" r="2" fill="#196643"/><circle cx="584.745" cy="446.217" r="4" fill="#1c1c1c"/><circle cx="468.176" cy="586.589" r="3" fill="#05140d"/><circle cx="379.197" cy="561.873" r="5" fill="#0f3d28"/><circle cx="340.236" cy="658.179" r="3" fill="#248f5e"/><circle cx="468.793" cy="431.583" r="1" fill="#05140d"/><circle cx="466.122" cy="244.883" r="5" fill="#47d193"/><circle cx="498.185" cy="468.457" r="1" fill="#05140d"/><circle cx="440.005" cy="474.966" r="4" fill="#1c1c1c"/><circle cx="487.953" cy="479.513" r="3" fill="#05140d"/><circle cx="568.194" cy="448.204" r="3" fill="#05140d"/><circle cx="555.999" cy="496.465" r="4" fill="#1c1c1c"/><circle cx="631.338" cy="422.258" r="2" fill="#0f3d28"/><circle cx="470.184" cy="654.989" r="5" fill="#05140d"/><circle cx="573.823" cy="627.826" r="5" fill="#0f3d28"/><circle cx="206.727" cy="558.619" r="5" fill="#47d193"/><circle cx="407.312" cy="405.085" r="1" fill="#0f3d28"/><circle cx="403.185" cy="568.712" r="2" fill="#05140d"/><circle cx="362.94" cy="503.023" r="1" fill="#0f3d28"/><circle cx="557.646" cy="385.432" r="1" fill="#196643"/><circle cx="496.135" cy="471.97" r="5" fill="#1c1c1c"/><circle cx="162.132" cy="329.794" r="1" fill="#99e6c3"/><circle cx="518.844" cy="559.556" r="3" fill="#05140d"/><circle cx="455.643" cy="399.701" r="4" fill="#05140d"/><circle cx="508.009" cy="502.31" r="1" fill="#1c1c1c"/><circle cx="232.289" cy="418.443" r="1" fill="#47d193"/><circle cx="453.404" cy="397.191" r="4" fill="#05140d"/><circle cx="348.824" cy="608.225" r="2" fill="#196643"/><circle cx="498.395" cy="485.06" r="3" fill="#1c1c1c"/><circle cx="463.017" cy="601.872" r="5" fill="#05140d"/><circle cx="286.147" cy="671.115" r="1" fill="#47d193"/><circle cx="584.819" cy="405.812" r="3" fill="#05140d"/><circle cx="286.432" cy="450.699" r="1" fill="#248f5e"/><circle cx="579.475" cy="459.273" r="2" fill="#0f3d28"/><circle cx="621.463" cy="595.551" r="1" fill="#05140d"/><circle cx="499.697" cy="409.616" r="2" fill="#05140d"/><circle cx="438.363" cy="608.692" r="5" fill="#0f3d28"/><circle cx="445.477" cy="594.487" r="5" fill="#05140d"/><circle cx="535.609" cy="383.47" r="5" fill="#0f3d28"/><circle cx="506.879" cy="412.714" r="5" fill="#05140d"/><circle cx="603.74" cy="515.929" r="5" fill="#05140d"/><circle cx="259.386" cy="292.039" r="3" fill="#47d193"/><circle cx="351.217" cy="421.075" r="3" fill="#0f3d28"/><circle cx="502.329" cy="576.446" r="2" fill="#05140d"/><circle cx="423.176" cy="669.525" r="4" fill="#196643"/><circle cx="573.911" cy="454.88" r="1" fill="#05140d"/><circle cx="466.23" cy="556.683" r="3" fill="#1c1c1c"/><circle cx="651.794" cy="510.192" r="2" fill="#196643"/><circle cx="348.23" cy="590.793" r="1" fill="#196643"/><circle cx="563.737" cy="392.449" r="3" fill="#0f3d28"/><circle cx="335.985" cy="336.67" r="2" fill="#248f5e"/><circle cx="492.46" cy="487.36" r="3" fill="#1c1c1c"/><circle cx="443.549" cy="467.028" r="2" fill="#05140d"/><circle cx="564.432" cy="451.344" r="3" fill="#05140d"/><circle cx="266.088" cy="347.264" r="2" fill="#47d193"/><circle cx="568.75" cy="480.191" r="1" fill="#1c1c1c"/><circle cx="519.928" cy="556.923" r="5" fill="#1c1c1c"/><circle cx="477.01" cy="630.84" r="5" fill="#0f3d28"/><circle cx="481.039" cy="509.962" r="5" fill="#1c1c1c"/><circle cx="502.539" cy="550.007" r="3" fill="#1c1c1c"/><circle cx="207.19" cy="461.891" r="2" fill="#47d193"/><circle cx="448.651" cy="556.811" r="5" fill="#05140d"/><circle cx="450.409" cy="673.765" r="4" fill="#196643"/><circle cx="466.758" cy="563.394" r="5" fill="#1c1c1c"/><circle cx="395.178" cy="366.381" r="3" fill="#196643"/><circle cx="361.097" cy="676.004" r="2" fill="#248f5e"/><circle cx="446.665" cy="656.291" r="2" fill="#196643"/><circle cx="538.416" cy="623.094" r="4" fill="#0f3d28"/><circle cx="490.099" cy="444.543" r="1" fill="#1c1c1c"/><circle cx="415.175" cy="364.273" r="5" fill="#248f5e"/><circle cx="523.63" cy="430.448" r="4" fill="#1c1c1c"/><circle cx="429.073" cy="391.395" r="4" fill="#196643"/><circle cx="447.037" cy="710.493" r="5" fill="#248f5e"/><circle cx="511.917" cy="290.028" r="3" fill="#2eb879"/><circle cx="232.789" cy="449.605" r="4" fill="#2eb879"/><circle cx="277.919" cy="481.196" r="5" fill="#248f5e"/><circle cx="335.534" cy="578.239" r="2" fill="#196643"/><circle cx="599.231" cy="653.061" r="1" fill="#196643"/><circle cx="515.849" cy="548.187" r="3" fill="#1c1c1c"/><circle cx="476.968" cy="567.781" r="5" fill="#1c1c1c"/><circle cx="445.558" cy="461.113" r="2" fill="#05140d"/><circle cx="579.289" cy="351.358" r="2" fill="#248f5e"/><circle cx="415.496" cy="609.262" r="5" fill="#0f3d28"/><circle cx="462.587" cy="609.719" r="1" fill="#05140d"/><circle cx="459.766" cy="404.629" r="3" fill="#1c1c1c"/><circle cx="630.118" cy="358.722" r="5" fill="#196643"/><circle cx="613.825" cy="421.103" r="3" fill="#0f3d28"/><circle cx="465.039" cy="472.99" r="3" fill="#1c1c1c"/><circle cx="435.799" cy="598.49" r="4" fill="#05140d"/><circle cx="238.31" cy="579.749" r="5" fill="#47d193"/><circle cx="449.336" cy="554.835" r="1" fill="#1c1c1c"/><circle cx="594.608" cy="498.611" r="1" fill="#05140d"/><circle cx="496.95" cy="500.443" r="4" fill="#1c1c1c"/><circle cx="438.818" cy="489.454" r="4" fill="#1c1c1c"/><circle cx="621.296" cy="521.675" r="1" fill="#05140d"/><circle cx="417.594" cy="434.627" r="3" fill="#05140d"/><circle cx="451.552" cy="419.201" r="2" fill="#05140d"/><circle cx="573.192" cy="625.637" r="5" fill="#0f3d28"/><circle cx="476.812" cy="284.525" r="5" fill="#248f5e"/><circle cx="393.463" cy="371.691" r="4" fill="#196643"/><circle cx="557.409" cy="393.031" r="2" fill="#0f3d28"/><circle cx="477.877" cy="517.616" r="5" fill="#05140d"/><circle cx="455.346" cy="552.307" r="3" fill="#1c1c1c"/><circle cx="519.95" cy="623.266" r="5" fill="#0f3d28"/><circle cx="495.544" cy="490.311" r="2" fill="#05140d"/><circle cx="509.432" cy="570.45" r="1" fill="#1c1c1c"/><circle cx="496.733" cy="472.569" r="1" fill="#05140d"/><circle cx="406.564" cy="463.028" r="3" fill="#05140d"/><circle cx="336.561" cy="575.028" r="1" fill="#196643"/><circle cx="426.426" cy="447.357" r="3" fill="#05140d"/><circle cx="603.055" cy="585.416" r="3" fill="#0f3d28"/><circle cx="431.111" cy="567.799" r="4" fill="#05140d"/><circle cx="506.862" cy="631.067" r="1" fill="#196643"/><circle cx="482.638" cy="493.769" r="5" fill="#05140d"/><circle cx="548.008" cy="473.134" r="4" fill="#1c1c1c"/><circle cx="470.873" cy="489.464" r="1" fill="#1c1c1c"/><circle cx="536.669" cy="543.111" r="1" fill="#1c1c1c"/><circle cx="562.327" cy="453.965" r="2" fill="#05140d"/><circle cx="504.242" cy="604.797" r="3" fill="#05140d"/><circle cx="481.188" cy="447.548" r="3" fill="#1c1c1c"/><circle cx="497.004" cy="595.413" r="4" fill="#1c1c1c"/><circle cx="275.687" cy="432.174" r="5" fill="#196643"/><circle cx="437.095" cy="560.221" r="4" fill="#05140d"/><circle cx="550.53" cy="537.728" r="1" fill="#1c1c1c"/><circle cx="324.694" cy="438.867" r="5" fill="#196643"/><circle cx="325.553" cy="605.201" r="5" fill="#248f5e"/><circle cx="550.899" cy="633.676" r="3" fill="#0f3d28"/><circle cx="547.734" cy="453.406" r="1" fill="#1c1c1c"/><circle cx="505.951" cy="501.57" r="3" fill="#1c1c1c"/><circle cx="390.902" cy="559.725" r="3" fill="#0f3d28"/><circle cx="337.059" cy="465.643" r="2" fill="#196643"/><circle cx="426.485" cy="578.717" r="5" fill="#05140d"/><circle cx="376.008" cy="681.846" r="4" fill="#248f5e"/><circle cx="544.795" cy="525.608" r="5" fill="#05140d"/><circle cx="411.248" cy="502.479" r="5" fill="#05140d"/><circle cx="470.913" cy="611.353" r="5" fill="#05140d"/><circle cx="670.645" cy="423.051" r="5" fill="#196643"/><circle cx="382.327" cy="402.161" r="1" fill="#05140d"/><circle cx="529.137" cy="570.561" r="5" fill="#05140d"/><circle cx="584.635" cy="653.972" r="3" fill="#0f3d28"/><circle cx="582.187" cy="470.141" r="2" fill="#05140d"/><circle cx="614.53" cy="544.863" r="2" fill="#0f3d28"/><circle cx="350.972" cy="550.836" r="3" fill="#0f3d28"/><circle cx="596.783" cy="593.652" r="5" fill="#0f3d28"/><circle cx="688.295" cy="244.839" r="5" fill="#47d193"/><circle cx="632.714" cy="632.395" r="1" fill="#196643"/><circle cx="479.778" cy="464.363" r="5" fill="#1c1c1c"/><circle cx="504.658" cy="372.594" r="5" fill="#0f3d28"/><circle cx="445.406" cy="417.124" r="2" fill="#05140d"/><circle cx="542.031" cy="590.425" r="4" fill="#1c1c1c"/><circle cx="654.766" cy="545.552" r="5" fill="#196643"/><circle cx="508.163" cy="699.574" r="5" fill="#196643"/><circle cx="666.135" cy="483.314" r="1" fill="#0f3d28"/><circle cx="553.027" cy="492.305" r="2" fill="#1c1c1c"/><circle cx="440.248" cy="572.358" r="2" fill="#05140d"/><circle cx="587.445" cy="414.574" r="4" fill="#0f3d28"/><circle cx="337.266" cy="240.802" r="4" fill="#47d193"/><circle cx="398.94" cy="588.411" r="3" fill="#0f3d28"/><circle cx="650.455" cy="666.565" r="5" fill="#248f5e"/><circle cx="329.666" cy="444.789" r="5" fill="#196643"/><circle cx="528.186" cy="578.238" r="2" fill="#05140d"/><circle cx="394.995" cy="550.172" r="3" fill="#1c1c1c"/><circle cx="465.277" cy="431.034" r="3" fill="#1c1c1c"/><circle cx="595.784" cy="471.673" r="5" fill="#05140d"/><circle cx="548.106" cy="543.638" r="5" fill="#1c1c1c"/><circle cx="651.276" cy="650.227" r="2" fill="#248f5e"/><circle cx="322.78" cy="332.226" r="1" fill="#47d193"/><circle cx="602.212" cy="447.999" r="2" fill="#05140d"/><circle cx="326.193" cy="483.71" r="5" fill="#196643"/><circle cx="495.626" cy="612.758" r="2" fill="#05140d"/><circle cx="456.881" cy="541.432" r="1" fill="#1c1c1c"/><circle cx="492.69" cy="512.306" r="3" fill="#1c1c1c"/><circle cx="635.582" cy="334.126" r="2" fill="#248f5e"/><circle cx="624.248" cy="584.387" r="1" fill="#0f3d28"/><circle cx="525.314" cy="424.011" r="2" fill="#05140d"/><circle cx="678.869" cy="512.935" r="2" fill="#196643"/><circle cx="598.487" cy="552.963" r="2" fill="#05140d"/><circle cx="729.551" cy="350.345" r="3" fill="#47d193"/><circle cx="499.871" cy="620.859" r="4" fill="#0f3d28"/><circle cx="463.855" cy="567.75" r="3" fill="#05140d"/><circle cx="437.716" cy="525.841" r="2" fill="#1c1c1c"/><circle cx="458.879" cy="301.338" r="4" fill="#248f5e"/><circle cx="484.001" cy="622.041" r="2" fill="#0f3d28"/><circle cx="663.749" cy="581.705" r="5" fill="#196643"/><circle cx="430.393" cy="485.749" r="1" fill="#05140d"/><circle cx="553.459" cy="504.44" r="2" fill="#05140d"/><circle cx="471.676" cy="464.639" r="1" fill="#1c1c1c"/><circle cx="436.066" cy="371.441" r="3" fill="#196643"/><circle cx="641.65" cy="517.747" r="5" fill="#0f3d28"/><circle cx="417.665" cy="436.765" r="1" fill="#05140d"/><circle cx="536.941" cy="426.876" r="3" fill="#05140d"/><circle cx="653.863" cy="479.575" r="4" fill="#0f3d28"/><circle cx="388.465" cy="489.991" r="3" fill="#05140d"/><circle cx="554.162" cy="429.44" r="1" fill="#05140d"/><circle cx="472.669" cy="599.204" r="4" fill="#05140d"/><circle cx="508.073" cy="592.501" r="4" fill="#1c1c1c"/><circle cx="502.945" cy="605.246" r="3" fill="#05140d"/><circle cx="587.29" cy="558.874" r="4" fill="#0f3d28"/><circle cx="551.461" cy="566.391" r="5" fill="#05140d"/><circle cx="570.84" cy="421.7" r="5" fill="#1c1c1c"/><circle cx="356.005" cy="576.3" r="3" fill="#196643"/><circle cx="472.333" cy="485.987" r="1" fill="#1c1c1c"/><circle cx="624.046" cy="373.938" r="4" fill="#248f5e"/><circle cx="805.337" cy="346.321" r="5" fill="#99e6c3"/><circle cx="621.615" cy="565.938" r="3" fill="#0f3d28"/><circle cx="387.689" cy="517.49" r="3" fill="#05140d"/><circle cx="271.719" cy="332.981" r="3" fill="#99e6c3"/><circle cx="630.317" cy="358.187" r="2" fill="#196643"/><circle cx="610.509" cy="526.493" r="3" fill="#1c1c1c"/><circle cx="417.606" cy="350.71" r="3" fill="#196643"/><circle cx="453.118" cy="597.983" r="5" fill="#1c1c1c"/><circle cx="514.051" cy="396.673" r="4" fill="#05140d"/><circle cx="258.914" cy="671.621" r="1" fill="#47d193"/><circle cx="520.231" cy="312.543" r="2" fill="#196643"/><circle cx="526.012" cy="593.847" r="5" fill="#0f3d28"/><circle cx="614.613" cy="580.88" r="1" fill="#0f3d28"/><circle cx="516.897" cy="458.873" r="3" fill="#1c1c1c"/><circle cx="535.657" cy="536.448" r="3" fill="#1c1c1c"/><circle cx="510.545" cy="639.179" r="1" fill="#0f3d28"/><circle cx="366.445" cy="503.427" r="3" fill="#0f3d28"/><circle cx="516.754" cy="556.603" r="2" fill="#05140d"/><circle cx="511.225" cy="327.323" r="1" fill="#196643"/><circle cx="349.484" cy="491.931" r="3" fill="#05140d"/><circle cx="407.539" cy="311.101" r="4" fill="#248f5e"/><circle cx="530.334" cy="487.371" r="1" fill="#05140d"/><circle cx="476.579" cy="622.72" r="4" fill="#196643"/><circle cx="541.088" cy="668.39" r="4" fill="#196643"/><circle cx="560.332" cy="522.002" r="2" fill="#1c1c1c"/><circle cx="616.465" cy="647.446" r="1" fill="#248f5e"/><circle cx="430.187" cy="473.74" r="1" fill="#1c1c1c"/><circle cx="549.923" cy="632.758" r="5" fill="#05140d"/><circle cx="554.315" cy="496.444" r="3" fill="#1c1c1c"/><circle cx="531.988" cy="477.65" r="3" fill="#1c1c1c"/><circle cx="463.241" cy="481.734" r="2" fill="#1c1c1c"/><circle cx="629.033" cy="623.951" r="3" fill="#196643"/><circle cx="575.381" cy="389.701" r="2" fill="#05140d"/><circle cx="531.778" cy="362.393" r="1" fill="#0f3d28"/><circle cx="548.377" cy="418.238" r="3" fill="#05140d"/><circle cx="507.468" cy="460.121" r="3" fill="#1c1c1c"/><circle cx="517.938" cy="491.585" r="5" fill="#1c1c1c"/><circle cx="462.151" cy="541.886" r="2" fill="#05140d"/><circle cx="642.757" cy="542.634" r="3" fill="#0f3d28"/><circle cx="410.725" cy="619.443" r="4" fill="#0f3d28"/><circle cx="386.339" cy="704.836" r="5" fill="#248f5e"/><circle cx="490.551" cy="543.055" r="4" fill="#05140d"/><circle cx="408.963" cy="600.059" r="3" fill="#0f3d28"/><circle cx="519.424" cy="210.811" r="2" fill="#47d193"/><circle cx="587.649" cy="487.973" r="5" fill="#05140d"/><circle cx="413.971" cy="440.468" r="3" fill="#05140d"/><circle cx="681.621" cy="639.039" r="5" fill="#248f5e"/><circle cx="594.246" cy="514.441" r="4" fill="#05140d"/><circle cx="609.818" cy="435.134" r="1" fill="#0f3d28"/><circle cx="465.708" cy="685.071" r="2" fill="#196643"/><circle cx="653.387" cy="392.939" r="2" fill="#196643"/><circle cx="622.743" cy="336.476" r="5" fill="#2eb879"/><circle cx="498.899" cy="399.516" r="5" fill="#1c1c1c"/><circle cx="594.576" cy="419.406" r="4" fill="#05140d"/><circle cx="317.226" cy="467.837" r="2" fill="#196643"/><circle cx="512.965" cy="668.721" r="2" fill="#196643"/><circle cx="260.068" cy="637.88" r="4" fill="#47d193"/><circle cx="488.771" cy="727.049" r="5" fill="#248f5e"/><circle cx="547.826" cy="440.619" r="5" fill="#05140d"/><circle cx="451.072" cy="598.454" r="5" fill="#05140d"/><circle cx="601.218" cy="465.277" r="5" fill="#05140d"/><circle cx="430.072" cy="617.607" r="1" fill="#0f3d28"/><circle cx="333.884" cy="578.287" r="4" fill="#0f3d28"/><circle cx="393.805" cy="613.079" r="1" fill="#0f3d28"/><circle cx="548.834" cy="573.797" r="2" fill="#05140d"/><circle cx="420.161" cy="465.091" r="5" fill="#05140d"/><circle cx="596.612" cy="629.5" r="4" fill="#196643"/><circle cx="256.863" cy="535.688" r="5" fill="#47d193"/><circle cx="392.087" cy="445.122" r="2" fill="#0f3d28"/><circle cx="656.414" cy="521.371" r="3" fill="#0f3d28"/><circle cx="482.51" cy="562.98" r="4" fill="#1c1c1c"/><circle cx="500.727" cy="465.445" r="4" fill="#1c1c1c"/><circle cx="653.754" cy="606.093" r="2" fill="#196643"/><circle cx="507.485" cy="560.368" r="2" fill="#05140d"/><circle cx="701.287" cy="469.597" r="3" fill="#2eb879"/><circle cx="627.955" cy="539.446" r="5" fill="#0f3d28"/><circle cx="470.287" cy="536.022" r="1" fill="#05140d"/><circle cx="518.494" cy="497.161" r="1" fill="#1c1c1c"/><circle cx="565.096" cy="537.233" r="4" fill="#1c1c1c"/><circle cx="459.979" cy="610.961" r="4" fill="#05140d"/><circle cx="467.683" cy="356.418" r="4" fill="#0f3d28"/><circle cx="440.317" cy="456.339" r="4" fill="#1c1c1c"/><circle cx="427.186" cy="443.651" r="1" fill="#05140d"/><circle cx="557.705" cy="434.324" r="3" fill="#05140d"/><circle cx="393.153" cy="548.881" r="1" fill="#05140d"/><circle cx="644.243" cy="473.932" r="2" fill="#0f3d28"/><circle cx="348.234" cy="412.634" r="5" fill="#196643"/><circle cx="402.861" cy="485.888" r="1" fill="#05140d"/><circle cx="529.093" cy="403.22" r="3" fill="#05140d"/><circle cx="465.964" cy="488.986" r="4" fill="#1c1c1c"/><circle cx="406.93" cy="531.15" r="5" fill="#05140d"/><circle cx="517.821" cy="561.462" r="5" fill="#05140d"/><circle cx="552.77" cy="639.944" r="1" fill="#0f3d28"/><circle cx="314.297" cy="590.903" r="1" fill="#248f5e"/><circle cx="382.652" cy="549.461" r="5" fill="#05140d"/><circle cx="604.242" cy="574.164" r="5" fill="#0f3d28"/><circle cx="509.276" cy="466.539" r="4" fill="#1c1c1c"/></svg>