<svg id="mySVG" width="1000" height="1000"><circle cx="596.39" cy="469.458" r="5" fill="#05140d"/><circle cx="139.455" cy="398.144" r="5" fill="#99e6c3"/><circle cx="538.209" cy="267.209" r="5" fill="#248f5e"/><circle cx="589.435" cy="297.744" r="1" fill="#248f5e"/><circle cx="415.117" cy="85.492" r="4" fill="#99e6c3"/><circle cx="597.802" cy="340.49" r="4" fill="#196643"/><circle cx="179.942" cy="662.066" r="5" fill="#99e6c3"/><circle cx="620.069" cy="560.305" r="5" fill="#196643"/><circle cx="427.82" cy="420.445" r="2" fill="#05140d"/><circle cx="430.798" cy="511.685" r="5" fill="#05140d"/><circle cx="337.817" cy="335.372" r="2" fill="#248f5e"/><circle cx="596.4" cy="497.527" r="3" fill="#05140d"/><circle cx="119.851" cy="448.8" r="1" fill="#99e6c3"/><circle cx="547.838" cy="749.872" r="2" fill="#47d193"/><circle cx="483.074" cy="538.076" r="1" fill="#1c1c1c"/><circle cx="553.721" cy="725.262" r="5" fill="#248f5e"/><circle cx="596.171" cy="488.954" r="1" fill="#05140d"/><circle cx="592.434" cy="785.388" r="1" fill="#47d193"/><circle cx="504.195" cy="477.042" r="2" fill="#1c1c1c"/><circle cx="313.005" cy="461.093" r="4" fill="#196643"/><circle cx="404.123" cy="374.905" r="5" fill="#0f3d28"/><circle cx="523.013" cy="529.565" r="3" fill="#05140d"/><circle cx="446.725" cy="415.381" r="3" fill="#05140d"/><circle cx="467.788" cy="622.134" r="3" fill="#0f3d28"/><circle cx="467.19" cy="594.205" r="5" fill="#05140d"/><circle cx="521.295" cy="513.427" r="5" fill="#05140d"/><circle cx="433.37" cy="498.948" r="3" fill="#05140d"/><circle cx="508.414" cy="437.019" r="4" fill="#1c1c1c"/><circle cx="408.318" cy="418.62" r="1" fill="#0f3d28"/><circle cx="305.649" cy="390.681" r="4" fill="#248f5e"/><circle cx="525.341" cy="479.235" r="1" fill="#1c1c1c"/><circle cx="542.346" cy="504.636" r="4" fill="#05140d"/><circle cx="620.693" cy="393.343" r="1" fill="#0f3d28"/><circle cx="620.73" cy="351.813" r="2" fill="#0f3d28"/><circle cx="460.172" cy="105.144" r="3" fill="#99e6c3"/><circle cx="355.468" cy="453.246" r="3" fill="#0f3d28"/><circle cx="452.971" cy="320.109" r="5" fill="#196643"/><circle cx="145.486" cy="477.378" r="4" fill="#99e6c3"/><circle cx="524.452" cy="359.379" r="4" fill="#0f3d28"/><circle cx="541.636" cy="661.673" r="5" fill="#196643"/><circle cx="607.804" cy="602.317" r="5" fill="#0f3d28"/><circle cx="469.638" cy="382.69" r="3" fill="#0f3d28"/><circle cx="317.983" cy="332.495" r="3" fill="#47d193"/><circle cx="512.488" cy="881.277" r="3" fill="#99e6c3"/><circle cx="330.081" cy="480.921" r="4" fill="#196643"/><circle cx="447.088" cy="679.135" r="5" fill="#0f3d28"/><circle cx="585.055" cy="294.558" r="5" fill="#248f5e"/><circle cx="442.233" cy="568.115" r="2" fill="#05140d"/><circle cx="543.371" cy="198.206" r="3" fill="#47d193"/><circle cx="642.368" cy="619.163" r="4" fill="#196643"/><circle cx="541.714" cy="620.412" r="3" fill="#0f3d28"/><circle cx="590.711" cy="437.742" r="2" fill="#05140d"/><circle cx="320.998" cy="415.219" r="5" fill="#196643"/><circle cx="331.94" cy="580.581" r="2" fill="#196643"/><circle cx="415.749" cy="446.526" r="1" fill="#05140d"/><circle cx="334.755" cy="490.469" r="2" fill="#196643"/><circle cx="393.309" cy="317.661" r="2" fill="#196643"/><circle cx="393.035" cy="635.988" r="4" fill="#248f5e"/><circle cx="509.677" cy="633.923" r="1" fill="#0f3d28"/><circle cx="520.995" cy="318.758" r="1" fill="#196643"/><circle cx="297.307" cy="451.874" r="4" fill="#2eb879"/><circle cx="363.076" cy="754.754" r="3" fill="#47d193"/><circle cx="345.427" cy="265.057" r="4" fill="#47d193"/><circle cx="518.88" cy="564.72" r="4" fill="#1c1c1c"/><circle cx="136.9" cy="461.23" r="5" fill="#99e6c3"/><circle cx="438.906" cy="374.217" r="3" fill="#0f3d28"/><circle cx="579.239" cy="754.741" r="2" fill="#47d193"/><circle cx="455.387" cy="204.913" r="4" fill="#47d193"/><circle cx="374.088" cy="247.512" r="4" fill="#47d193"/><circle cx="443.583" cy="309.603" r="2" fill="#196643"/><circle cx="565.479" cy="564.804" r="3" fill="#05140d"/><circle cx="560.28" cy="730.265" r="2" fill="#248f5e"/><circle cx="217.03" cy="565.6" r="5" fill="#47d193"/><circle cx="429.109" cy="596.324" r="4" fill="#05140d"/><circle cx="497.485" cy="453.44" r="2" fill="#05140d"/><circle cx="403.103" cy="616.812" r="4" fill="#0f3d28"/><circle cx="714.694" cy="465.294" r="2" fill="#248f5e"/><circle cx="403.295" cy="438.233" r="2" fill="#05140d"/><circle cx="703.377" cy="344.012" r="4" fill="#47d193"/><circle cx="377.676" cy="533.771" r="1" fill="#0f3d28"/><circle cx="624.262" cy="487.934" r="3" fill="#0f3d28"/><circle cx="495.179" cy="637.434" r="2" fill="#0f3d28"/><circle cx="394.831" cy="495.306" r="2" fill="#05140d"/><circle cx="414.285" cy="499.153" r="1" fill="#05140d"/><circle cx="700.091" cy="482.013" r="4" fill="#248f5e"/><circle cx="585.262" cy="322.566" r="1" fill="#196643"/><circle cx="572.916" cy="276.859" r="4" fill="#2eb879"/><circle cx="492.496" cy="430.35" r="4" fill="#1c1c1c"/><circle cx="424.154" cy="466.677" r="5" fill="#05140d"/><circle cx="691.413" cy="382.126" r="4" fill="#248f5e"/><circle cx="679.04" cy="642.833" r="1" fill="#248f5e"/><circle cx="500.201" cy="546.822" r="4" fill="#1c1c1c"/><circle cx="510.289" cy="519.444" r="5" fill="#1c1c1c"/><circle cx="493.564" cy="594.698" r="3" fill="#05140d"/><circle cx="766.22" cy="550.886" r="5" fill="#47d193"/><circle cx="465.079" cy="739.073" r="4" fill="#2eb879"/><circle cx="515.194" cy="442.438" r="3" fill="#05140d"/><circle cx="717.874" cy="689.151" r="2" fill="#47d193"/><circle cx="545.026" cy="392.564" r="2" fill="#0f3d28"/><circle cx="516.025" cy="619.109" r="2" fill="#0f3d28"/><circle cx="477.645" cy="317.978" r="3" fill="#196643"/><circle cx="286.229" cy="685.136" r="1" fill="#47d193"/><circle cx="419.92" cy="436.495" r="4" fill="#05140d"/><circle cx="473.104" cy="588.924" r="5" fill="#05140d"/><circle cx="605.548" cy="438.976" r="3" fill="#05140d"/><circle cx="510.032" cy="555.244" r="1" fill="#1c1c1c"/><circle cx="698.844" cy="483.997" r="5" fill="#196643"/><circle cx="227.843" cy="543.326" r="5" fill="#47d193"/><circle cx="526.981" cy="518.856" r="1" fill="#05140d"/><circle cx="305.151" cy="334.56" r="1" fill="#47d193"/><circle cx="354.35" cy="573.88" r="5" fill="#196643"/><circle cx="391.933" cy="511.113" r="3" fill="#0f3d28"/><circle cx="426.922" cy="582.875" r="4" fill="#05140d"/><circle cx="588.411" cy="471.604" r="3" fill="#05140d"/><circle cx="486.364" cy="304.238" r="5" fill="#196643"/><circle cx="670.022" cy="441.444" r="4" fill="#0f3d28"/><circle cx="675.547" cy="622.638" r="3" fill="#248f5e"/><circle cx="549.778" cy="537.725" r="4" fill="#1c1c1c"/><circle cx="500.827" cy="347.431" r="3" fill="#0f3d28"/><circle cx="965.849" cy="492.216" r="4" fill="#99e6c3"/><circle cx="432.853" cy="719.274" r="2" fill="#248f5e"/><circle cx="460.585" cy="446.108" r="5" fill="#1c1c1c"/><circle cx="441.398" cy="549.695" r="2" fill="#1c1c1c"/><circle cx="494.843" cy="284.66" r="1" fill="#248f5e"/><circle cx="589.345" cy="826.853" r="5" fill="#99e6c3"/><circle cx="507.82" cy="633.343" r="2" fill="#196643"/><circle cx="713.124" cy="383.101" r="5" fill="#2eb879"/><circle cx="817.753" cy="455.488" r="1" fill="#99e6c3"/><circle cx="431.108" cy="462.144" r="3" fill="#1c1c1c"/><circle cx="730.12" cy="757.74" r="2" fill="#47d193"/><circle cx="284.405" cy="433.475" r="2" fill="#248f5e"/><circle cx="464.581" cy="674.537" r="2" fill="#196643"/><circle cx="564.271" cy="541.807" r="2" fill="#1c1c1c"/><circle cx="538.578" cy="526.442" r="5" fill="#1c1c1c"/><circle cx="437.794" cy="484.633" r="2" fill="#1c1c1c"/><circle cx="470.631" cy="595.338" r="4" fill="#05140d"/><circle cx="330.629" cy="670.367" r="2" fill="#47d193"/><circle cx="504.883" cy="352.061" r="2" fill="#0f3d28"/><circle cx="545.844" cy="313.624" r="4" fill="#248f5e"/><circle cx="366.223" cy="316.82" r="2" fill="#2eb879"/><circle cx="609.425" cy="577.833" r="2" fill="#0f3d28"/><circle cx="515.342" cy="390.552" r="3" fill="#05140d"/><circle cx="545.98" cy="384.81" r="3" fill="#0f3d28"/><circle cx="576.369" cy="505.446" r="4" fill="#1c1c1c"/><circle cx="607.897" cy="487.239" r="3" fill="#05140d"/><circle cx="329.372" cy="357.922" r="3" fill="#248f5e"/><circle cx="491.949" cy="63.833" r="3" fill="#99e6c3"/><circle cx="666.985" cy="435.944" r="2" fill="#248f5e"/><circle cx="449.488" cy="556.768" r="3" fill="#1c1c1c"/><circle cx="380.432" cy="679.447" r="1" fill="#248f5e"/><circle cx="633.638" cy="478.146" r="2" fill="#0f3d28"/><circle cx="438.688" cy="680.458" r="1" fill="#196643"/><circle cx="168.425" cy="809.925" r="2" fill="#99e6c3"/><circle cx="826.257" cy="687.256" r="4" fill="#99e6c3"/><circle cx="491.82" cy="533.491" r="1" fill="#1c1c1c"/><circle cx="479.479" cy="524.454" r="3" fill="#1c1c1c"/><circle cx="436.699" cy="564.397" r="3" fill="#05140d"/><circle cx="499.602" cy="642.78" r="2" fill="#196643"/><circle cx="373.688" cy="320.571" r="3" fill="#248f5e"/><circle cx="325.652" cy="545.286" r="1" fill="#196643"/><circle cx="260.886" cy="260.181" r="2" fill="#99e6c3"/><circle cx="779.818" cy="543.862" r="1" fill="#47d193"/><circle cx="639.353" cy="458.182" r="2" fill="#0f3d28"/><circle cx="438.763" cy="543.015" r="4" fill="#1c1c1c"/><circle cx="757.76" cy="796.186" r="5" fill="#99e6c3"/><circle cx="670.7" cy="420.363" r="4" fill="#196643"/><circle cx="533.45" cy="800.077" r="2" fill="#47d193"/><circle cx="690.248" cy="512.356" r="2" fill="#196643"/><circle cx="621.104" cy="346.438" r="1" fill="#196643"/><circle cx="623.148" cy="307.765" r="2" fill="#248f5e"/><circle cx="609.291" cy="517.4" r="2" fill="#05140d"/><circle cx="452.123" cy="624.659" r="1" fill="#196643"/><circle cx="502.567" cy="463.964" r="4" fill="#1c1c1c"/><circle cx="425.254" cy="501.896" r="4" fill="#1c1c1c"/><circle cx="345.305" cy="792.599" r="2" fill="#99e6c3"/><circle cx="486.803" cy="344.821" r="3" fill="#0f3d28"/><circle cx="446.847" cy="459.071" r="3" fill="#1c1c1c"/><circle cx="374.079" cy="472.796" r="1" fill="#0f3d28"/><circle cx="728.337" cy="750.804" r="4" fill="#99e6c3"/><circle cx="404.995" cy="1023.861" r="1" fill="#99e6c3"/><circle cx="654.02" cy="543.599" r="3" fill="#196643"/><circle cx="827.059" cy="709.977" r="1" fill="#99e6c3"/><circle cx="415.109" cy="623.073" r="4" fill="#0f3d28"/><circle cx="415.466" cy="214.514" r="2" fill="#47d193"/><circle cx="567.461" cy="337.593" r="3" fill="#196643"/><circle cx="775.8" cy="543.98" r="3" fill="#47d193"/><circle cx="562.703" cy="416.369" r="3" fill="#1c1c1c"/><circle cx="681.859" cy="534.832" r="3" fill="#196643"/><circle cx="182.124" cy="451.239" r="4" fill="#99e6c3"/><circle cx="350.861" cy="517.316" r="1" fill="#196643"/><circle cx="367.16" cy="584.04" r="5" fill="#0f3d28"/><circle cx="467.499" cy="310.479" r="2" fill="#248f5e"/><circle cx="423.08" cy="519.136" r="5" fill="#1c1c1c"/><circle cx="503.621" cy="454.221" r="2" fill="#1c1c1c"/><circle cx="386.531" cy="431.071" r="4" fill="#05140d"/><circle cx="633.157" cy="515.864" r="4" fill="#0f3d28"/><circle cx="349.257" cy="345.669" r="2" fill="#248f5e"/><circle cx="390.221" cy="446.904" r="4" fill="#0f3d28"/><circle cx="364.425" cy="314.794" r="5" fill="#248f5e"/><circle cx="483.688" cy="290.657" r="5" fill="#248f5e"/><circle cx="349.567" cy="632.708" r="3" fill="#248f5e"/><circle cx="208.735" cy="420.16" r="3" fill="#47d193"/><circle cx="438.043" cy="723.218" r="5" fill="#248f5e"/><circle cx="563.193" cy="760.434" r="3" fill="#47d193"/><circle cx="706.574" cy="427.78" r="1" fill="#248f5e"/><circle cx="362.63" cy="486.356" r="3" fill="#0f3d28"/><circle cx="629.054" cy="414.482" r="5" fill="#0f3d28"/><circle cx="467.073" cy="552.68" r="4" fill="#1c1c1c"/><circle cx="486.211" cy="831.341" r="5" fill="#99e6c3"/><circle cx="367.245" cy="628.022" r="4" fill="#196643"/><circle cx="274.958" cy="840.454" r="2" fill="#99e6c3"/><circle cx="878.158" cy="360.335" r="3" fill="#99e6c3"/><circle cx="483.796" cy="308.201" r="3" fill="#196643"/><circle cx="311.372" cy="457.813" r="5" fill="#248f5e"/><circle cx="681.077" cy="365.098" r="3" fill="#248f5e"/><circle cx="530.846" cy="402.455" r="5" fill="#05140d"/><circle cx="511.221" cy="445.086" r="2" fill="#05140d"/><circle cx="706.122" cy="406.881" r="5" fill="#248f5e"/><circle cx="476.648" cy="601.956" r="5" fill="#0f3d28"/><circle cx="308.302" cy="539.027" r="2" fill="#196643"/><circle cx="390.7" cy="460.369" r="3" fill="#05140d"/><circle cx="658.461" cy="354.685" r="5" fill="#248f5e"/><circle cx="407.194" cy="277.817" r="1" fill="#47d193"/><circle cx="418.844" cy="560.218" r="4" fill="#0f3d28"/><circle cx="573.046" cy="732.077" r="4" fill="#47d193"/><circle cx="583.137" cy="719.258" r="2" fill="#196643"/><circle cx="461.222" cy="413.102" r="4" fill="#05140d"/><circle cx="686.872" cy="843.397" r="2" fill="#99e6c3"/><circle cx="540.784" cy="643.976" r="4" fill="#0f3d28"/><circle cx="427.523" cy="567.558" r="5" fill="#05140d"/><circle cx="729.761" cy="858.717" r="3" fill="#99e6c3"/><circle cx="414.96" cy="565.703" r="2" fill="#05140d"/><circle cx="568.31" cy="613.962" r="4" fill="#0f3d28"/><circle cx="817.845" cy="457.963" r="1" fill="#99e6c3"/><circle cx="539.168" cy="258.489" r="1" fill="#47d193"/><circle cx="231.165" cy="425.379" r="5" fill="#47d193"/><circle cx="502.667" cy="665.359" r="4" fill="#196643"/><circle cx="381.627" cy="623.746" r="4" fill="#196643"/><circle cx="328.187" cy="504.972" r="4" fill="#196643"/><circle cx="581.829" cy="256.056" r="3" fill="#47d193"/><circle cx="336.812" cy="680.127" r="5" fill="#47d193"/><circle cx="379.615" cy="576.852" r="1" fill="#0f3d28"/><circle cx="425.453" cy="151.343" r="3" fill="#99e6c3"/><circle cx="660.62" cy="488.246" r="1" fill="#196643"/><circle cx="594.733" cy="523.726" r="2" fill="#05140d"/><circle cx="741.094" cy="431.938" r="2" fill="#47d193"/><circle cx="503.495" cy="362.681" r="4" fill="#0f3d28"/><circle cx="310.675" cy="372.402" r="5" fill="#2eb879"/><circle cx="479.291" cy="559.093" r="2" fill="#1c1c1c"/><circle cx="589.946" cy="678.171" r="5" fill="#196643"/><circle cx="606.419" cy="426.9" r="3" fill="#0f3d28"/><circle cx="370.87" cy="574.9" r="4" fill="#0f3d28"/><circle cx="367.975" cy="412.413" r="2" fill="#0f3d28"/><circle cx="419.737" cy="418.306" r="3" fill="#05140d"/><circle cx="777.681" cy="590.018" r="4" fill="#47d193"/><circle cx="768.252" cy="229.441" r="2" fill="#99e6c3"/><circle cx="315.503" cy="623.372" r="5" fill="#248f5e"/><circle cx="576.648" cy="498.919" r="2" fill="#05140d"/><circle cx="448.444" cy="272.891" r="1" fill="#248f5e"/><circle cx="582.367" cy="488.561" r="4" fill="#05140d"/><circle cx="336.902" cy="481.997" r="3" fill="#196643"/><circle cx="682.636" cy="393.308" r="5" fill="#248f5e"/><circle cx="555.083" cy="530.086" r="4" fill="#1c1c1c"/><circle cx="544.102" cy="511.127" r="5" fill="#1c1c1c"/><circle cx="620.39" cy="382.609" r="2" fill="#196643"/><circle cx="501.379" cy="457.857" r="3" fill="#05140d"/><circle cx="661.902" cy="292.361" r="4" fill="#2eb879"/><circle cx="146.011" cy="716.259" r="4" fill="#99e6c3"/><circle cx="626.941" cy="581.932" r="1" fill="#05140d"/><circle cx="607.383" cy="335.735" r="2" fill="#196643"/><circle cx="559.63" cy="503.285" r="3" fill="#1c1c1c"/><circle cx="274.144" cy="503.745" r="5" fill="#248f5e"/><circle cx="207.338" cy="440.956" r="4" fill="#47d193"/><circle cx="549.403" cy="436.086" r="1" fill="#05140d"/><circle cx="652.799" cy="504.389" r="2" fill="#196643"/><circle cx="658.992" cy="728.177" r="5" fill="#47d193"/><circle cx="677.623" cy="537.894" r="4" fill="#196643"/><circle cx="576.081" cy="227.758" r="5" fill="#99e6c3"/><circle cx="403.647" cy="498.073" r="1" fill="#05140d"/><circle cx="337.067" cy="634.638" r="2" fill="#248f5e"/><circle cx="792.527" cy="227.012" r="5" fill="#99e6c3"/><circle cx="475.282" cy="480.982" r="2" fill="#1c1c1c"/><circle cx="601.669" cy="670.114" r="3" fill="#248f5e"/><circle cx="401.077" cy="464.411" r="5" fill="#05140d"/><circle cx="191.55" cy="362.235" r="2" fill="#99e6c3"/><circle cx="478.571" cy="503.619" r="4" fill="#05140d"/><circle cx="256.686" cy="526.913" r="5" fill="#47d193"/><circle cx="381.35" cy="579.347" r="4" fill="#0f3d28"/><circle cx="463.027" cy="478.462" r="3" fill="#1c1c1c"/><circle cx="627.507" cy="341.875" r="2" fill="#248f5e"/><circle cx="570.341" cy="596.123" r="3" fill="#05140d"/><circle cx="593.783" cy="603.522" r="3" fill="#0f3d28"/><circle cx="624.246" cy="459.722" r="3" fill="#0f3d28"/><circle cx="801.519" cy="576.671" r="5" fill="#47d193"/><circle cx="366.304" cy="502.503" r="2" fill="#196643"/><circle cx="595.542" cy="388.548" r="2" fill="#0f3d28"/><circle cx="606.33" cy="691.628" r="2" fill="#248f5e"/><circle cx="384.529" cy="707.829" r="2" fill="#248f5e"/><circle cx="554.98" cy="554.085" r="3" fill="#1c1c1c"/><circle cx="432.991" cy="615.371" r="5" fill="#0f3d28"/><circle cx="494.108" cy="304.193" r="2" fill="#196643"/><circle cx="354.697" cy="377.754" r="5" fill="#196643"/><circle cx="309.297" cy="761.409" r="5" fill="#99e6c3"/><circle cx="685.544" cy="496.967" r="4" fill="#196643"/><circle cx="475.251" cy="659.668" r="4" fill="#196643"/><circle cx="189.033" cy="615.446" r="1" fill="#99e6c3"/><circle cx="202.554" cy="735.124" r="1" fill="#99e6c3"/><circle cx="524.773" cy="363.132" r="1" fill="#0f3d28"/><circle cx="519.889" cy="251.588" r="1" fill="#47d193"/><circle cx="481.62" cy="465.699" r="3" fill="#1c1c1c"/><circle cx="319.372" cy="874.211" r="1" fill="#99e6c3"/><circle cx="576.327" cy="456.642" r="2" fill="#05140d"/><circle cx="558.092" cy="373.451" r="2" fill="#0f3d28"/><circle cx="325.436" cy="466.073" r="2" fill="#196643"/><circle cx="431.685" cy="618.404" r="5" fill="#196643"/><circle cx="619.499" cy="432.438" r="1" fill="#0f3d28"/><circle cx="353.462" cy="682.688" r="4" fill="#248f5e"/><circle cx="623.15" cy="827.965" r="4" fill="#47d193"/><circle cx="623.724" cy="393.178" r="3" fill="#196643"/><circle cx="328.324" cy="391.195" r="2" fill="#248f5e"/><circle cx="886.769" cy="542.157" r="1" fill="#99e6c3"/><circle cx="366.304" cy="763.745" r="1" fill="#47d193"/><circle cx="674.108" cy="424.452" r="5" fill="#248f5e"/><circle cx="432.514" cy="432.453" r="5" fill="#05140d"/><circle cx="287.49" cy="347.261" r="5" fill="#47d193"/><circle cx="462.471" cy="511.126" r="4" fill="#1c1c1c"/><circle cx="321.453" cy="414.835" r="5" fill="#196643"/><circle cx="565.512" cy="588.558" r="2" fill="#05140d"/><circle cx="463.326" cy="622.638" r="3" fill="#0f3d28"/><circle cx="330.207" cy="584.693" r="3" fill="#196643"/><circle cx="524.556" cy="672.106" r="3" fill="#196643"/><circle cx="537.583" cy="249.104" r="5" fill="#2eb879"/><circle cx="448.217" cy="397.954" r="2" fill="#0f3d28"/><circle cx="689.205" cy="410.088" r="2" fill="#2eb879"/><circle cx="573.727" cy="521.585" r="4" fill="#1c1c1c"/><circle cx="597.171" cy="401.057" r="3" fill="#0f3d28"/><circle cx="606.104" cy="391.51" r="2" fill="#0f3d28"/><circle cx="503.16" cy="46.336" r="3" fill="#99e6c3"/><circle cx="457.359" cy="132.928" r="4" fill="#99e6c3"/><circle cx="674.673" cy="212.592" r="1" fill="#99e6c3"/><circle cx="707.741" cy="284.688" r="3" fill="#47d193"/><circle cx="639.839" cy="785.118" r="3" fill="#47d193"/><circle cx="577.418" cy="712.065" r="2" fill="#2eb879"/><circle cx="269.081" cy="673.707" r="1" fill="#47d193"/><circle cx="550.241" cy="459.216" r="1" fill="#1c1c1c"/><circle cx="350.192" cy="370.966" r="5" fill="#0f3d28"/><circle cx="399.521" cy="563.857" r="3" fill="#05140d"/><circle cx="533.037" cy="341.217" r="3" fill="#196643"/><circle cx="341.736" cy="438.464" r="2" fill="#248f5e"/><circle cx="669.692" cy="382.293" r="3" fill="#248f5e"/><circle cx="334.502" cy="350.472" r="3" fill="#196643"/><circle cx="637.918" cy="526.318" r="5" fill="#0f3d28"/><circle cx="435.797" cy="473.322" r="1" fill="#1c1c1c"/><circle cx="599.011" cy="557.195" r="3" fill="#1c1c1c"/><circle cx="505.453" cy="217.808" r="4" fill="#47d193"/><circle cx="559.708" cy="562.214" r="2" fill="#05140d"/><circle cx="789.971" cy="943.913" r="5" fill="#99e6c3"/><circle cx="494.715" cy="488.088" r="5" fill="#1c1c1c"/><circle cx="539.648" cy="600.612" r="1" fill="#05140d"/><circle cx="483.053" cy="399.341" r="5" fill="#05140d"/><circle cx="370.291" cy="261.169" r="5" fill="#2eb879"/><circle cx="462.63" cy="563.647" r="3" fill="#1c1c1c"/><circle cx="513.567" cy="650.398" r="4" fill="#0f3d28"/><circle cx="345.987" cy="777.983" r="4" fill="#47d193"/><circle cx="661.685" cy="422.949" r="4" fill="#196643"/><circle cx="636.009" cy="637.44" r="4" fill="#196643"/><circle cx="382.376" cy="486.787" r="2" fill="#05140d"/><circle cx="509.748" cy="511.301" r="3" fill="#05140d"/><circle cx="671.321" cy="472.645" r="4" fill="#196643"/><circle cx="295.399" cy="646.525" r="1" fill="#47d193"/><circle cx="852.946" cy="563.31" r="4" fill="#99e6c3"/><circle cx="868.453" cy="427.425" r="3" fill="#99e6c3"/><circle cx="278.323" cy="515.116" r="5" fill="#248f5e"/><circle cx="378.546" cy="544.192" r="2" fill="#196643"/><circle cx="519.597" cy="617.852" r="4" fill="#0f3d28"/><circle cx="397.571" cy="565.064" r="5" fill="#0f3d28"/><circle cx="614.889" cy="484.538" r="2" fill="#05140d"/><circle cx="645.311" cy="493.185" r="3" fill="#0f3d28"/><circle cx="359.235" cy="587.948" r="2" fill="#196643"/><circle cx="458.004" cy="543.313" r="3" fill="#1c1c1c"/><circle cx="824.933" cy="378.649" r="5" fill="#99e6c3"/><circle cx="715.939" cy="503.841" r="4" fill="#248f5e"/><circle cx="646.851" cy="473.475" r="2" fill="#0f3d28"/><circle cx="482.949" cy="752.541" r="1" fill="#2eb879"/><circle cx="368.983" cy="550.61" r="1" fill="#0f3d28"/><circle cx="110.206" cy="520.611" r="3" fill="#99e6c3"/><circle cx="541.071" cy="529.079" r="5" fill="#1c1c1c"/><circle cx="647.046" cy="425.131" r="2" fill="#196643"/><circle cx="436.728" cy="462.696" r="2" fill="#1c1c1c"/><circle cx="244.035" cy="670.928" r="3" fill="#47d193"/><circle cx="626.278" cy="538.405" r="5" fill="#0f3d28"/><circle cx="302.623" cy="583.298" r="5" fill="#248f5e"/><circle cx="255.139" cy="605.242" r="2" fill="#47d193"/><circle cx="449.342" cy="607.736" r="1" fill="#1c1c1c"/><circle cx="803.956" cy="274.238" r="4" fill="#99e6c3"/><circle cx="434.537" cy="555.905" r="1" fill="#0f3d28"/><circle cx="308.313" cy="320.746" r="4" fill="#47d193"/><circle cx="573.645" cy="543.633" r="2" fill="#1c1c1c"/><circle cx="561.75" cy="655.378" r="3" fill="#196643"/><circle cx="687.108" cy="645.621" r="1" fill="#248f5e"/><circle cx="551.579" cy="556.669" r="5" fill="#1c1c1c"/><circle cx="623.862" cy="459.436" r="3" fill="#0f3d28"/><circle cx="448.417" cy="512.613" r="4" fill="#05140d"/><circle cx="488.578" cy="336.78" r="2" fill="#196643"/><circle cx="476.679" cy="292.962" r="5" fill="#248f5e"/><circle cx="382.853" cy="532.695" r="4" fill="#05140d"/><circle cx="495.116" cy="805.559" r="4" fill="#47d193"/><circle cx="392.071" cy="752.689" r="5" fill="#47d193"/><circle cx="503.789" cy="622.586" r="2" fill="#0f3d28"/><circle cx="517.939" cy="376.451" r="2" fill="#0f3d28"/><circle cx="731.9" cy="427.438" r="5" fill="#47d193"/><circle cx="764.675" cy="246.603" r="5" fill="#99e6c3"/><circle cx="518.48" cy="605.063" r="3" fill="#0f3d28"/><circle cx="504.149" cy="511.346" r="2" fill="#1c1c1c"/><circle cx="594.602" cy="245.37" r="3" fill="#47d193"/><circle cx="590.724" cy="404.415" r="1" fill="#0f3d28"/><circle cx="733.591" cy="330.239" r="2" fill="#47d193"/><circle cx="668.168" cy="416.923" r="2" fill="#196643"/><circle cx="499.231" cy="357.692" r="2" fill="#0f3d28"/><circle cx="561.196" cy="598.913" r="5" fill="#05140d"/><circle cx="617.943" cy="414.847" r="1" fill="#05140d"/><circle cx="335.345" cy="565.285" r="2" fill="#196643"/><circle cx="659.73" cy="520.615" r="4" fill="#196643"/><circle cx="434.325" cy="552.391" r="4" fill="#05140d"/><circle cx="288.038" cy="670.443" r="1" fill="#47d193"/><circle cx="388.092" cy="296.791" r="4" fill="#248f5e"/><circle cx="745.904" cy="429.801" r="3" fill="#47d193"/><circle cx="773.214" cy="570.839" r="4" fill="#47d193"/><circle cx="300.52" cy="489.69" r="4" fill="#196643"/><circle cx="694.265" cy="220.013" r="3" fill="#47d193"/><circle cx="517.104" cy="255.68" r="2" fill="#47d193"/><circle cx="222.307" cy="376.657" r="1" fill="#47d193"/><circle cx="405.24" cy="505.415" r="5" fill="#0f3d28"/><circle cx="436.848" cy="194.891" r="3" fill="#99e6c3"/><circle cx="534.638" cy="532.096" r="5" fill="#1c1c1c"/><circle cx="325.109" cy="478.514" r="2" fill="#196643"/><circle cx="340.72" cy="416.575" r="4" fill="#196643"/><circle cx="446.827" cy="536.165" r="1" fill="#1c1c1c"/><circle cx="773.26" cy="687.97" r="3" fill="#47d193"/><circle cx="683.778" cy="452.198" r="5" fill="#196643"/><circle cx="665.238" cy="352.576" r="3" fill="#248f5e"/><circle cx="373.75" cy="430.406" r="2" fill="#196643"/><circle cx="476.012" cy="486.007" r="3" fill="#1c1c1c"/><circle cx="226.347" cy="548.269" r="4" fill="#47d193"/><circle cx="387.706" cy="470.505" r="3" fill="#05140d"/><circle cx="519.971" cy="783.165" r="3" fill="#47d193"/><circle cx="215.68" cy="507.369" r="1" fill="#47d193"/><circle cx="278.876" cy="489.478" r="5" fill="#248f5e"/><circle cx="269.918" cy="313.336" r="3" fill="#47d193"/><circle cx="393.011" cy="392.101" r="1" fill="#0f3d28"/><circle cx="385.028" cy="269.771" r="4" fill="#47d193"/><circle cx="450.647" cy="373.543" r="2" fill="#0f3d28"/><circle cx="694.992" cy="478.866" r="1" fill="#248f5e"/><circle cx="390.357" cy="586.539" r="4" fill="#0f3d28"/><circle cx="440.675" cy="553.205" r="2" fill="#1c1c1c"/><circle cx="516.487" cy="638.016" r="5" fill="#0f3d28"/><circle cx="313.647" cy="378.696" r="5" fill="#196643"/><circle cx="317.425" cy="584.827" r="4" fill="#248f5e"/><circle cx="402.564" cy="699.032" r="5" fill="#248f5e"/><circle cx="601.85" cy="700.983" r="2" fill="#2eb879"/><circle cx="483.05" cy="374.249" r="3" fill="#0f3d28"/><circle cx="359.562" cy="469.056" r="5" fill="#0f3d28"/><circle cx="428.405" cy="472.924" r="3" fill="#1c1c1c"/><circle cx="372.681" cy="343.185" r="4" fill="#248f5e"/><circle cx="529.678" cy="889.283" r="3" fill="#99e6c3"/><circle cx="582.437" cy="742.833" r="2" fill="#47d193"/><circle cx="592.794" cy="501.703" r="2" fill="#1c1c1c"/><circle cx="648.008" cy="214.601" r="3" fill="#47d193"/><circle cx="275.554" cy="315.823" r="3" fill="#47d193"/><circle cx="261.823" cy="486.117" r="2" fill="#248f5e"/><circle cx="579.218" cy="591.541" r="3" fill="#0f3d28"/><circle cx="638.239" cy="765.737" r="3" fill="#99e6c3"/><circle cx="432.304" cy="433.699" r="4" fill="#05140d"/><circle cx="666.656" cy="444.031" r="4" fill="#0f3d28"/><circle cx="569.915" cy="451.495" r="5" fill="#1c1c1c"/><circle cx="209.477" cy="806.56" r="5" fill="#99e6c3"/><circle cx="693.721" cy="350.518" r="5" fill="#47d193"/><circle cx="509.976" cy="531.75" r="2" fill="#1c1c1c"/><circle cx="553.205" cy="765.857" r="2" fill="#47d193"/><circle cx="647.732" cy="542.425" r="5" fill="#0f3d28"/><circle cx="488.687" cy="319.488" r="2" fill="#196643"/><circle cx="550.375" cy="399.502" r="4" fill="#0f3d28"/><circle cx="364.491" cy="307.965" r="5" fill="#248f5e"/><circle cx="349.4" cy="583.212" r="3" fill="#196643"/><circle cx="539.307" cy="512.076" r="1" fill="#1c1c1c"/><circle cx="510.768" cy="641.979" r="3" fill="#0f3d28"/><circle cx="425.758" cy="410.787" r="5" fill="#05140d"/><circle cx="239.769" cy="667.1" r="4" fill="#99e6c3"/><circle cx="480.848" cy="457.812" r="2" fill="#05140d"/><circle cx="540.238" cy="609.432" r="4" fill="#05140d"/><circle cx="778.279" cy="660.213" r="4" fill="#99e6c3"/><circle cx="604.596" cy="485.55" r="1" fill="#05140d"/><circle cx="402.805" cy="763.707" r="4" fill="#47d193"/><circle cx="493.504" cy="525.211" r="1" fill="#1c1c1c"/><circle cx="372.885" cy="354.357" r="2" fill="#196643"/><circle cx="516.845" cy="549.107" r="2" fill="#05140d"/><circle cx="655.965" cy="474.325" r="5" fill="#0f3d28"/><circle cx="543.862" cy="426.893" r="3" fill="#1c1c1c"/><circle cx="520.206" cy="398.152" r="3" fill="#1c1c1c"/><circle cx="363.535" cy="644.644" r="2" fill="#196643"/><circle cx="520.158" cy="497.283" r="2" fill="#1c1c1c"/><circle cx="661.9" cy="331.745" r="1" fill="#248f5e"/><circle cx="609.153" cy="341.159" r="1" fill="#196643"/><circle cx="471.205" cy="637.351" r="5" fill="#0f3d28"/><circle cx="627.416" cy="619.113" r="1" fill="#196643"/><circle cx="388.164" cy="500.347" r="3" fill="#05140d"/><circle cx="663.064" cy="559.331" r="5" fill="#196643"/><circle cx="453.65" cy="878.722" r="4" fill="#99e6c3"/><circle cx="411.378" cy="351.926" r="2" fill="#196643"/><circle cx="641.315" cy="595.752" r="5" fill="#196643"/><circle cx="566.771" cy="559.253" r="1" fill="#05140d"/><circle cx="644.528" cy="511.127" r="2" fill="#0f3d28"/><circle cx="370.422" cy="431.941" r="2" fill="#0f3d28"/><circle cx="601.483" cy="637.783" r="3" fill="#248f5e"/><circle cx="372.049" cy="391.404" r="2" fill="#196643"/><circle cx="254.853" cy="524.665" r="5" fill="#47d193"/><circle cx="189.861" cy="447.205" r="3" fill="#47d193"/><circle cx="921.677" cy="462.108" r="3" fill="#99e6c3"/><circle cx="584.634" cy="570.276" r="3" fill="#05140d"/><circle cx="509.089" cy="282.493" r="4" fill="#248f5e"/><circle cx="600.064" cy="262.712" r="1" fill="#47d193"/><circle cx="621.687" cy="384.412" r="3" fill="#196643"/><circle cx="584.559" cy="490.028" r="3" fill="#05140d"/><circle cx="361.273" cy="666.028" r="1" fill="#248f5e"/><circle cx="595.784" cy="776.283" r="5" fill="#47d193"/><circle cx="305.33" cy="405.909" r="4" fill="#248f5e"/><circle cx="649.129" cy="369.254" r="5" fill="#248f5e"/><circle cx="552.447" cy="476.182" r="4" fill="#1c1c1c"/><circle cx="703.909" cy="324.177" r="3" fill="#47d193"/><circle cx="491.384" cy="439.061" r="4" fill="#05140d"/><circle cx="504.217" cy="600.498" r="2" fill="#05140d"/><circle cx="442.61" cy="770.255" r="3" fill="#47d193"/><circle cx="538.339" cy="492.535" r="4" fill="#1c1c1c"/><circle cx="410.808" cy="641.668" r="4" fill="#196643"/><circle cx="510.332" cy="537.25" r="3" fill="#1c1c1c"/><circle cx="713.21" cy="403.6" r="5" fill="#248f5e"/><circle cx="525.723" cy="278.418" r="5" fill="#248f5e"/><circle cx="427.832" cy="555.209" r="2" fill="#05140d"/><circle cx="493.917" cy="250.918" r="3" fill="#47d193"/><circle cx="480.693" cy="708.151" r="3" fill="#248f5e"/><circle cx="518.773" cy="223.572" r="2" fill="#47d193"/><circle cx="662.101" cy="420.708" r="2" fill="#248f5e"/><circle cx="591.087" cy="430.276" r="1" fill="#05140d"/><circle cx="588.004" cy="249.588" r="1" fill="#47d193"/><circle cx="511.903" cy="963.73" r="1" fill="#99e6c3"/><circle cx="354.405" cy="440.409" r="4" fill="#0f3d28"/><circle cx="255.56" cy="777.739" r="4" fill="#99e6c3"/><circle cx="273.776" cy="530.518" r="4" fill="#2eb879"/><circle cx="412.688" cy="313.797" r="5" fill="#248f5e"/><circle cx="619.159" cy="456.704" r="1" fill="#0f3d28"/><circle cx="626.683" cy="427.371" r="1" fill="#196643"/><circle cx="463.91" cy="515.343" r="4" fill="#1c1c1c"/><circle cx="411.285" cy="656.972" r="3" fill="#196643"/><circle cx="568.267" cy="476.329" r="5" fill="#1c1c1c"/><circle cx="575.321" cy="621.998" r="2" fill="#0f3d28"/><circle cx="311.95" cy="646.809" r="1" fill="#248f5e"/><circle cx="791.072" cy="380.376" r="2" fill="#47d193"/><circle cx="571.007" cy="397.972" r="4" fill="#0f3d28"/><circle cx="674.311" cy="577.045" r="3" fill="#196643"/><circle cx="653.215" cy="676.139" r="4" fill="#248f5e"/><circle cx="498.574" cy="458.632" r="1" fill="#1c1c1c"/><circle cx="387.938" cy="652.549" r="1" fill="#196643"/><circle cx="528.095" cy="137.809" r="5" fill="#99e6c3"/><circle cx="420.072" cy="446.558" r="4" fill="#05140d"/><circle cx="630.415" cy="653.928" r="3" fill="#248f5e"/><circle cx="440.137" cy="399.864" r="1" fill="#05140d"/><circle cx="480.617" cy="554.785" r="3" fill="#1c1c1c"/><circle cx="399.717" cy="673.083" r="2" fill="#2eb879"/><circle cx="624.588" cy="609.61" r="2" fill="#196643"/><circle cx="166.073" cy="668" r="5" fill="#99e6c3"/><circle cx="455.462" cy="455.676" r="2" fill="#05140d"/><circle cx="260.173" cy="527.095" r="5" fill="#47d193"/><circle cx="676.314" cy="419.233" r="5" fill="#196643"/><circle cx="458.079" cy="778.985" r="3" fill="#47d193"/><circle cx="215.296" cy="554.946" r="4" fill="#47d193"/><circle cx="236.55" cy="601.974" r="3" fill="#47d193"/><circle cx="427.307" cy="392.04" r="4" fill="#0f3d28"/><circle cx="424.457" cy="531.212" r="2" fill="#05140d"/><circle cx="315.074" cy="559.06" r="3" fill="#196643"/><circle cx="408.202" cy="881.935" r="2" fill="#99e6c3"/><circle cx="533.207" cy="540.865" r="3" fill="#1c1c1c"/><circle cx="314.534" cy="555.771" r="4" fill="#248f5e"/><circle cx="301.727" cy="240.196" r="5" fill="#99e6c3"/><circle cx="438.502" cy="519.838" r="3" fill="#1c1c1c"/><circle cx="566.533" cy="556.945" r="1" fill="#05140d"/><circle cx="427.724" cy="547.656" r="4" fill="#05140d"/><circle cx="613.379" cy="637.424" r="1" fill="#196643"/><circle cx="465.483" cy="421.051" r="2" fill="#1c1c1c"/><circle cx="581.476" cy="451.138" r="5" fill="#05140d"/><circle cx="315.536" cy="533.472" r="1" fill="#196643"/><circle cx="516" cy="744.432" r="1" fill="#2eb879"/><circle cx="276.428" cy="602.359" r="1" fill="#47d193"/><circle cx="479.853" cy="475.89" r="1" fill="#1c1c1c"/><circle cx="596.039" cy="728.285" r="1" fill="#2eb879"/><circle cx="494.853" cy="603.377" r="4" fill="#1c1c1c"/><circle cx="94.646" cy="389.71" r="1" fill="#99e6c3"/><circle cx="549.216" cy="173.263" r="4" fill="#99e6c3"/><circle cx="525.977" cy="588.749" r="5" fill="#05140d"/><circle cx="648.301" cy="476.767" r="5" fill="#0f3d28"/><circle cx="393.84" cy="216.473" r="1" fill="#47d193"/><circle cx="586.566" cy="494.86" r="5" fill="#1c1c1c"/><circle cx="383.492" cy="566.364" r="1" fill="#0f3d28"/><circle cx="424.493" cy="393.867" r="4" fill="#0f3d28"/><circle cx="570.576" cy="285.127" r="4" fill="#248f5e"/><circle cx="644.245" cy="774.972" r="5" fill="#47d193"/><circle cx="653.446" cy="542.482" r="5" fill="#0f3d28"/><circle cx="557.571" cy="678.888" r="4" fill="#196643"/><circle cx="321.556" cy="402.24" r="1" fill="#248f5e"/><circle cx="362.86" cy="472.256" r="3" fill="#196643"/><circle cx="678.882" cy="551.487" r="3" fill="#248f5e"/><circle cx="565.718" cy="395.834" r="5" fill="#0f3d28"/><circle cx="290.589" cy="496.275" r="1" fill="#248f5e"/><circle cx="800.585" cy="333.851" r="4" fill="#99e6c3"/><circle cx="503.72" cy="552.562" r="4" fill="#1c1c1c"/><circle cx="343.158" cy="789.921" r="4" fill="#99e6c3"/><circle cx="674.065" cy="449.043" r="5" fill="#196643"/><circle cx="639.232" cy="555.317" r="3" fill="#0f3d28"/><circle cx="208.057" cy="577.761" r="4" fill="#47d193"/><circle cx="396.032" cy="541.657" r="4" fill="#05140d"/><circle cx="397.164" cy="504.448" r="2" fill="#05140d"/><circle cx="544.257" cy="489.347" r="5" fill="#1c1c1c"/><circle cx="518.342" cy="350.884" r="4" fill="#0f3d28"/><circle cx="545.466" cy="264.378" r="2" fill="#248f5e"/><circle cx="501.808" cy="462.9" r="4" fill="#1c1c1c"/><circle cx="778.44" cy="522.522" r="5" fill="#2eb879"/><circle cx="487.195" cy="400.595" r="5" fill="#05140d"/><circle cx="193.007" cy="91.387" r="2" fill="#99e6c3"/><circle cx="552.641" cy="594.841" r="1" fill="#05140d"/><circle cx="627.752" cy="497.071" r="5" fill="#0f3d28"/><circle cx="734.765" cy="636.75" r="2" fill="#2eb879"/><circle cx="323.828" cy="689.894" r="3" fill="#47d193"/><circle cx="805.108" cy="516.914" r="1" fill="#47d193"/><circle cx="279.69" cy="497.353" r="1" fill="#196643"/><circle cx="345.29" cy="422.09" r="5" fill="#196643"/><circle cx="474.298" cy="725.176" r="1" fill="#248f5e"/><circle cx="672.438" cy="441.894" r="5" fill="#196643"/><circle cx="266.623" cy="814.921" r="5" fill="#99e6c3"/><circle cx="486.316" cy="428.885" r="2" fill="#1c1c1c"/><circle cx="696.538" cy="122.607" r="1" fill="#99e6c3"/><circle cx="713.438" cy="691.138" r="1" fill="#47d193"/><circle cx="467.468" cy="417.732" r="1" fill="#1c1c1c"/><circle cx="835.32" cy="661.318" r="1" fill="#99e6c3"/><circle cx="606.556" cy="474.49" r="2" fill="#05140d"/><circle cx="702.001" cy="484.309" r="3" fill="#248f5e"/><circle cx="648.345" cy="216.93" r="1" fill="#47d193"/><circle cx="487.714" cy="272.055" r="5" fill="#196643"/><circle cx="456.218" cy="423.448" r="3" fill="#05140d"/><circle cx="325.616" cy="556.496" r="1" fill="#196643"/><circle cx="583.627" cy="538.95" r="2" fill="#05140d"/><circle cx="562.854" cy="673.717" r="3" fill="#196643"/><circle cx="393.216" cy="340.652" r="5" fill="#0f3d28"/><circle cx="463.119" cy="490.278" r="1" fill="#05140d"/><circle cx="393.749" cy="605.651" r="1" fill="#0f3d28"/><circle cx="667.403" cy="130.245" r="3" fill="#99e6c3"/><circle cx="482.345" cy="576.145" r="5" fill="#1c1c1c"/><circle cx="326.205" cy="444.231" r="4" fill="#248f5e"/><circle cx="368.733" cy="538.862" r="5" fill="#0f3d28"/><circle cx="466.906" cy="504.256" r="3" fill="#1c1c1c"/><circle cx="207.198" cy="441.319" r="1" fill="#47d193"/><circle cx="416.29" cy="663.136" r="4" fill="#196643"/><circle cx="343.453" cy="378.306" r="1" fill="#0f3d28"/><circle cx="477.371" cy="482.82" r="1" fill="#05140d"/><circle cx="395.441" cy="466.907" r="2" fill="#1c1c1c"/><circle cx="651.453" cy="409.292" r="4" fill="#196643"/><circle cx="453.086" cy="440.875" r="5" fill="#1c1c1c"/><circle cx="550.244" cy="281.075" r="5" fill="#248f5e"/><circle cx="501.389" cy="548.116" r="5" fill="#1c1c1c"/><circle cx="543.161" cy="260.397" r="2" fill="#47d193"/><circle cx="666.154" cy="739.494" r="4" fill="#47d193"/><circle cx="328.941" cy="324.673" r="3" fill="#2eb879"/><circle cx="614.306" cy="333.369" r="4" fill="#248f5e"/><circle cx="692.442" cy="632.805" r="5" fill="#196643"/><circle cx="384.913" cy="534.871" r="5" fill="#0f3d28"/><circle cx="612.922" cy="917.801" r="2" fill="#99e6c3"/><circle cx="432.166" cy="444.808" r="2" fill="#05140d"/><circle cx="390.564" cy="539.369" r="2" fill="#05140d"/><circle cx="609.448" cy="646.181" r="4" fill="#196643"/><circle cx="471.103" cy="429.076" r="2" fill="#1c1c1c"/><circle cx="401.965" cy="527.701" r="3" fill="#05140d"/><circle cx="238.625" cy="366.165" r="3" fill="#47d193"/><circle cx="376.128" cy="700.411" r="3" fill="#248f5e"/><circle cx="600.122" cy="623.864" r="2" fill="#0f3d28"/><circle cx="435.05" cy="497.429" r="5" fill="#1c1c1c"/><circle cx="361.915" cy="336.154" r="5" fill="#248f5e"/><circle cx="229.481" cy="169.258" r="3" fill="#99e6c3"/><circle cx="383.087" cy="776.479" r="1" fill="#47d193"/><circle cx="526.038" cy="354.26" r="4" fill="#0f3d28"/><circle cx="655.967" cy="325.906" r="5" fill="#248f5e"/><circle cx="441.051" cy="886.482" r="4" fill="#99e6c3"/><circle cx="388.519" cy="801.272" r="5" fill="#47d193"/><circle cx="438.926" cy="692.906" r="5" fill="#248f5e"/><circle cx="436.522" cy="455.864" r="1" fill="#1c1c1c"/><circle cx="477.791" cy="574.865" r="3" fill="#1c1c1c"/><circle cx="408.977" cy="678.782" r="1" fill="#248f5e"/><circle cx="402.609" cy="501.365" r="5" fill="#1c1c1c"/><circle cx="360.048" cy="519.548" r="3" fill="#0f3d28"/><circle cx="318.313" cy="586.672" r="1" fill="#248f5e"/><circle cx="665.567" cy="366.502" r="1" fill="#248f5e"/><circle cx="516.026" cy="577.411" r="4" fill="#1c1c1c"/><circle cx="414.41" cy="308.011" r="1" fill="#248f5e"/><circle cx="541.342" cy="571.238" r="4" fill="#05140d"/><circle cx="628.017" cy="433.695" r="1" fill="#0f3d28"/><circle cx="394.949" cy="514.161" r="2" fill="#05140d"/><circle cx="381.65" cy="366.339" r="3" fill="#196643"/><circle cx="648.553" cy="393.436" r="2" fill="#196643"/><circle cx="678.631" cy="499.286" r="4" fill="#196643"/><circle cx="426.938" cy="792.45" r="4" fill="#47d193"/><circle cx="543.259" cy="564.592" r="3" fill="#1c1c1c"/><circle cx="390.568" cy="348.741" r="1" fill="#196643"/><circle cx="439.116" cy="330.493" r="1" fill="#196643"/><circle cx="144.868" cy="194.531" r="2" fill="#99e6c3"/><circle cx="677.302" cy="539.323" r="4" fill="#196643"/><circle cx="217.278" cy="664.754" r="4" fill="#47d193"/><circle cx="574.191" cy="813.389" r="5" fill="#99e6c3"/><circle cx="273.536" cy="714.692" r="5" fill="#47d193"/><circle cx="528.889" cy="231.75" r="4" fill="#47d193"/><circle cx="437.836" cy="424.233" r="3" fill="#05140d"/><circle cx="539.377" cy="611.861" r="2" fill="#05140d"/><circle cx="764.19" cy="381.927" r="3" fill="#47d193"/><circle cx="617.503" cy="539.81" r="5" fill="#0f3d28"/><circle cx="355.923" cy="463.857" r="2" fill="#0f3d28"/><circle cx="271.979" cy="346.914" r="4" fill="#47d193"/><circle cx="410.081" cy="374.452" r="5" fill="#0f3d28"/><circle cx="312.393" cy="497.15" r="2" fill="#196643"/><circle cx="716.769" cy="406.48" r="5" fill="#196643"/><circle cx="673.981" cy="232.441" r="1" fill="#99e6c3"/><circle cx="367.233" cy="535.724" r="1" fill="#0f3d28"/><circle cx="388.285" cy="469.787" r="5" fill="#0f3d28"/><circle cx="665.29" cy="522.611" r="1" fill="#196643"/><circle cx="630.854" cy="728.301" r="2" fill="#47d193"/><circle cx="323.414" cy="457.508" r="1" fill="#248f5e"/><circle cx="452.103" cy="145.237" r="2" fill="#99e6c3"/><circle cx="476.604" cy="923.986" r="3" fill="#99e6c3"/><circle cx="648.472" cy="391.792" r="1" fill="#196643"/><circle cx="598.72" cy="191.082" r="5" fill="#99e6c3"/><circle cx="678.676" cy="518.303" r="4" fill="#196643"/><circle cx="663.921" cy="613.404" r="1" fill="#196643"/><circle cx="537.123" cy="341.661" r="3" fill="#196643"/><circle cx="691.899" cy="300.404" r="1" fill="#47d193"/><circle cx="716.212" cy="606.632" r="5" fill="#47d193"/><circle cx="538.687" cy="446.195" r="3" fill="#1c1c1c"/><circle cx="945.512" cy="545.89" r="4" fill="#99e6c3"/><circle cx="517.24" cy="410.323" r="1" fill="#05140d"/><circle cx="553.487" cy="505.579" r="4" fill="#1c1c1c"/><circle cx="548.602" cy="394.57" r="2" fill="#05140d"/><circle cx="368.963" cy="614.107" r="5" fill="#196643"/><circle cx="469.243" cy="663.643" r="5" fill="#196643"/><circle cx="569.504" cy="357.097" r="4" fill="#0f3d28"/><circle cx="703.667" cy="470.816" r="4" fill="#248f5e"/><circle cx="585.009" cy="317.481" r="4" fill="#196643"/></svg>